<?xml version="1.0" encoding="utf-8"?>
<!-- Generator: Adobe Illustrator 16.0.0, SVG Export Plug-In . SVG Version: 6.00 Build 0)  -->
<!DOCTYPE svg PUBLIC "-//W3C//DTD SVG 1.1//EN" "http://www.w3.org/Graphics/SVG/1.1/DTD/svg11.dtd">
<svg version="1.1" id="Ebene_1" xmlns="http://www.w3.org/2000/svg" xmlns:xlink="http://www.w3.org/1999/xlink" x="0px" y="0px"
	 width="1992.444px" height="1920px" viewBox="0 0 1992.444 1920" enable-background="new 0 0 1992.444 1920" xml:space="preserve">
<ellipse fill="#FFFFFF" cx="996.26" cy="969.417" rx="957.927" ry="941.194"/>
<g>
	<path fill-rule="evenodd" clip-rule="evenodd" fill="#006F31" d="M104.88,763.911c63.083-283.113,251.159-506.073,493.241-623.707
		l61.991,336.455c-117.94,81.773-206.621,206.367-240.283,357.432c-71.033,318.885,129.856,635.046,448.859,706.128
		c318.921,71.062,635.119-129.881,706.171-448.756c33.695-151.209,6.146-301.914-66.141-426.075l198.977-278.241
		c169.461,209.355,245.252,491.238,182.135,774.492c-109.805,492.805-598.48,803.35-1091.322,693.531
		C305.583,1745.335-4.93,1256.715,104.88,763.911z"/>
	<polygon fill-rule="evenodd" clip-rule="evenodd" fill="#DD7637" points="730.908,481.034 832.173,471.417 818.37,327.387 
		858.729,323.56 872.383,467.582 973.094,458.06 937.666,86.306 837.002,95.905 850.352,236.311 809.619,240.183 796.209,99.761 
		695.61,109.375 	"/>
	<path fill-rule="evenodd" clip-rule="evenodd" fill="#DD7637" d="M1015.137,466.911l138.072,33.267
		c26.68,6.48,42.186,2.199,55.623-13.804c5.947-7.07,7.646-11.989,13.264-35.182l29.225-120.982
		c4.672-19.645,3.744-28.975-2.328-38.941c-6.197-10.052-13.475-14.985-30.082-18.987l-49.977-12.095l12.77-52.881L1275.975,230
		l19.264-79.619l-124.035-29.923c-23.174-5.611-29.508-6.057-37.756-4.799c-26.773,4.717-37.555,18.641-48.381,63.491
		l-19.234,79.621c-0.986,4.053-1.98,8.106-2.461,12.271c-6.775,43.682,3.701,62.215,33.885,69.537l44.432,10.691l-13.385,55.392
		l-93.301-22.477L1015.137,466.911z"/>
	<path fill-rule="evenodd" clip-rule="evenodd" fill="#DD7637" d="M1281.801,452.509c-27.426,48.29-22.971,69.9,9.105,88.01
		l127.154,72.113c25.271,14.391,51.195,2.286,78.033-45.09l68.041-120.004l-98.695-55.986c0.428,4.432,0.174,9.011-0.254,12.955
		c-1.35,11.793-3.637,20.044-11.246,33.586l-39.951,70.364l-19.799-11.246c-12.262-6.943-13.547-13.041-5.607-27.02l72.395-127.625
		c9.033-15.807,9.787-17.199,13.973-19.493c6.322-3.591,13.896-3.463,22.072,1.158l59.576,33.745l5.791,3.36l9.678,6.047
		c13.48,8.816,18.357,13.965,23.604,23.509l45.803-80.689l-156.521-88.764c-40.553-23.033-61.479-18.785-84.725,22.275
		L1281.801,452.509z"/>
	
		<text transform="matrix(0.0698 0.9976 -0.9976 0.0698 112.9873 888.2354)" fill="#FFFFFF" font-family="'HandelGothic'" font-size="333.4206">D</text>
	
		<text transform="matrix(0.2079 0.9782 -0.9782 0.2079 140.0996 1142.9395)" fill="#FFFFFF" font-family="'Newtown'" font-size="43.6696"> </text>
	
		<text transform="matrix(0.2419 0.9703 -0.9703 0.2419 142.9009 1154.9805)" fill="#FFFFFF" font-family="'HandelGothic'" font-size="333.4072">i</text>
	
		<text transform="matrix(0.342 0.9397 -0.9397 0.342 165.2783 1241.1855)" fill="#FFFFFF" font-family="'Newtown'" font-size="43.6717"> </text>
	
		<text transform="matrix(0.4067 0.9136 -0.9136 0.4067 164.4678 1255.0078)" fill="#FFFFFF" font-family="'HandelGothic'" font-size="333.3888">e</text>
	
		<text transform="matrix(0.5592 0.829 -0.829 0.5592 236.9014 1415.0254)" fill="#FFFFFF" font-family="'Newtown'" font-size="333.3985"> </text>
	
		<text transform="matrix(0.6018 0.7986 -0.7986 0.6018 265.4961 1455.0762)" fill="#FFFFFF" font-family="'Newtown'" font-size="333.3951"> </text>
	
		<text transform="matrix(0.6428 0.766 -0.766 0.6428 294.2388 1495.0684)" fill="#FFFFFF" font-family="'Newtown'" font-size="333.3989"> </text>
	
		<text transform="matrix(0.682 0.7314 -0.7314 0.682 322.9038 1531.707)" fill="#FFFFFF" font-family="'Newtown'" font-size="333.4193"> </text>
	
		<text transform="matrix(0.7431 0.6691 -0.6691 0.7431 354.8687 1568.4668)" fill="#FFFFFF" font-family="'Newtown'" font-size="333.3896"> </text>
	
		<text transform="matrix(0.8572 0.515 -0.515 0.8572 423.5034 1645.1348)" fill="#FFFFFF" font-family="'HandelGothic'" font-size="333.4104">D</text>
	
		<text transform="matrix(0.9136 0.4067 -0.4067 0.9136 645.8394 1772.623)" fill="#FFFFFF" font-family="'Newtown'" font-size="43.6693"> </text>
	
		<text transform="matrix(0.9563 0.2924 -0.2924 0.9563 656.896 1781.835)" fill="#FFFFFF" font-family="'HandelGothic'" font-size="333.4089">r</text>
	
		<text transform="matrix(0.9659 -0.2588 0.2588 0.9659 1206.6992 1818.0762)" fill="#FFFFFF" font-family="'Newtown'" font-size="43.6704"> </text>
	
		<text transform="matrix(0.9397 -0.342 0.342 0.9397 1220.3496 1818.4766)" fill="#FFFFFF" font-family="'HandelGothic'" font-size="333.4076">e</text>
	
		<text transform="matrix(0.9816 0.1908 -0.1908 0.9816 807.0508 1826.4336)" fill="#FFFFFF" font-family="'Newtown'" font-size="43.6705"> </text>
	
		<text transform="matrix(0.9877 0.1564 -0.1564 0.9877 820.1133 1828.4531)" fill="#FFFFFF" font-family="'HandelGothic'" font-size="333.4097">i</text>
	
		<text transform="matrix(0.9962 0.0872 -0.0872 0.9962 907.3569 1842.0938)" fill="#FFFFFF" font-family="'Newtown'" font-size="43.6721"> </text>
	
		<text transform="matrix(0.9962 -0.0872 0.0872 0.9962 1057.8984 1843.3906)" fill="#FFFFFF" font-family="'Newtown'" font-size="43.6721"> </text>
	<text transform="matrix(1 0 0 1 918.4331 1845.1445)" fill="#FFFFFF" font-family="'HandelGothic'" font-size="333.4076">t</text>
	
		<text transform="matrix(0.9848 -0.1736 0.1736 0.9848 1069.3945 1845.2061)" fill="#FFFFFF" font-family="'HandelGothic'" font-size="333.4023">t</text>
	<g>
		<path fill="#F66013" d="M975.479,474.438c12.96-1.251,26.514,5.398,36.785,12.799c8.191,5.619,13.223,13.5,17.805,22.118
			c2.355,4.842,3.951,10.296,2.791,15.691c-0.875,5.48-2.656,9.88,0.691,14.934c5.971,9.889,10.717,19.704,8.289,31.609
			c-0.584,5.249-4.145,8.167-6.148,12.722c-0.877,3.585-1.18,7.323-1.695,10.971c-5.752,1.79-11.271,3.25-17.375,2.603
			c-3.617-6.251-7.408-12.71-10.172-19.379c-1.303-3.382-2.455-6.49-0.875-10.058c1.318-5.189,7.26-3.296,11.219-4.054
			c6.738-0.431,10.658-4.508,14.797-9.309c-1.313-4.731-2.977-8.672-6.115-12.502c-4.537-5.632-7.51-12.922-12.715-17.893
			c-3.543-2.234-9.045-1.764-13.16-2.044c-6.506,2.348-12.949,2.209-19.109,5.611c-6.848,3.476-10.063,9.29-15.51,14.18
			c-4.537,4.041-10.056,5.092-15.941,5.53c-2.996,1.617-7.497,3.042-9.24,6.103c-2.599,9.253-3.125,19.117-5.386,28.465
			c-1.702,6.363-5.601,11.012-4.946,17.983c1.401,12.205,7.926,24.494,13.648,35.19c-2.09,1.316-4.238,2.747-6.508,3.678
			c-3.819,0.357-7.926-0.877-11.726-1.439c-1.313-2.002-2.645-4.008-3.979-5.995c-2.455-0.449-4.913-0.881-7.367-1.328
			c0.609,2.375,1.22,4.749,1.832,7.124c5.279,3.035,10.604,6.007,15.979,8.9c3.651,16.036,8.618,31.649,13.973,47.17
			c2.988,8.621,3.728,17.327,5.697,26.194c1.339,7.002-0.098,13.376-1.134,20.281c1.333,6.134,1.955,12.285,4.504,18.048
			c2.83,6.201,6.494,11.965,9.396,18.144c6.289,3.638,12.491,2.21,19.297,3.316c4.224,0.564,4.88,5.409,6.449,8.573
			c-1.004,4.607-2.317,8.665-0.667,13.295c7.439,2.439,13.436,7.035,21.424,3.105c5.578-4.229,10.887-8.932,16.264-13.428
			c6.348-5.371,9.576-12.156,13.502-19.281c5.652-10.807,9.234-22.439,11.166-34.449c1.535-7.933,0.393-16.568-0.236-24.597
			c-0.268-4.636-2.988-7.505-5.346-11.232c-5.773,7.969-7.33,16.838-9.52,26.163c-1.258,6.069-5.115,9.981-9.289,14.173
			c-2.949-0.96-8.986,0.336-8.617-4.205c-1.502-11.319,2.609-20.608-4.359-30.778c-2.916,0.87-5.863,1.716-8.813,2.475
			c-2.576,5.483-5.213,11.115-6.805,16.966c-0.695,3.457,0.146,7.235,0.203,10.737c0.477,6.072-0.576,11.875-1.359,17.85
			c1.881,4.228,0.559,7.929-0.047,12.271c-1.695,0.481-3.404,0.943-5.12,1.422c-1.708-1.168-3.435-2.338-5.143-3.507
			c-1.671-6.637-3.189-13.228-3.198-20.139c0.053-7.361-2.145-14.125-1.426-21.458c0.373-4.647,0.605-9.302,1.065-13.934
			c0.657-6.263,2.817-11.925,2.065-18.329c-4.503-1.198-9.285-2.019-13.569-3.853c-2.548-4.167-3.462-10.352-7.544-13.141
			c-5.544-4.251-11.282-8.093-16.419-12.857c0.79-2.483,1.946-4.618,3.484-6.422c6.265,0.851,10.505,7.779,16.426,10.183
			c9.684,5.295,20.261,7.524,31.024,9.29c9.021,0.574,19.992-4.198,20.996-14.351c-1.205-1.912-2.395-3.822-3.563-5.745
			c-2.025-0.267-4.049-0.551-6.057-0.816c-3.422,1.119-6.041,1.705-9.625,0.827c-0.922-2.305-1.734-4.555-2.932-6.715
			c-2.471-1.372-6.031-0.969-8.804-1.315c-0.978-0.898-1.954-1.794-2.931-2.693c1.162-2.684,2.361-5.379,3.59-8.034
			c5.385-2.315,10.652-4.474,15.285-8.054c-3.537-4.165-6.764-6.573-4.258-12.582c3.023-3.898,10.002-4.393,14.582-5.449
			c3.541-0.796,4.217,2.105,6.428,4.158c-1.045,5.752,0.768,9.046,3.676,13.773c3.789,0.63,7.557,1.273,11.313,1.968
			c2.576-2.967,5.213-4.967,5.145-9.32c-1.154-4.224-5.17-7.586-6.865-11.658c0.322-4.762,2.863-9.649,4.859-13.959
			c3.432,0.639,7.48,0.074,9.26,3.77c2.635,9.516,3.301,19.042,1.973,28.835c0.457,10.109-4.264,18.245-5.709,27.984
			c0.684,1.165,1.346,2.326,2.027,3.491c6.393,0.52,12.766,0.753,19.123,1.674c-0.279,1.687-0.578,3.389-0.877,5.09
			c-1.316,0.85-2.637,1.716-3.973,2.563c1.971,7.839,2.486,15.902,4.514,23.735c1.361,5.164,1.914,10.4,2.166,15.724l2.125,2.428
			l0.848,1.23c0.775,5.982,1.355,11.966,2.637,17.878c-8.553,8.066-3.008,19.369-7.221,28.94
			c-2.674,6.741-2.744,13.905-4.932,20.731c-3.607,10.05-5.719,19.549-12.023,28.417c-9.951,13.1-21.02,24.675-36.357,31.302
			c-7.096,1.465-13.496-1.43-19.145-5.485c-15.414-8.48-29.207-20.151-41.366-32.827c-4.494-4.58-9.177-8.273-13.033-13.467
			c-9.961-13.813-16.044-29.517-19.9-46.013c-1.602-6.926,0.111-13.96-1.858-20.702c-0.824-2.271-1.608-4.569-2.339-6.86
			c9.395-0.53,16.091-6.584,21.597-13.625c0.103-5.935-2.077-12.093-3.424-17.839c-3.597-0.506-7.303-1.086-10.934-1.104
			c-5.446,0.143-10.914,2.018-16.389,1.323c-5.925-0.775-11.597-1.469-16.734-4.691c-5.153-3.155-10.175-5.118-13.728-10.224
			c-5.32-6.833-6.082-15.206-10.905-22.359c-6.081-9.359-1.063-19.888-5.851-29.145c-1.521-3.65-3.759-7.657-4.124-11.637
			c0.067-5.729,2.698-11.433,3.262-17.163c-0.539-4.312-2.99-8.408-4.204-12.591c-2.504-7.632-0.857-15.812,1.326-23.296
			c1.496-5.3,5.456-9.389,6.54-14.655c1.452-11.705,8.716-22.603,17.055-30.652c6.629-6.473,15.067-7.613,22.352-12.979
			c7.151-4.911,14.229-11.11,22.911-12.934c6.743-1.474,13.383-3.375,20.128-4.759C954.908,472.528,964.723,475.366,975.479,474.438
			z"/>
		<path fill="#FFFFFF" d="M962.24,480.919c5.364,0.126,12.115-0.778,16.132,3.487C970.534,486.469,968.334,486.383,962.24,480.919z"
			/>
		<path fill="#FFFFFF" d="M935.983,491.53c7.089,1.598,14.223,3.453,21.431,2.149c1.895,1.625,3.766,3.282,5.633,4.957
			c-9.269,2.236-18.317,2.508-27.021,6.773c-0.525,1.68-1.049,3.359-1.591,5.036c9.098,2.873,17.303-1.783,26.571,1.333
			c1.444,1.671,2.887,3.342,4.328,5.012c-1.449,1.499-2.881,2.984-4.327,4.467c-4.334,1.276-8.529,2.772-12.997,3.495
			c-8.896,1.822-18.194,0.083-27.306-0.08c-7,1.729-13.806,0.624-20.494,4.004c-0.347,2.489-0.699,4.997-1.048,7.487
			c3.463,1.069,5.573,1.457,9.142,0.507c2.839,0.374,5.671,0.8,8.496,1.26c1.486,2.334,2.99,4.671,4.49,7.024
			c-6.664,6.272-13.258,1.854-21.229,4.866c1.467,2.845,3.029,5.652,4.591,8.46c-0.499,1.224-1.013,2.445-1.512,3.667
			c-6.308-0.292-12.879-2.119-19.144-1.464c-8.233,2.4-13.911,7.8-19.457,14.055c-2.074-4.831-3.244-8.26-1.843-13.523
			c1.023-11.071,10.674-16.801,11.025-28.185c0.536-9.313,6.127-16.34,13.128-21.915c6.449-4.13,14.018-5.565,20.145-10.496
			c5.373-3.452,10.271-9.66,16.53-11.096C927.75,487.96,931.661,490.612,935.983,491.53z"/>
		<path fill="#F66013" d="M994.959,569.686c1.197,0.848,2.371,1.727,3.549,2.589c-1.045,5.752-2.58,10.762-0.285,16.462
			c-3.363,3.928-7.371,6.875-11.648,9.738c-2.072,2.825-2.773,5.909-6.729,6.331c-5.4,1.39-7.266-5.227-10.736-8.067
			c-4.483-1.407-9.61-0.358-14.266-1.193c-1.648-2.22-2.081-5.415-2.898-8.021c3.032-6.466,6.643-11.697,14.164-12.874
			c6.847,0.367,12.109,2.088,18.346-1.849c1.158-0.859,2.337-1.715,3.498-2.575C990.281,569.892,992.607,569.751,994.959,569.686z"
			/>
		<path fill="#FFFFFF" d="M878.95,576.731c1.35,6.049-1.438,12.629-1.568,18.825c-0.161,7.076-4.814,12.69-8.389,18.423
			c-2.034-2.749-4.689-5.784-5.257-9.215c0.056-3.746,0.987-7.533,1.597-11.217c0.915-0.867,1.849-1.749,2.764-2.615
			c0.467-2.77,0.919-5.544,1.491-8.296C872.437,578.813,873.725,576.719,878.95,576.731z"/>
		<path fill="#F66013" d="M564.732,525.373c6.214,2.348,12.189,5.452,18.183,8.348c10.819,7.302,17.835,16.79,25.568,27.041
			c5.59,8.122,5.453,19.401,6.874,28.473c2.309,5.419,8.067,9.957,9.457,15.87c2.431,8.966,1.622,18.214,3.836,27.408
			c1.246,5.517,3.513,10.574,5.066,15.949c2.296,7.72,1.022,15.576,3.427,23.279c2.61,8.343,2.642,17.047,5.015,25.437
			c3.21,11.282,5.78,22.682,9.567,33.817c2.14,9.5,8.516,18.291,13.88,26.391c7.148,9.049,13.71,18.494,20.47,27.83
			c9.299,11.323,14.104,25.118,24.032,36.091c8.084-5.279,15.7-11.417,23.3-17.367c0.17,2.758,0.345,5.5,0.058,8.25l-0.108,0.617
			c-5.14,4.856-10.499,9.038-14.535,14.973c-0.558,3.179-1.133,6.357-1.724,9.53c-1.858,1.196-3.701,2.414-5.549,3.649
			c-3.264-2.804-6.137-5.31-7.523-9.523c-3.716-10.627-11.05-18.098-16.828-27.474c-5.458-8.576-11.047-17.618-17.671-25.302
			c-9.869-12.414-19.562-23.205-25.363-38.308c-5.727-18.245-11.923-36.943-14.396-55.962c-1.349-7.058-3.442-13.892-4.001-21.112
			c-0.607-7.654-2.762-14.853-5.006-22.157c-2.008-6.323-2.144-13.221-4.463-19.386c-2.921-3.046-3.322,1.259-4.768,3.238
			c-1.738,6.568-0.164,12.142-5.748,17.204c-1.671-0.169-3.346-0.321-5.036-0.476c-2.163,3.039-4.345,6.076-6.585,9.048
			c1.104,6.023,2.43,8.559,7.09,12.602c4.289-1.32,10.333-6.691,14.676-4.175c3.953,4.627,6.477,8.932,4.804,15.229
			c-6.854-0.317-12.766,0.258-19.313,2.334c-2.383,2.77-6.004,5.732-7.057,9.321c-0.347,6.511,4.197,13.332,3.377,19.815
			c-0.465,3.055-4.081,3.27-6.31,4.563c0.498,7.05,1.915,13.924,3.747,20.748c8.613,35.617,19.119,70.646,30.139,105.57
			c6.345,13.622,9.325,28.336,15.594,41.979c6.793,3.495,12.439,9.077,19.349,12.203c7.589,1.686,16.11-3.251,23.815-3.846
			c6.654-0.462,12.918-2.34,19.136-4.651c14.466-4.192,28.646-5.744,42.465-12.3c1.358,2.453,2.739,4.891,4.06,7.357
			c3.378,6.385,6.354,12.949,9.856,19.25c-6.078,1.716-12.28,2.328-18.404,3.609c-6.876,1.627-13.519,3.225-20.632,3.378
			c-8.375,0.069-15.505,3.761-23.819,3.88c-9.134-0.044-17.952,2.146-27.071,2.725c-8.77,1.206-16.277-1.245-24.849-2.572
			c-8.308-13.33-12.579-29.474-19.521-43.626c-5.667-13.946-9.774-28.592-14.326-42.945c-8.636-24.477-14.704-49.974-22.209-74.838
			c-2.48-7.576-3.513-15.622-5.033-23.614c-1.735-9.198-1.187-18.475-3.177-27.629c-5.199-4.296-10.091-8.928-15.252-13.236
			c-2.916-4.18-5.1-8.798-7.941-12.999c-2.854-2.006-8.048-1.288-11.505-1.683c-3.661,1.377-7.103,2.315-11.061,1.549
			c-8.681-1.311-17.387-2.892-25.83-5.26c-2.846-0.642-4.95-2.286-7.241-3.964c-4.435-1.186-8.564-1.68-12.237-4.681
			c-7.487-5.69-15.034-9.531-20.74-17.193c-3.869-5.216-7.717-11.046-9.595-17.312c-1.846-7.146-1.762-14.997-1.03-22.291
			c0.717-7.618,0.816-15.147,3.215-22.362c3.634-10.808,9.048-21.161,15.967-30.205c4.202-5.57,9.595-8.84,15.036-12.988
			c11.322-8.891,25.833-13.129,40.105-13.088C543.352,520.204,554.297,522.036,564.732,525.373z"/>
		<path fill="#FFFFFF" d="M555.513,529.849c9.99,2.339,17.866,7.832,25.924,13.906c6.437,4.92,10.644,11.134,15.45,17.559
			c3.172,4.242,5.366,9.002,6.032,14.292c-2.589,4.56-8.154,7.093-9.4,12.472c-2.324,9,0.646,17.122,4.423,25.173
			c3.246,5.53-2.109,10.101-4.667,14.577c-1.011-3.526-1.742-7.233-3.13-10.63c-1.481-1.554-4.474-1.671-6.452-2.408
			c-2.731,5.173-4.897,11.348-9.362,15.188c-6.419,5.482-14.096,9.148-22.304,11.092c-7.654,1.917-14.072,5.272-22.022,3.735
			c-7.445-1.395-15.043-2.517-22.316-4.59c-4.548-1.242-8.528-5.413-13.167-5.73c-1.434,1.005-2.847,2.087-4.213,3.211
			c-1.239-3.034-2.614-6.004-4.218-8.872c-5.09,2.242-7.542,2.485-12.874,0.664c-4.163-7.675-5.845-16.157-6.471-24.806
			c1.089-14.479,1.397-28.049,10.064-40.383c5.213-6.791,8.712-15.922,15.545-20.835c5.951-4.536,12.185-8.758,18.42-12.89
			c4.379-3.04,10.503-2.196,15.707-3.178C535.823,525.242,546.334,527.636,555.513,529.849z"/>
		<path fill="#FFFFFF" d="M912.264,607.383c2.801,2.211,4.68,3.516,4.687,7.414c-0.703,5.723-3.139,11.319-4.545,16.919
			c-1.447-1.849-4.622-3.752-4.648-6.326C907.311,618.543,906.598,612.413,912.264,607.383z"/>
		<path fill="#008131" d="M1185.264,657.178c6.984,2.802,14.563,5.143,21.061,8.904c9.16,7.26,18.852,13.728,27.99,21.018
			c2.543,1.864,5.242,4.145,8.482,4.554c13.639,1.65,26.676,3.37,39.4,8.9c2.852,1.333,5.295,3.658,7.754,5.594
			c2.646,6.825,6.73,8.393,13.072,11.029c-3.432,5.014-6.375,10.167-8.492,15.873c-1.506,3.829-3.426,7.407-5.387,10.997
			c-7.014,13.102-12.74,27.068-18.158,40.875c-6.996-3.851-13.492-1.66-20.9-3.066c-12.365-2.631-23.486-2.05-33.559-10.781
			c-5.645,3.28-10.652,6.688-17.467,6.644c-2.654,2.209-4.936,4.608-7.107,7.292c1.607,13.056,2.477,26.46,2.15,39.621
			c1.539,5.869,1.553,11.754,1.756,17.758c1.08,11.813,1.311,23.636,2.896,35.395c1.217,9.109-2.268,19.073-0.037,27.862
			c-0.617,5.933-1.738,11.727-2.803,17.58c0.574,1.075,1.148,2.151,1.717,3.243c-2.854,15.444-5.256,30.95-8.414,46.341
			c-1.117,8.664-3.502,15.899-2.141,24.393c1.279,8.961,1.379,17.996,2.334,26.986c1.215,8.824-2.125,17.256-2.746,26.536
			c-3.844,8.273-10.607,12.49-17.432,17.971c-2.48,1.921-4.992,3.803-7.443,5.764c-3.854,1.662-7.625,3.462-11.594,4.787
			c-4.115,1.331-8.08,2.319-11.809,4.589c-3.211,0.817-6.422,1.652-9.633,2.489c-7.115-0.344-13.35,2.971-20.467,2.75
			c-1.037,0.653-2.088,1.3-3.125,1.95c-10.582-1.697-20.471,0.659-30.676,3.174c-7.205,1.393-11.857-2.701-18.443-3.928
			c-6.406-0.77-12.828-0.817-19.186-2.039c-14.129-1.877-26.586-7.715-40.436-11.384c-7.223-1.552-13.42-5.704-18.644-10.769
			c-10.081-2.229-18.905-9.182-27.606-14.819c-12.492-11.601-24.185-24.531-31.677-39.983c-2.448-4.027-5.257-7.798-7.382-12.051
			c4.668-7.914,9.366-15.099,18.032-19.053c2.823-7.903,0.925-15.269,0.885-23.515c0.171-9.147,1.248-18.419,1.979-27.521
			c0.415-4.586-1.198-8.521-2.037-13.027c-1.276-6.655-1.729-13.361-3.685-19.886c-12.022-6.4-19.838-16.487-29.219-25.929
			c-4.741-0.85-9.507-1.651-14.288-2.277c-8.534,2.701-18.15,2.873-26.998,4.12c-11.898,2.483-23.868,4.261-35.701,7.075
			c-7.096,3.59-14.673,4.563-22.121,7.03c-5.499,1.746-11.121,2.284-16.78,3.239c-6.535,6.241-13.737,4.27-21.597,7.265
			c-3.501-6.301-6.478-12.866-9.856-19.25c-1.202-2.338-2.348-4.7-3.454-7.074c0.271-2.256,1.429-5.118,0.458-7.254
			c-3.548-8.755-8.943-17.089-11.642-26.14c-1.255-7.892-2.589-16.239-1.736-24.223l0.108-0.617c0.754-2.988,1.423-5.988,2.21-8.968
			c4.086-1.674,7.694-3.965,11.221-6.588c3.835-1.772,7.195-4.158,10.717-6.446c4.009-2.147,8.602-3.08,12.605-5.298
			c7.411-4.37,15.51-5.997,24.086-8.529c2.506-0.854,5.021-1.654,7.561-2.395c5.316-3.141,10.141-7.008,15.382-10.322
			c7.742-5.143,15.462-9.758,22.063-16.378c0.986-0.464,1.968-0.913,2.933-1.363c17.313-9.912,36.322-16.675,53.341-27.028
			c2.419-0.763,4.828-1.562,7.23-2.435c4.265-1.182,8.364-2.43,12.641-3.273c0.731,2.291,1.515,4.588,2.339,6.86l-0.577,0.768
			c-17.55,0.958-28.39,13.053-44.886,16.5c-0.708,0.797-1.414,1.595-2.122,2.392c-10.627,3.821-19.928,10.375-29.889,15.749
			c-8.786,7.157-19.354,12.46-26.88,20.918c6.234,1.219,12.507,2.019,18.783,3.013c0.882-3.919,1.746-7.826,2.558-11.757
			c1.763-1.056,3.511-2.13,5.272-3.186c2.068,2.046,4.14,4.077,6.23,6.09c2.3,2.636,4.803,5.042,7.211,7.572
			c6.846,2.284,13.22,3.916,18.317,9.399c-0.603,1.311-1.205,2.624-1.81,3.952c-4.534-0.512-8.875-1.22-13.43-0.603
			c-1.879,4.949,2.558,7.022,5.871,9.552c4.106,2.742,8.235,1.835,12.793,1.201c4.162,4.043,2.729,7.762,3.129,12.951
			c5.989,2.221,11.928,1.191,17.634,4.317c4.954,2.66,10.937,4.206,14.984,7.999c2.061,1.779,5.542,3.346,6.501,5.959
			c-0.079,1.652-0.187,3.281-0.352,4.935c-3.406,0.43-6.802,1.004-10.205,1.611c1.603,7.316,4.746,13.944,7.425,20.882
			c2.258,5.712,2.761,11.627,7.92,15.545c5.188,3.852,11.034,6.88,16.747,9.867c1.203,6.359-0.546,11.792-1.599,17.985
			c-1.193,15.275,6.739,31.162,9.376,46.117c-1.039,6.921-3.072,13.457-3.044,20.567c1.119,4.431,1.64,8.934,2.445,13.433
			c-3.172,2.721-6.009,4.65-10.156,5.57c-1.896,2.113-4.498,4.225-5.532,6.896c-1.868,5.891,0.625,12.175,4.014,17.005
			c2.82,4.215,8.182,6.574,12.286,9.632c2.032,0.341,4.068,0.661,6.103,0.966c4.78-1.394,10.126-0.863,14.759-2.424
			c7.475-5.047,15.344-10.808,20.488-18.32c-0.607-1.878-1.201-3.753-1.793-5.629c-5.068-1.104-10.107-1.773-15.309-1.818
			c-5.245,2.126-10.899,3.152-16.302,4.862c-3.188,0.999-5.497-0.575-8.452-1.501c2.908-8.295,11.624-12.841,19.358-15.719
			c2.806-1.546,5.563-3.136,8.327-4.74c4.262-1.058,8.244-2.752,12.266-4.474c1.279-1.831,2.543-3.683,3.822-5.511
			c-7.201-4.118-15.362-1.83-22.52-5.264c-1.27-2.455-1.129-5.267-1.365-7.965c3.826-1.916,7.686-3.612,11.776-4.913
			c2.95-1.467,6.76-2.482,9.048-4.915c1.215-2.676,0.182-5.692-0.143-8.46c-7.563-1.433-14.107,1.723-21.602,1.524
			c-1.039,0.775-2.063,1.552-3.088,2.347c-2.816-0.405-5.629-0.828-8.426-1.248c-0.138-2.239-1.521-5.565-0.334-7.588
			c6-1.675,12.222-2.604,18.286-4.038c8.195-3.593,15.965-7.083,22.686-13.167c0.365-3.604,0.609-7.21,0.66-10.834
			c-7.941-2.191-16.486-2.167-24.194-4.884c-7.307-3.798-14.559-8.102-21.556-12.447c-3.266-2.292-3.513-5.525-4.555-9.073
			c7.584-0.016,14.785,2.064,22.314,2.57c6.906,0.626,14.227-0.604,21.199-1.169c-0.039-6.739-5.414-8.622-10.402-11.588
			c-7.654-2.317-16.101-2.349-23.712-4.906c-3.428-1.062-4.825-3.7-7.174-6.167c0.398-1.56,0.778-3.124,1.173-4.666
			c9.761,1.218,20.085,4.783,29.648,3.184c6.401-0.932,12.763,0.273,19.114-0.79c4.334-0.764,8.705-0.936,13.113-0.923
			c0.916-0.688,1.84-1.395,2.758-2.085c2.068,0.027,4.15,0.073,6.236,0.103c0.736-0.668,1.49-1.314,2.227-1.983
			c3.113-0.783,6.027-1.741,8.785-3.418c6.188-1.75,12.275-4.012,18.477-5.634c8.25-0.873,15.746-4.111,22.648-8.621
			c3.723-2.43,6.918-3.783,11.338-4.441c7.781-4.659,16.742-9.27,22.779-16.112c2.957-5.948,1.627-14.526,1.912-21.102
			c0.422-7.243-2.008-13.587-4.832-20.106c0.561-1.78,1.119-3.542,1.695-5.319c7.461-2.517,15.199-3.71,22.623-6.341
			c1.479-1.564,2.938-3.028,4.189-4.792c1.32-3.488-0.137-6.294-0.801-9.778c-3.531-2.693-6.906-5.571-10.504-8.186
			c-0.523-0.854-1.064-1.711-1.588-2.565c-6.043-5.543-8.947-14.627-11.383-22.267c-1.061-4.349-2.939-8.488,0.709-12.207
			c6.164-7.262,17.318-5.305,25.633-4.819c11.018-3.825,24.01,2.3,35.738,1.188c8.951-1.334,17.242,0.9,25.934-2.198
			c5.418-1.194,8.391-4.906,11.85-8.87c-0.703-2.851-1.008-6.147-2.451-8.739c-1.779-2.173-4.033-3.968-6.049-5.917
			c-4.742-1.434-9.412-3.104-14.146-4.591c-12.799-3.699-24.896-2.899-38.303-4.543c-3.479,1.94-6.875,2.424-10.787,2.59
			c-4.143,0.087-7.309,1.977-10.877,3.831c5.27,1.279,10.254,2.65,15.713,1.642c9.342-1.55,18.016,1.638,27.4,0.646
			c5.521-0.661,9.732,0.68,14.66,2.98c-0.211,2.107-0.436,4.193-0.645,6.301c-7.926-1.375-15.627-3.027-23.691-3.308
			c-8.945-0.72-17.744,0.251-26.672,0.243c-4.137,1.56-8.232,1.78-12.59,1.67c-7.406,3.042-14.742,6.271-22.131,9.404
			c-2.084,2.186-4.205,4.364-6.318,6.527c-0.994,9.288-5.285,17.18-7.668,26.116c-1.43,4.815-4.904,7.253-8.27,10.667
			c-1.281-5.912-1.861-11.896-2.637-17.878l-0.848-1.23l3.402,0.721c1.17-5.978,2.742-12.098,2.908-18.198
			c-1.008-6.272-3.074-12.163-2.982-18.632c1.799-1.278,3.602-2.556,5.406-3.852c-0.301-2.622-0.588-5.24-0.873-7.859
			c7.523-1.87,14.771,0.839,22.277-0.839c3.801-0.856,7.498-1.129,11.4-1.063c9.881-0.162,18.031-3.993,27.643-5.07
			c5.826-1.085,11.633-0.457,17.469-0.991C1165.924,652.188,1176.148,655.595,1185.264,657.178z"/>
		<path fill="#FFFFFF" d="M1183.807,664.362c4.734,1.487,9.404,3.157,14.146,4.591c2.016,1.949,4.27,3.744,6.049,5.917
			c1.443,2.592,1.748,5.888,2.451,8.739c-3.459,3.964-6.432,7.676-11.85,8.87c-8.691,3.098-16.982,0.864-25.934,2.198
			c-11.729,1.113-24.721-5.012-35.738-1.188c-8.314-0.485-19.469-2.443-25.633,4.819c-3.648,3.718-1.77,7.858-0.709,12.207
			c2.436,7.64,5.34,16.724,11.383,22.267c0.523,0.854,1.064,1.711,1.588,2.565c3.598,2.615,6.973,5.493,10.504,8.186
			c0.664,3.483,2.121,6.29,0.801,9.778c-1.252,1.764-2.711,3.228-4.189,4.792c-7.424,2.631-15.162,3.824-22.623,6.341
			c-0.576,1.777-1.135,3.54-1.695,5.319c2.824,6.52,5.254,12.863,4.832,20.106c-0.285,6.576,1.045,15.154-1.912,21.102
			c-6.037,6.842-14.998,11.453-22.779,16.112c-4.42,0.658-7.615,2.011-11.338,4.441c-6.902,4.51-14.398,7.748-22.648,8.621
			c-6.201,1.623-12.289,3.885-18.477,5.634c-2.758,1.677-5.672,2.636-8.785,3.418c-0.736,0.668-1.49,1.314-2.227,1.983
			c-2.086-0.03-4.168-0.076-6.236-0.103c-0.918,0.69-1.842,1.397-2.758,2.085c-4.408-0.013-8.779,0.159-13.113,0.923
			c-6.352,1.063-12.713-0.142-19.114,0.79c-9.563,1.599-19.887-1.966-29.648-3.184c-0.396,1.542-0.775,3.106-1.173,4.666
			c2.349,2.468,3.747,5.106,7.174,6.167c7.612,2.557,16.058,2.588,23.712,4.906c4.988,2.966,10.363,4.849,10.402,11.588
			c-6.973,0.565-14.293,1.796-21.199,1.169c-7.529-0.506-14.73-2.585-22.314-2.57c1.042,3.548,1.289,6.782,4.555,9.073
			c6.997,4.345,14.249,8.649,21.556,12.447c7.708,2.717,16.253,2.693,24.194,4.884c-0.051,3.624-0.295,7.23-0.66,10.834
			c-6.721,6.085-14.49,9.574-22.686,13.167c-6.063,1.434-12.286,2.363-18.286,4.038c-1.188,2.023,0.196,5.349,0.334,7.588
			c2.797,0.42,5.61,0.843,8.426,1.248c1.025-0.795,2.049-1.572,3.088-2.347c7.494,0.199,14.039-2.957,21.602-1.524
			c0.324,2.768,1.357,5.784,0.143,8.46c-2.288,2.432-6.098,3.448-9.048,4.915c-4.091,1.301-7.95,2.997-11.776,4.913
			c0.236,2.699,0.096,5.51,1.365,7.965c7.157,3.434,15.318,1.146,22.52,5.264c-1.279,1.828-2.543,3.68-3.822,5.511
			c-4.021,1.722-8.004,3.416-12.266,4.474c-2.764,1.604-5.521,3.194-8.327,4.74c-7.734,2.878-16.451,7.424-19.358,15.719
			c2.956,0.926,5.265,2.5,8.452,1.501c5.403-1.71,11.057-2.736,16.302-4.862c5.201,0.045,10.24,0.715,15.309,1.818
			c0.592,1.876,1.186,3.751,1.793,5.629c-5.145,7.513-13.014,13.273-20.488,18.32c-4.633,1.561-9.979,1.03-14.759,2.424
			c-2.035-0.305-4.071-0.625-6.103-0.966c-4.104-3.058-9.466-5.417-12.286-9.632c-3.389-4.83-5.882-11.114-4.014-17.005
			c1.034-2.671,3.636-4.782,5.532-6.896c4.147-0.92,6.984-2.85,10.156-5.57c-0.806-4.499-1.326-9.002-2.445-13.433
			c-0.027-7.11,2.005-13.646,3.044-20.567c-2.638-14.956-10.569-30.842-9.376-46.117c1.053-6.193,2.802-11.626,1.599-17.985
			c-5.713-2.987-11.559-6.015-16.747-9.867c-5.159-3.918-5.662-9.833-7.92-15.545c-2.679-6.938-5.823-13.566-7.425-20.882
			c3.403-0.607,6.799-1.181,10.205-1.611c0.166-1.654,0.273-3.283,0.352-4.935c-0.959-2.613-4.44-4.181-6.501-5.959
			c-4.047-3.792-10.031-5.338-14.984-7.999c-5.706-3.126-11.645-2.096-17.634-4.317c-0.4-5.189,1.033-8.908-3.129-12.951
			c-4.559,0.634-8.687,1.542-12.793-1.201c-3.313-2.53-7.75-4.603-5.871-9.552c4.555-0.618,8.896,0.091,13.43,0.603
			c0.605-1.328,1.207-2.641,1.81-3.952c-5.097-5.483-11.471-7.115-18.317-9.399c-2.408-2.529-4.911-4.936-7.211-7.572
			c-2.09-2.014-4.163-4.044-6.23-6.09c-1.762,1.056-3.509,2.13-5.272,3.186c-0.813,3.931-1.676,7.837-2.558,11.757
			c-6.276-0.994-12.549-1.794-18.783-3.013c7.526-8.458,18.094-13.762,26.88-20.918c9.961-5.374,19.262-11.927,29.889-15.749
			c0.708-0.797,1.413-1.595,2.122-2.392c16.497-3.447,27.336-15.542,44.886-16.5l0.577-0.768c1.97,6.742,0.257,13.776,1.858,20.702
			c3.855,16.497,9.939,32.2,19.9,46.013c3.855,5.194,8.539,8.887,13.033,13.467c12.159,12.676,25.952,24.346,41.366,32.827
			c5.648,4.056,12.049,6.951,19.145,5.485c15.338-6.627,26.406-18.203,36.357-31.302c6.305-8.868,8.416-18.366,12.023-28.417
			c2.188-6.827,2.258-13.99,4.932-20.731c4.213-9.572-1.332-20.874,7.221-28.94c3.365-3.414,6.84-5.852,8.27-10.667
			c2.383-8.937,6.674-16.829,7.668-26.116c2.113-2.163,4.234-4.341,6.318-6.527c7.389-3.133,14.725-6.362,22.131-9.404
			c4.357,0.11,8.453-0.11,12.59-1.67c8.928,0.008,17.727-0.963,26.672-0.243c8.064,0.281,15.766,1.934,23.691,3.308
			c0.209-2.108,0.434-4.194,0.645-6.301c-4.928-2.3-9.139-3.641-14.66-2.98c-9.385,0.993-18.059-2.195-27.4-0.646
			c-5.459,1.009-10.443-0.363-15.713-1.642c3.568-1.854,6.734-3.744,10.877-3.831c3.912-0.166,7.309-0.65,10.787-2.59
			C1158.91,661.463,1171.008,660.664,1183.807,664.362z"/>
		<path fill="#FFFFFF" d="M879.038,620.136c2.119,7.919,2.357,16.042,3.811,24.021c0.421,3.458,5.004,4.297,7.548,5.948
			c2.671,5.484,5.529,10.592,8.892,15.665c1.936,2.589,1.35,5.232,1.526,8.258c-5.743-1.592-9.516-5.231-13.175-9.718
			c-1.146-0.538-2.309-1.079-3.458-1.599c-3.465-5.303-5.486-10.229-6.941-16.385c-4.899-6.812-8.225-13.295-6.863-21.967
			C873.077,621.907,875.516,620.918,879.038,620.136z"/>
		<path fill="#FFFFFF" d="M1243.582,697.798c12.174,2.402,23.385,2.935,34.203,9.725c8.779,3.789,9.184,13.996,10.697,22.127
			c-0.973,1.618-1.936,3.257-2.898,4.895c-4.836-4.729-9.709-9.268-16.24-11.531c-5.609-1.959-11.047-4.278-16.588-6.438
			c-11.248-3.338-23.092-4.904-34.438-7.178c-4.488-0.77-6.977-4.574-10.047-7.574c2.348-1.255,4.693-2.508,7.027-3.799
			C1225.008,698.932,1234.098,695.689,1243.582,697.798z"/>
		<path fill="#FFFFFF" d="M604.477,593.987c4.512,1.554,5.209,5.148,6.936,9.031c-1.91-0.424-3.837-0.852-5.746-1.275
			C605.198,599.163,604.747,596.585,604.477,593.987z"/>
		<path fill="#F66013" d="M1303.023,717.177c12.648,5.144,24.77,11.594,36.643,18.338c8.234,5.768,18.402,5.993,28.582,8.755
			c12.285,1.873,23.752,5.993,34.824,11.551c9.676,6.446,16.873,14.814,24.846,22.892c10.561,9.985,18.125,24.017,25.533,36.408
			c2.828,4.802,6.879,8.152,11.588,10.999c4.766-1.909,9.576-4.077,14.566-5.362c8.74,0.276,17.467,5.971,26.311,7.771
			c8.266,1.361,14.846,7.778,17.758,15.412c6.254,16.458,8.58,33.894,11.307,51.149c0.557,3.305-0.23,6.888-0.514,10.205
			c-2.08,0.75-4.824,2.961-7.063,2.18c-3.662-0.414-8.387-3.493-11.707-1.224c-6.09,3.503-11.916,1.967-18.635,2.701
			c-6.932-3.804-14.613-3.149-21.697-6.289c-4.666-6.436-10.963-9.614-17.469-13.838c-6.594-4.327-16.178-6.134-22.439-11.361
			c-4.477-4.968-7.586-10.67-12.914-15.041c-3.609-3.167-7.744-4.443-12.102-6.253c-7.441-7.063-16.58-10.51-24.842-16.443
			c-11.816-7.372-24.113-16.351-37.689-19.957c-13.449-6.843-27.561-11.145-39.98-20.127c-0.68-0.97-1.361-1.939-2.021-2.906
			c-7.229-2.438-14.619-4.036-22.08-5.541c-4.924-0.917-8.463-3.859-12.842-6.275c5.418-13.808,11.145-27.774,18.158-40.875
			c1.717,5.775,3.334,11.091,8.619,14.587c6.934,4.619,12.23,9.766,20.564,11.44c1.457-1.533,2.93-3.064,4.402-4.578
			c0.465-2.558,0.934-5.134,1.402-7.691c3.066,0.185,6.121,0.348,9.189,0.532c0.588,4.018,0.648,7.608,0.15,11.666
			c2.898,6.799,6.373,13.946,12.85,18.023c12.689,8.465,26.318,13.39,37.502,24.371c0.805,2.48,1.484,5.169,2.771,7.432
			c3.492,3.713,8.973,6.111,13.49,8.321c10.678,5.293,19.57,12.967,27.639,21.612c3.484,3.765,7.912,6.402,11.34,10.193
			c2.721,2.976,4.457,6.895,7.293,9.732c4.514,3.856,9.996,5.616,14.848,9.268c2.58,2.171,5.359,2.872,8.602,3.688
			c-2.547-9.11-9.268-13.621-15.941-19.593c-4.232-3.755-8.982-6.875-13.156-10.654c-2.211-1.735-1.484-5.576-1.746-8.12
			c6.471,0.391,13.641,0.02,19.854,1.854c5.305,3.092,9.463,6.746,15.715,8.073c6.08,11.502,6.041,23.438,9.705,35.56
			c1.867-1.549,3.752-3.096,5.633-4.627c0.471-4.913,1.736-9.19-0.17-13.973c-2.891-7.771-5.074-14.904-2.973-23.235
			c1.736,0.304,3.457,0.589,5.191,0.893c2.906,5.754,4.82,11.813,6.607,17.974c0.604-4.341-1.088-11.565,2.965-14.362
			c5.922,0.792,5.842,9.015,8.529,13.385c1.617-6.095,2.635-12.294,3.467-18.543c-1.816-2.375-3.598-4.742-5.373-7.144
			c-5.654-1.791-11.373-1.714-15.037-6.786c-5.184-1.158-10.414-2.04-15.664-2.821c-3.094,2.098-6.598,5.398-10.367,5.977
			c-5.578-0.111-11.611-0.763-17.027-2.121c-5.316-5.344-7.189-14.549-11.184-20.955c-6.102-9.256-11.381-18.847-18.588-27.357
			c-9.125-7.555-16.934-20.194-28.002-24.669c-10.861-5.752-22.199-5.457-34.285-9.172c-16.545-3.257-29.26-11.974-43.264-20.597
			c-3.689-2.207-6.078,0.103-9.566,1.298c-3.348,1.821-6.969,0.442-10.598,0.123
			C1296.648,727.344,1299.592,722.191,1303.023,717.177z"/>
		<path fill="#FFFFFF" d="M1314.695,731.629c14.004,8.623,26.719,17.34,43.264,20.597c12.086,3.715,23.424,3.42,34.285,9.172
			c11.068,4.475,18.877,17.114,28.002,24.669c7.207,8.511,12.486,18.102,18.588,27.357c3.994,6.406,5.867,15.611,11.184,20.955
			c5.416,1.358,11.449,2.01,17.027,2.121c3.77-0.578,7.273-3.879,10.367-5.977c5.25,0.781,10.48,1.663,15.664,2.821
			c3.664,5.072,9.383,4.995,15.037,6.786c1.775,2.402,3.557,4.769,5.373,7.144c-0.832,6.249-1.85,12.449-3.467,18.543
			c-2.688-4.37-2.607-12.593-8.529-13.385c-4.053,2.797-2.361,10.021-2.965,14.362c-1.787-6.161-3.701-12.219-6.607-17.974
			c-1.734-0.304-3.455-0.589-5.191-0.893c-2.102,8.331,0.082,15.464,2.973,23.235c1.906,4.782,0.641,9.06,0.17,13.973
			c-1.881,1.531-3.766,3.078-5.633,4.627c-3.664-12.123-3.625-24.058-9.705-35.56c-6.252-1.327-10.41-4.98-15.715-8.073
			c-6.213-1.835-13.383-1.463-19.854-1.854c0.262,2.543-0.465,6.385,1.746,8.12c4.174,3.779,8.924,6.899,13.156,10.654
			c6.674,5.972,13.395,10.482,15.941,19.593c-3.242-0.816-6.021-1.517-8.602-3.688c-4.852-3.651-10.334-5.411-14.848-9.268
			c-2.836-2.837-4.572-6.756-7.293-9.732c-3.428-3.791-7.855-6.428-11.34-10.193c-8.068-8.645-16.961-16.319-27.639-21.612
			c-4.518-2.21-9.998-4.607-13.49-8.321c-1.287-2.263-1.967-4.952-2.771-7.432c-11.184-10.981-24.813-15.905-37.502-24.371
			c-6.477-4.077-9.951-11.224-12.85-18.023c0.498-4.058,0.438-7.648-0.15-11.666c-3.068-0.184-6.123-0.348-9.189-0.532
			c-0.469,2.557-0.938,5.133-1.402,7.691c-1.473,1.513-2.945,3.044-4.402,4.578c-8.334-1.674-13.631-6.821-20.564-11.44
			c-5.285-3.496-6.902-8.813-8.619-14.587c1.961-3.59,3.881-7.168,5.387-10.997c3.629,0.319,7.25,1.698,10.598-0.123
			C1308.617,731.731,1311.006,729.422,1314.695,731.629z"/>
		<path fill="#FFFFFF" d="M616.296,621.734c2.319,6.165,2.455,13.063,4.463,19.386c2.244,7.304,4.398,14.503,5.006,22.157
			c0.559,7.22,2.652,14.054,4.001,21.112c2.474,19.02,8.669,37.718,14.396,55.962c5.801,15.103,15.494,25.894,25.363,38.308
			c6.624,7.684,12.212,16.726,17.671,25.302c5.777,9.376,13.111,16.847,16.828,27.474c1.387,4.213,4.26,6.719,7.523,9.523
			c1.848-1.235,3.691-2.453,5.549-3.649c0.591-3.173,1.166-6.351,1.724-9.53c4.036-5.935,9.396-10.117,14.535-14.973
			c-0.853,7.984,0.481,16.332,1.736,24.223c2.699,9.051,8.093,17.385,11.642,26.14c0.971,2.136-0.187,4.999-0.458,7.254
			c1.106,2.374,2.252,4.736,3.454,7.074c-1.321-2.466-2.702-4.904-4.06-7.357c-13.819,6.556-27.999,8.107-42.465,12.3
			c-6.217,2.311-12.482,4.188-19.136,4.651c-7.705,0.595-16.226,5.532-23.815,3.846c-6.909-3.126-12.555-8.708-19.349-12.203
			c-6.269-13.644-9.249-28.357-15.594-41.979c-11.02-34.924-21.526-69.953-30.139-105.57c-1.832-6.824-3.249-13.698-3.747-20.748
			c2.229-1.293,5.845-1.508,6.31-4.563c0.819-6.483-3.725-13.304-3.377-19.815c1.053-3.589,4.674-6.551,7.057-9.321
			c6.548-2.077,12.46-2.651,19.313-2.334c1.673-6.296-0.851-10.602-4.804-15.229c-4.342-2.517-10.387,2.854-14.676,4.175
			c-4.66-4.043-5.986-6.579-7.09-12.602c2.24-2.973,4.422-6.009,6.585-9.048c1.69,0.155,3.365,0.307,5.036,0.476
			c5.584-5.062,4.01-10.635,5.748-17.204C612.975,622.993,613.375,618.688,616.296,621.734z"/>
		<path fill="#FFFFFF" d="M934.457,714.321c-1.323,8.751-3.731,17.311-5.616,25.945c-1.168-4.758-2.306-9.175-1.679-14.167
			C928.46,721.437,931.348,717.904,934.457,714.321z"/>
		<path fill="#F66013" d="M616.488,690.9c3.699-1.193,8.289-0.086,12.111,0.247c3.497,10.251,3.716,20.921,7.756,31.002
			c2.397,5.93,4.603,11.935,6.922,17.904c2.649,7.214,6.354,13.057,5.365,21.121c-1.52,0.477-3.025,0.976-4.529,1.474
			c-1.693-1.059-3.405-2.104-5.101-3.145c-6.657-19.206-16.837-36.707-24.05-55.673C613.673,700.08,612.88,693.579,616.488,690.9z"
			/>
		<path fill="#FFFFFF" d="M935.14,761.003c4.766,1.313,12.18-0.148,14.137,5.457c4.527,8.732,10.932,16.553,17.42,23.893
			c8.104,8.546,17.119,18.047,28.082,22.717c8.258,3.328,17.561,1.293,24.494-3.992c7.736-5.817,14.389-13.437,20.627-20.811
			c-0.379,6.489-0.068,14.107-2.852,20.07c-2.346,5.7-8.512,9.542-13.016,13.695c-4.281,4.104-10.586,3.28-15.531,6.734
			c-16.729-4.016-29.98-17.751-42.852-28.816c-11.452-9.647-20.588-21.295-28.545-33.89
			C936.425,764.381,935.764,762.688,935.14,761.003z"/>
		<path fill="#FFFFFF" d="M1499.102,876.941c0.859,0.257,1.717,0.515,2.578,0.754c0.178,3.132,0.727,6.471,0.197,9.584
			c-0.84,3.272-3.91,6.117-5.975,8.696c-0.988-3.15-1.797-6.304-2.453-9.537C1495.658,883.442,1497.457,880.266,1499.102,876.941z"
			/>
		<path fill="#FFFFFF" d="M802.309,780.616c1.601-0.037,3.182-0.061,4.792-0.044c1.813,3.401,1.731,5.584,6.259,5.829
			c10.993,1.363,21.306,5.192,29.731,12.501c3.287,2.171,5.923,4.813,8.532,7.715c0.018,1.917,0.015,3.847,0.033,5.764
			c-1.708,1.366-3.358,2.777-4.948,4.27c-6.638-0.847-11.428-5.443-17.972-6.22c-8.442-1.162-16.454-3.561-24.564-6.013
			c-2.872-2.611-5.736-5.169-8.241-8.161c-3.575-1.034-7.35-2.937-11.09-1.714c-7.035,2.13-13.662,2.225-20.289,5.261
			c-6.183,3.025-12.289,6.117-18.831,8.353c3.297-6.065,9.98-8.808,15.584-12.271C774.751,790.344,788.447,784.897,802.309,780.616z
			"/>
		<path fill="#FFFFFF" d="M793.026,817.451c2.512,1.043,2.682,4.209,3.704,6.462c-1.189,1.225-2.38,2.452-3.573,3.696
			c-9.98,3.97-20.154,7.429-30.129,11.365c-5.598,2.118-12.677,8.334-18.777,6.344c-4.655-5.477-3.452-12.832,0.154-18.542
			c7.428-2.15,13.132-6.588,21.226-6.567c0.674-0.714,1.353-1.446,2.046-2.175C776.049,817.377,785.076,813.186,793.026,817.451z"/>
		<path fill="#F66013" d="M911.115,999.227c2.125,4.253,4.935,8.023,7.382,12.051c-1.276,0.308-2.557,0.631-3.818,0.959
			c-5.745,9.214-0.385,19.049-4.991,29.244c-3.626,5.724-10.809,9.193-11.431,16.579c-1.391,5.903,4.456,11.659,6.279,17.011
			c-0.341,2.456-0.928,4.887-1.477,7.309c-2.418,0.353-4.812,0.764-7.201,1.249c-4.55-3.243-7.799-4.221-13.439-4.484
			c-9.18,7.089-16.972,14.029-24.055,23.294c-0.304,1.435-0.627,2.866-0.95,4.297c-1.114,1.203-2.209,2.395-3.323,3.599
			c1.01,1.507,2.021,3.012,3.054,4.503c11.297,3.968,21.87,10.147,32.516,15.612c2.895,1.376,5.104,3.535,7.328,5.805
			c5.205,5.465,11.009,10.256,15.907,16.063c5.944,6.107,11.045,12.372,20.461,11.421c-4.025-9.478-12.658-11.063-19.211-18.343
			c-6.992-7.41-14.57-13.49-18.971-22.235c0.438-1.889,0.874-3.761,1.294-5.656c2.043,0.271,4.1,0.563,6.143,0.834
			c6.158,6.907,10.326,14.354,18.457,19.306c4.336-1.488,7.048-1.296,11.455-0.15c3.068,3.816,6.757,6.927,10.56,9.984
			c2.062,0.273,4.122,0.548,6.183,0.821c0.411-3.755-0.203-6.114-1.893-9.404c-6.794-5.002-13.267-9.609-17.127-17.393
			c0.333-2.103,0.632-4.195,0.929-6.304c2.576-1.141,4.084-2.969,7.072-1.732c4.911,4.226,7.85,10.499,12.577,15.05
			c6.229,6.108,10.717,12.83,18.799,16.764c12.242,9.785,25.74,17.471,40.316,23.164c8.443,2.05,15.941,5.97,23.123,10.791
			c7.324,5.398,18.793,5.16,27.586,6.047c10.412-0.085,21.342-0.561,30.557-5.923c3.438,0.392,6.854,0.92,10.277,1.503
			c-0.654,4.031-1.326,8.058-2.223,12.046c-4.273,5.169-8.336,11.26-10.088,17.809c1.566,5.007,6.043,2.529,9.73,1.708
			c6.883-2.689,14.166-3.696,21.115-6.145c8.605-0.58,16.051-3.632,23.648-7.453c4.492-2.472,8.348-1.032,12.936,0.196
			c1.598,5.525,1.656,8.227-0.59,13.661c-10.244,3.943-22.137,3.983-32.988,4.435c-5.266,2.336-10.223,2.013-15.846,1.436
			c-2.453,1.571-4.912,3.159-7.352,4.753c14.854,9.355,27.186,3.688,43.254,6.42c0.945-0.437,1.91-0.886,2.854-1.323
			c4.168,0.076,8.326,0.115,12.473,0.206c4.951-1.95,9.148-4.172,13.523-7.195c1.658-5.608,2.814-11.288,3.754-17.04
			c-3.535-2.48-7.291-4.594-11.057-6.67c0.908-2.855,1.172-6.882,3.559-8.856c4.111-4.15,9.822-8.021,10.186-14.422
			c-0.117-3.069,1.029-8.093-2.293-9.757c-5.221-0.438-10.721,3.646-15.289,5.837c-3.941-0.337-9.379,0.056-12.611-2.426
			c-2.014-3.561-2.484-8.25-3.041-12.245c-2.305-0.404-4.596-0.771-6.904-1.14c-6.75,3.828-12.803,1.366-20.563,2.574
			c-5.291,0.771-9.395-3.703-8.85-8.925c9.617-2.315,19.461-3.172,29.078-5.597c0.811-0.567,1.598-1.12,2.406-1.686
			c8.484-1.188,14.91-5.711,22.014-10.046c4.053-2.602,9.406-4.423,12.051-8.497c4.582-6.425,8.404-12.856,6.629-21.108
			c-3.666-3.246-9.652-0.931-13.424,1.065c-3.439-0.178-6.732-0.703-10.086-1.486c0.074-1.528,0.133-3.061,0.201-4.572
			c7.908-6.088,15.814-10.849,19.602-20.62c-0.738-1.864-1.486-3.75-2.223-5.615c-1.932-0.499-3.885-0.982-5.832-1.485
			c6.824-5.48,13.588-9.697,17.432-17.971c5.705,4.953,11.104,11.943,11.906,19.685c0.934,8.313,1.961,16.182,0.336,24.437
			c-1.914,10.295-2.666,22.051-6.682,31.71c-3.383,7.752-4.578,16.488-5.373,24.854c1.551,8.226,5.729,15.514,6.225,24.105
			c1.107,6.911-5.332,13.114-7.268,19.596c-2.035,7.952-2.758,16.225-4.471,24.251c-1.041,5.84-3.221,11.695-3.23,17.504
			c0.551,16.343,1.313,31.588,2.117,47.801c-2.924,13.52,0.613,26.878-2.25,40.372c-1.771,7.573-0.16,15.136-1.754,22.724
			c-5.215,26.776-8.152,56.026-16.568,82.08c-3.814,15.775-8.527,31.105-10.734,47.21c-0.926,0.848-1.836,1.7-2.766,2.546
			c-1.557,11.793-3.693,24.174-14.98,30.538c-1.277,0.111-2.57,0.203-3.848,0.316c-4.76,2.583-9.211,6.25-14.889,5.588
			c-6.875-0.496-14.098-1.64-20.432-4.418c-4.236-2.618-7.361-6.925-11.611-9.548c-4.309-2.618-8.547-4.39-11.533-8.688
			c-3.965-5.887-5.385-13.027-9.238-19.143c-6.715-10.995-16.941-19.15-25.975-28.762c-3.111-2.955-7.035-7.755-11.76-7.291
			c-3.354-0.073-5.48,4.387-7.656,6.486c-1.607,15.311-1.303,29.928-6.098,44.925c-4.256,10.326-10.631,19.077-13.596,30.019
			c-1.504,5.652-4.861,10.646-10.447,12.888c-5.92,2.435-12.396,6.223-18.875,4.784c-4.167-0.693-9.014-1.139-12.736-3.245
			c-3.884-3.107-7.232-6.957-10.573-10.625c-4.106-4.563-5.646-11.336-7.341-17.127c-2.145-7.465-3.322-15.094-2.774-22.864
			c1.067-12.32,2.61-24.86,6.488-36.651c4.88-12.857,11.457-24.6,17.557-36.748c3.184-5.71,0.833-13.211-0.335-19.28
			c-1.196-6.216-6.146-10.01-7.365-16.282c-1.671-6.228,0.264-12.408,1.253-18.647c2.052-10.271,2.691-20.081,7.793-29.462
			c1.639-2.884,3.739-5.668,7.326-5.909c6.527-0.555,12.628-2.387,19.203-2.102c8.217,0.434,17.232-2.893,24.748,1.723
			c4.408,4.157,8.152,8.571,13.303,11.938c5.732,3.378,3.162,11.359,7.121,16.062c3.711,4.798,10.766,6.993,16.012,10.004
			c0.809-2.978,1.914-5.548,1.422-8.699c-1.354-9.646-2.033-19.297-4.043-28.843c-1.148-5.784-1.592-11.638-1.674-17.518
			c-0.367-18.506-4.238-37.224-3.596-55.731c0.092-5.971-1.936-11.286-4.324-16.649c-10.824-1.92-19.225,2.931-29.055-4.446
			c-3.307-0.95-6.793-1.775-9.852-3.339c-8.35-4.905-16.645-6.802-22.417-15.31c-3.652-0.994-7.195-3.619-10.753-1.108
			c-7.866,4.537-15.609,9.484-22.6,15.291c-12.402,9.996-25.911,17.423-39.688,25.263c-0.63,0.756-1.274,1.495-1.934,2.229
			c-3.595,1.001-6.863,2.66-10.218,4.213c-2.057,1.324-4.109,2.416-6.35,3.37c-0.97,0.483-1.924,0.972-2.898,1.474
			c-5.505,2.489-10.803,5.423-16.299,7.964c-5.776,4.144-11.784,7.075-16.867,12.117c-5.01,5.022-10.764,9.042-16.232,13.539
			c-9.74,8.462-18.934,17.443-28.169,26.451c-9.319,9.384-16.555,22.146-27.015,30.16c-4.847,3.989-8.968,8.596-13.425,12.988
			c-4.507,4.489-9.996,7.493-14.25,12.257c-7.673,8.486-18.189,14.596-28.468,19.364c-7.779,2.125-16.623,3.853-24.604,4.914
			c-9.372-0.705-18.479,0.404-27.829,0.679c-5.62,0.73-11.074,1.616-16.78,1.128c-10.167,3.106-20.767,4.347-30.879,7.761
			c-11.792,4.097-22.67,8.426-30.62,18.599c-5.841,7.834-13.865,13.283-20.041,20.81c-3.244,3.841-7.277,6.535-11.622,8.979
			c-5.859,3.101-8.807,8.394-14.099,12.196c-10.332,6.583-17.078,16.543-28.252,22.167c-7.584,3.54-14.557,8.038-21.935,11.916
			c-5.891,4.087-12.065,7.467-18.864,9.766c-6.494,2.173-10.936,6.689-17.149,9.781c-6.413,3.233-12.266,7.806-19.286,8.839
			c-7.809,1.891-15.764,1.486-22.706-2.866c-6.93-3.822-15.784-10.409-15.091-19.304c1.46-7.913,7.945-14.783,9.058-23.038
			c2.673-18.558,10.573-38.13,24.265-51.337c0.133-1.27,0.266-2.524,0.417-3.79c3.035-1.539,5.812-3.232,8.486-5.35
			c4.848-3.789,10.521-6.232,16.07-9.085c17.656-8.734,34.982-18.929,50.381-31.251c6.349-6.097,12.956-11.438,20.004-16.669
			c3.722-0.815,7.555-2.163,11.358-2.331c5.059-0.05,10.189,1.101,15.231,0.849c3.681-0.593,6.645-3.243,9.479-5.457
			c3.775,0.203,7.526,0.524,11.271,0.896c11.391-9.09,19.885-20.939,31.747-29.562c10.588-10.665,23.625-16.209,36.964-22.549
			c5.729-3.067,11.317-0.987,17.532-2.893c5.356-1.54,10.294-0.604,15.697,0.009c3.58-1.924,6.981-3.735,9.525-7.027
			c14.249-19.098,31.137-36.487,44.665-56.528c5.03-7.657,11.121-14.507,16.358-22.038c5.302-6.688,11.7-12.352,16.637-19.386
			c10.356-12.162,21.657-23.554,32.488-35.295c9.05-8.157,16.286-17.888,25.27-26.073c7.227-6.649,12.926-14.491,19.558-21.692
			c4.878-4.971,6.865-11.957,9.957-18.164c3.573-7.842,9.089-13.432,14.634-19.986c3.817-4.292,8.534-5.926,13.292-8.812
			c3.549-2.052,6.546-5.406,9.381-8.328c0.941-5.363,1.438-10.308,4.161-15.128c3.059-5.715,8.751-8.969,11.39-14.813
			c2.037-5.152,1.022-11.799,1.894-17.262c0.798-3.633,2.384-7.111,3.632-10.595C908.573,1003.618,909.859,1001.435,911.115,999.227
			z"/>
		<path fill="#FFFFFF" d="M914.679,1012.236c1.261-0.328,2.542-0.651,3.818-0.959c7.492,15.452,19.185,28.383,31.677,39.983
			c8.701,5.638,17.525,12.591,27.606,14.819c5.224,5.064,11.421,9.217,18.644,10.769c13.85,3.669,26.307,9.507,40.436,11.384
			c6.357,1.222,12.779,1.27,19.186,2.039c6.586,1.227,11.238,5.32,18.443,3.928c10.205-2.515,20.094-4.871,30.676-3.174
			c1.037-0.65,2.088-1.297,3.125-1.95c7.117,0.221,13.352-3.094,20.467-2.75c3.211-0.837,6.422-1.672,9.633-2.489
			c3.729-2.27,7.693-3.258,11.809-4.589c3.969-1.325,7.74-3.125,11.594-4.787c2.451-1.961,4.963-3.843,7.443-5.764
			c1.947,0.503,3.9,0.986,5.832,1.485c0.736,1.865,1.484,3.751,2.223,5.615c-3.787,9.771-11.693,14.532-19.602,20.62
			c-0.068,1.512-0.127,3.044-0.201,4.572c3.354,0.783,6.646,1.309,10.086,1.486c3.771-1.996,9.758-4.312,13.424-1.065
			c1.775,8.252-2.047,14.684-6.629,21.108c-2.645,4.074-7.998,5.896-12.051,8.497c-7.104,4.335-13.529,8.858-22.014,10.046
			c-0.809,0.565-1.596,1.118-2.406,1.686c-9.617,2.425-19.461,3.281-29.078,5.597c-0.545,5.222,3.559,9.696,8.85,8.925
			c7.76-1.208,13.813,1.254,20.563-2.574c2.309,0.368,4.6,0.735,6.904,1.14c0.557,3.995,1.027,8.685,3.041,12.245
			c3.232,2.481,8.67,2.089,12.611,2.426c4.568-2.191,10.068-6.274,15.289-5.837c3.322,1.664,2.176,6.688,2.293,9.757
			c-0.363,6.4-6.074,10.271-10.186,14.422c-2.387,1.975-2.65,6.001-3.559,8.856c3.766,2.076,7.521,4.189,11.057,6.67
			c-0.939,5.752-2.096,11.432-3.754,17.04c-4.375,3.023-8.572,5.245-13.523,7.195c-4.146-0.091-8.305-0.13-12.473-0.206
			c-0.943,0.438-1.908,0.887-2.854,1.323c-16.068-2.731-28.4,2.936-43.254-6.42c2.439-1.594,4.898-3.182,7.352-4.753
			c5.623,0.577,10.58,0.9,15.846-1.436c10.852-0.451,22.744-0.491,32.988-4.435c2.246-5.435,2.188-8.136,0.59-13.661
			c-4.588-1.229-8.443-2.668-12.936-0.196c-7.598,3.821-15.043,6.873-23.648,7.453c-6.949,2.448-14.232,3.455-21.115,6.145
			c-3.688,0.821-8.164,3.299-9.73-1.708c1.752-6.549,5.814-12.64,10.088-17.809c0.896-3.988,1.568-8.015,2.223-12.046
			c-3.424-0.583-6.84-1.111-10.277-1.503c-9.215,5.362-20.145,5.838-30.557,5.923c-8.793-0.887-20.262-0.648-27.586-6.047
			c-7.182-4.821-14.68-8.741-23.123-10.791c-14.576-5.693-28.074-13.379-40.316-23.164c-8.082-3.934-12.57-10.655-18.799-16.764
			c-4.728-4.551-7.666-10.824-12.577-15.05c-2.988-1.236-4.496,0.592-7.072,1.732c-0.296,2.108-0.596,4.201-0.929,6.304
			c3.86,7.783,10.333,12.391,17.127,17.393c1.69,3.29,2.304,5.649,1.893,9.404c-2.061-0.273-4.121-0.548-6.183-0.821
			c-3.802-3.058-7.491-6.168-10.56-9.984c-4.407-1.146-7.118-1.338-11.455,0.15c-8.13-4.952-12.298-12.398-18.457-19.306
			c-2.043-0.271-4.1-0.563-6.143-0.834c-0.42,1.896-0.856,3.768-1.294,5.656c4.401,8.745,11.979,14.825,18.971,22.235
			c6.553,7.279,15.186,8.865,19.211,18.343c-9.417,0.951-14.518-5.313-20.461-11.421c-4.898-5.808-10.702-10.599-15.907-16.063
			c-2.224-2.27-4.433-4.429-7.328-5.805c-10.646-5.465-21.218-11.645-32.516-15.612c-1.033-1.491-2.043-2.996-3.054-4.503
			c1.113-1.204,2.208-2.396,3.323-3.599c0.323-1.431,0.646-2.862,0.95-4.297c7.083-9.265,14.875-16.205,24.055-23.294
			c5.641,0.264,8.89,1.241,13.439,4.484c2.39-0.485,4.783-0.896,7.201-1.249c0.549-2.422,1.135-4.853,1.477-7.309
			c-1.823-5.352-7.67-11.107-6.279-17.011c0.622-7.386,7.805-10.855,11.431-16.579
			C914.293,1031.285,908.934,1021.45,914.679,1012.236z"/>
		<path fill="#F66013" d="M951.484,1079.219c4.559,1.385,9.042,2.896,13.686,3.994c4.395,1.003,7.711,4.615,11.874,6.444
			c3.476-2.951,5.563-5.349,10.378-3.015c6.335,4.088,12.324,8.435,19.434,11.223c7.906,3.603,16.27,3.618,23.939,7.746
			c6.307,3.642,12.855,3.887,19.828,5.145c9.688,1.437,18.9,4.664,28.645,5.879c1.367,3.2,2.773,5.182,1.416,8.787
			c-7.648,1.068-14.463,2.76-22.195,1.279c-11.463-1.906-23.115-3.861-34.256-7.217c-6.076-2.521-11.797-5.047-18.439-5.878
			c-8.402-1.083-15.168-5.337-23.008-8.007c-1.438,1.219-2.887,2.418-4.324,3.635c1.59,1.644,3.182,3.288,4.639,5.069
			c1.566,5.411-6.547,5.104-9.861,6.93c1.59,2.248,3.176,4.509,4.766,6.756c9.238,1.372,16.85,6.465,25.773,8.616
			c0.74-1.393,1.465-2.791,2.205-4.185c-0.279-1.431-0.576-2.883-0.855-4.314c0.934-0.579,1.883-1.141,2.814-1.702
			c6.258,4.624,12.426,9.056,19.656,12.076c12.973,7.541,26.449,13.522,41.447,15.498c0.314,2.342,1.586,5.505,0.439,7.693
			c-2.307,2.041-5.664,4.712-8.896,4.555c-8.646-0.51-17.236-3.755-25.883-5.166c-3.996-0.648-7.486-1.649-10.986-3.717
			c-6.834-4.069-14.697-3.681-21.535-7.729c-5.883-3.428-12.402-4.021-17.641-8.717c-3.486-1.834-6.699-3.708-9.414-6.611
			c-6.877-7.07-14.97-11.522-22.511-17.912c-8.991-7.424-15.947-16.547-22.029-26.419c0.611-2.676,1.292-5.338,2.037-7.971
			c4.237,2.215,8.201,4.858,12.207,7.477C946.689,1086.154,947.81,1080.876,951.484,1079.219z"/>
		<path fill="#FFFFFF" d="M1177.033,1141.75c0.178,9.278-12.596,12.616-19.934,10.602
			C1162.701,1147.101,1169.484,1143.278,1177.033,1141.75z"/>
		<path fill="#FFFFFF" d="M880.011,1134.353c6.827,3.501,13.682,8.354,19.015,13.914c-1.951,3.131-3.667,6.145-6.859,8.188
			c-8.987,6.184-18.063,11.059-25.75,19.009c-11.236,11.634-24.273,18.08-34.125,30.916c-4.083,5.501-9.711,8.995-14.396,13.879
			c-7.765,8.504-15.475,16.896-22.598,25.994c-10,10.326-16.741,22.697-25.523,33.965c-6.169,10.522-12.701,20.786-18.852,31.31
			c-8.589,13.093-17.197,28.324-27.555,40.396c-5.015,3.338-11.973,7.857-17.822,3.836c2.653-11.883,10.23-19.022,16.604-28.889
			c4.094-6.26,8.327-12.305,13.772-17.496c0.539-2.457,1.076-4.915,1.596-7.375c-3.271-1.051-5.896-2.84-9.395-1.489
			c-4.611,1.848-9.236,4.173-13.26,7.116c-9.07,7.869-14.034,17.877-21.797,26.578c-4.453,5.082-6.694,11.385-11.321,16.349
			c-6.987,7.613-12.146,16.208-17.066,25.264c-1.981,3.517-4.506,7.908-8.153,9.91c-2.99,1.388-7.227-0.614-10.271-1.238
			c1.403-4.659,3.805-8.351,6.928-12.019c0.321-1.521,0.662-3.057,0.984-4.591c-5.096-1.357-9.796-2.34-14.981-0.753
			c-9.788,2.87-19.064,7.479-28.595,11.103c-12.646,4.62-24.225,13.253-34.317,22.007c-2.339,2.425-6.45,0.906-9.483,0.921
			c-1.264-6.724-2.647-14.087-1.555-20.911c1.712-6.026,6.692-8.359,11.474-11.575c10.62-6.803,17.516-16.116,26.939-24.171
			c9.077-7.6,18.332-15.81,28.879-21.294c6.163-3.524,14.028-4.323,20.835-6.567c5.37-1.926,10.193-0.742,15.689-0.558
			c4.585,0.325,8.881-0.532,13.393-1.104c12.299-12.742,24.156-26.59,34.493-40.967c13.161-15.532,25.153-32.174,36.547-49.041
			c3.838-6.218,10.641-7.733,16.275-12.787c7.938-7.767,16.006-15.28,23.014-23.92c13.704-13.77,28.294-26.34,43.183-38.786
			c5.603-3.056,10.804-6.748,16.464-9.726C861.869,1136.766,869.627,1131.024,880.011,1134.353z"/>
		<path fill="#FFFFFF" d="M1127.729,1247.938c1.611-0.003,3.234,0.037,4.873,0.095c0.248,3.533,1.078,6.674-0.541,10.055
			c-3.268,7.808-6.674,15.606-9.541,23.557c-2.521,9.532-3.684,19.48-4.15,29.302c-0.404,8.469-1.217,17.324-0.426,25.738
			c0.658,7.362,0.902,14.65,0.123,22.009c-2.465-0.484-4.914-0.969-7.361-1.452c-0.754-1.158-1.521-2.339-2.271-3.517
			c-1.131-6.578-0.783-13.106-0.93-19.739c-0.037-6.137,2.281-11.383,0.518-17.485c0.553-4.457,1.293-8.879,2.051-13.3
			c-2.566-0.911-5.164-1.757-7.791-2.556c-9.879,8.454-19.037,17.53-27.805,27.101c-4.721,6.914-0.752,18.116,0.012,25.885
			c1.213,12.864,6.074,24.738,6.979,37.654c2.127,13.712,2.018,27.478,3.609,41.222c0.949,10.834-1.107,21.138-3.348,31.678
			c-0.734,3.077-2.469,5.481-4.072,8.176c-4.914-1.286-9.143-3.429-13.441-6.098c-3.963-6.912-7.115-13.667-12.846-19.387
			c-6.738-7.525-14.42-14.046-21.547-21.178c-7.006-7.008-10.18-15.891-13.326-25.107c-1.885-8.339-1.773-17.656-0.387-26.06
			c0.727-4.85,4.184-8.602,6.934-12.459c6.277-0.741,11.434,1.368,17.197,3.462c4.129,4.338,6.332,7.63,7.5,13.592
			c0.984,0.953,1.988,1.892,2.994,2.83c2.189-0.555,4.357-1.201,6.494-1.963c1.715-14.633-3.15-27.479-3.674-41.871
			c-0.721-10.826-3.154-20.979-4.908-31.581c-0.578-3.169-0.277-6.196,0.137-9.365c3.375,3.479,6.318,7.114,9.031,11.134
			c4.945,1.699,9.775,2.245,14.973,2.309c2.117-7.922,2.783-15.352,1.641-23.473c2.535-4.16,4.975-8.16,8.236-11.806
			c5.24-6.219,12.852-8.924,18.602-14.735c1.195-0.144,2.377-0.309,3.555-0.456c2.889-1.922,5.777-3.842,8.621-5.824
			c1.17-0.2,2.32-0.388,3.486-0.574c0.855-0.931,1.689-1.848,2.543-2.778C1122.203,1249.927,1124.928,1248.847,1127.729,1247.938z"
			/>
		<path fill="#FFFFFF" d="M1000.441,1328.429c-5.18,2.651-13.629,4.869-15.801,10.781c-1.68,6.135-1.766,12.481-4.186,18.503
			c-4.557,12.932-2.055,25.934,0.959,38.846c1.664,7.274,6.938,12.256,8.666,19.575c2.518,10.079,3.598,21.998-0.139,31.867
			c-3.936,10.81-12.205,18.268-15.656,29.247c4.619,3.365,9.576,6.111,14.373,9.168c3.809,2.724,5.19,6.564,6.113,10.996
			c-4.209-0.847-7.962-1.576-11.301-4.465c-3.457-3.106-7.396-3.584-11.787-4.408c-2.611,8.312-3.936,19.189-12.934,23.014
			c-1.412-0.336-2.844-0.66-4.258-0.978c-3.877-5.766-5.437-11.921-6.663-18.656c-0.065-11.849,1.066-23.342,5.16-34.548
			c2.305-4.751-1.289-9.315-3.212-13.497c0.873-3.071,0.637-11.705,5.98-8.341c4.786,5.942,7.134,13.973,12.181,19.732
			c2.685,1.373,6.002,1.636,8.936,2.293c1.359-2.401,3.344-4.816,4.025-7.495c-0.234-6.739-5.292-10.938-7.283-17.756
			c-2.163-6.954-5.033-14.117-5.799-21.374c-1.158-11.064-3.34-21.953-4.877-32.978c-1.902-15.606-0.274-31.443,7.271-45.462
			c3.314-2.022,6.419-4.064,10.099-5.438C986.32,1324.392,994.312,1327.21,1000.441,1328.429z"/>
		<path fill="#FFFFFF" d="M1009.777,1344.081c2.467,1.583,4.855,3.313,7.275,4.979c0.506,1.559,1.01,3.135,1.531,4.697
			c-3.393,3.391-7.619,6.777-9.953,10.992c-2.855,9.404-4.516,19.458-2.703,29.219c0.809,8.116,4.611,15.214,4.83,23.367
			c-2.186,0.838-4.375,1.695-6.563,2.551c-12.444-11.875-17.701-31.081-16.414-47.901c-0.541-1.139-1.09-2.264-1.633-3.402
			c2.431-8.611,5.203-16.433,11.699-22.856C1001.832,1345.22,1005.797,1344.553,1009.777,1344.081z"/>
		<path fill="#FFFFFF" d="M538.999,1372.327c2.566,0.324,5.139,0.706,7.723,1.123c-7.628,10.654-18.003,18.49-23.863,31.281
			c-1.5,5.211-1.682,10.796-3.299,15.968c-1.72,3.845-7.027,6.014-10.295,8.489c-4.515,2.803-7.797,7.17-12.281,9.909
			c-9.52,4.476-17.579,11.229-26.561,16.67c-6.217,3.62-12.493,7.48-17.955,12.156c-2.751,3.061-5.212,8.296-3.635,12.438
			c1.877,5.147,5.765,10.755,9.843,14.376c3.574,2.346,8.811,2.788,13.011,2.887c10.056-1.265,16.132-9.43,25.263-13.618
			c5.654-8.594,15.184-10.802,23.042-18.015c6.146-5.85,12.973-10.729,19.542-16.06c2.65,0.447,5.292,0.946,7.929,1.463
			c-3.209,3.244-6.612,5.978-10.515,8.324c-5.851,3.456-10.287,8.241-15.775,12.256c-7.983,6.519-16.68,12.062-24.459,18.827
			c-1.874,0.079-3.748,0.157-5.608,0.256c-10.481,5.514-19.315,12.839-28.876,19.664c-1.242-0.288-2.488-0.562-3.73-0.851
			c-4.733-8.571-11.844-15.295-17.597-23.301c-2.716-0.477-5.448-0.956-8.161-1.452c-5.481,3.877-9.814,8.271-16.214,10.622
			c-1.356-1.868-2.729-3.738-4.083-5.608c2.394-6.772,5.132-13.291,8.203-19.786c2.936-6.022,3.073-12.357,7.08-17.927
			c3.892-5.519,6.31-11.117,12.923-13.767c2.758-4.513,5.448-8.734,9.93-11.759c4.47-2.863,9.131-5.394,13.525-8.414
			c4.206,5.807,6.078,12.406,7.801,19.245c3.006,1.042,5.722,2.229,9.006,1.883c3.642,0.249,6.205-3.146,9.006-5.08
			c1.158-9.523-4.643-17.15-2.69-26.766c3.748-2.479,7.03-5.534,10.691-8.116c1.938-0.139,3.945,0.231,5.892,0.449
			c2.395,6.34,12.463,5.804,18.028,7.206c1.563-7.293-7.024-10.146-10.944-14.873
			C517.241,1383.034,528.305,1375.922,538.999,1372.327z"/>
		<path fill="#FFFFFF" d="M550.947,1382.59c1.729-0.564,4.46-0.476,5.862,0.816c1.149,4.047,1.262,8.354,2.378,12.396
			c1.577,5.042,4.604,8.691,3.592,14.254c-2.229,3.915-7.436,6.03-10.962,8.759c-6.242,4.77-10.989,11.432-17.119,16.379
			c-1.627,1.591-3.635,2.125-6.022,1.6c-4.111-7.471-4.191-18.717,0.709-25.848C534.723,1400.631,541.812,1389.915,550.947,1382.59z
			"/>
		<path fill="#F66013" d="M504.676,1406.076c1.416,1.72,2.793,3.467,4.167,5.23c-2.549,1.697-5.08,3.398-7.596,5.116
			c-3.235-1.349-5.573-2.572-7.864-5.261C497.172,1409.455,500.83,1407.598,504.676,1406.076z"/>
		<path fill="#F66013" d="M534.913,1421.961c1.452,0.201,2.911,0.475,4.359,0.799c0.018,1.616,0.016,3.244-0.002,4.854
			c-1.891-0.419-3.788-0.824-5.683-1.227C533.971,1424.896,534.427,1423.418,534.913,1421.961z"/>
	</g>
</g>
</svg>
