<?xml version="1.0" encoding="utf-8"?>
<!-- Generator: Adobe Illustrator 16.0.0, SVG Export Plug-In . SVG Version: 6.00 Build 0)  -->
<!DOCTYPE svg PUBLIC "-//W3C//DTD SVG 1.1//EN" "http://www.w3.org/Graphics/SVG/1.1/DTD/svg11.dtd">
<svg version="1.1" id="Ebene_1" xmlns="http://www.w3.org/2000/svg" xmlns:xlink="http://www.w3.org/1999/xlink" x="0px" y="0px"
	 width="183.067px" height="181.07px" viewBox="0 0 183.067 181.07" enable-background="new 0 0 183.067 181.07"
	 xml:space="preserve">
<g>
	<circle fill="#FFFFFF" cx="91.497" cy="89.674" r="89.673"/>
	<path fill="#EB621E" d="M79.758,5.747c0.547,0.491,0.651,1.357,0.971,2.027c0.54,1.57,1.1,3.134,1.704,4.683
		c0.594,1.851,1.382,3.638,1.971,5.49c0.567,1.451,1.093,2.916,1.603,4.389c0.387,1.115,0.879,2.174,1.226,3.302
		c0.35,1.077,0.877,2.125,1.127,3.227c0.111,0.303-0.171,0.338-0.384,0.422c-2.238,0.716-4.45,1.465-6.696,2.167
		c-0.307,0.081-0.646,0.084-0.966,0.104c-1.114-2.856-2.13-5.755-3.262-8.608c-1.203,0.239-2.367,0.705-3.519,1.116
		c-1.591,0.473-3.192,0.967-4.745,1.555c0.188,0.82,0.584,1.584,0.852,2.384c0.743,2.097,1.588,4.153,2.323,6.254
		c-0.1,0.141-0.198,0.282-0.295,0.426c-2.162,0.661-4.326,1.347-6.446,2.124c-0.392,0.1-0.985,0.301-1.357,0.099
		c-0.21-0.333-0.329-0.736-0.468-1.101c-0.825-2.244-1.632-4.489-2.469-6.728c-1.799-4.751-3.473-9.515-5.251-14.263
		c-0.092-0.274-0.268-0.822-0.044-1.055c0.302-0.124,0.634-0.181,0.95-0.261c0.556-0.313,1.169-0.384,1.759-0.63
		c1.193-0.481,2.444-0.727,3.628-1.236c0.488-0.21,1.058-0.244,1.583-0.171c0.426,0.921,0.69,1.918,1.092,2.854
		c0.656,1.884,1.364,3.748,2.088,5.608c0.94-0.261,1.817-0.682,2.754-0.952c1.817-0.622,3.65-1.184,5.468-1.806
		c-0.223-0.888-0.584-1.717-0.896-2.573c-0.653-1.874-1.362-3.727-2.035-5.593c-0.09-0.252-0.032-0.476-0.016-0.734
		c0.941-0.227,1.828-0.584,2.744-0.883c0.677-0.183,1.338-0.401,1.986-0.665C77.717,6.315,78.782,6.153,79.758,5.747z"/>
	<path fill="#EB621E" d="M102.324,6.081c0.896-0.023,1.708,0.286,2.59,0.358c0.424,0.032,0.827,0.135,1.229,0.265
		c1.461,0.452,3.059,0.77,4.413,1.495c-0.01,2.162,0.005,4.309-0.248,6.462c-0.356-0.034-0.698-0.024-1.02-0.21
		c-0.709-0.367-1.457-0.646-2.172-1c-1.083-0.307-2.103-0.681-3.237-0.806c-0.792-0.047-1.48,0.303-2.03,0.85
		c-0.069,0.908,0.376,1.604,0.911,2.291c0.896,1.058,1.961,1.798,3.021,2.664c0.636,0.566,1.277,1.324,1.763,2.022
		c0.545,0.997,1.117,2.056,1.382,3.164c0.226,0.766,0.179,1.643,0.159,2.439c-0.104,1.284-0.677,2.53-1.64,3.395
		c-1.238,1.243-2.764,1.601-4.428,1.906c-1.751,0.212-3.557,0.14-5.275-0.259c-1.39-0.156-2.714-0.515-4.047-0.92
		c-1.045-0.239-1.983-0.721-3.011-1.016c-0.04-1.725-0.043-3.456,0.026-5.182c0.018-0.543-0.015-1.11,0.187-1.627
		c0.644-0.082,1.297,0.499,1.832,0.809c0.746,0.314,1.407,0.769,2.18,1.023c0.611,0.262,1.258,0.374,1.843,0.696
		c1.104,0.119,2.149,0.289,3.254,0.03c0.208-0.276,0.525-0.588,0.56-0.946c0.05-0.543-0.248-1.014-0.584-1.412
		c-1.833-2.062-4.226-3.79-5.548-6.253c-0.681-1.293-1.14-2.767-1.045-4.242c0.01-1.433,0.604-2.847,1.563-3.903
		c0.953-0.916,2.231-1.607,3.531-1.847C99.674,5.949,101.068,6.107,102.324,6.081z"/>
	<path fill="#EB621E" d="M122.512,12.77c1.369-0.126,2.762-0.126,4.127,0.035c1.004,0.254,2.021,0.39,2.99,0.778
		c2.07,0.625,3.869,1.664,5.682,2.819c2.279,1.585,4.436,3.413,6.236,5.526c0.213,0.224,0.176,0.484,0.031,0.734
		c-0.467,0.845-0.947,1.68-1.449,2.505c-0.48,0.854-0.939,1.719-1.49,2.532c-0.174-0.002-0.346-0.006-0.52-0.01
		c-2.021-2.386-4.021-4.573-6.816-6.08c-0.381-0.192-0.771-0.356-1.127-0.602c-1.131-0.388-2.266-0.679-3.467-0.75
		c-1.084,0.071-2.072,0.319-3.07,0.742c-0.898,0.591-1.74,1.199-2.359,2.097c-0.512,0.675-0.736,1.433-1.08,2.19
		c-0.064,0.953-0.094,1.895,0.004,2.847c0.361,0.702,0.611,1.484,1.115,2.091c1.135,1.354,2.59,2.414,4.338,2.798
		c0.561-0.727,1.115-1.477,1.561-2.279c-0.861-0.473-1.635-1.071-2.447-1.617c0.086-0.187,0.16-0.373,0.268-0.546
		c0.992-1.383,2.027-2.735,3.002-4.131c0.33,0.046,0.629,0.024,0.912,0.208c0.633,0.397,1.213,0.871,1.857,1.256
		c0.41,0.316,0.834,0.597,1.297,0.827c0.08,0.069,0.154,0.141,0.232,0.213c1.549,0.987,3.072,2.024,4.617,3.025
		c0.316,0.222,0.658,0.478,0.441,0.912c-0.838,1.375-1.883,2.632-2.799,3.956c-1.277,1.729-2.496,3.496-3.797,5.208
		c-0.459,0.584-0.844,1.422-1.484,1.81c-1.693-0.494-3.393-1.449-4.977-2.217c-3-1.508-6.006-3.395-8.381-5.786
		c-2.025-1.96-3.709-4.593-3.997-7.447c-0.26-2.211,0.31-4.365,1.266-6.345c1.182-2.24,2.799-4.386,4.974-5.743
		C119.53,13.513,120.987,13.049,122.512,12.77z"/>
	<path fill="#048237" d="M49.012,16.791c0.126,0.066,0.25,0.14,0.366,0.221c0.506,1.268,1.008,2.531,1.543,3.787
		c0.614,1.711,1.412,3.351,2.009,5.067c0.621,1.459,1.251,2.923,1.801,4.417c0.807,1.813,1.44,3.705,2.269,5.513
		c0.366,0.924,0.693,1.86,1.094,2.77c-0.352,0.297-0.723,0.567-1.084,0.857c-0.1,0.026-0.201,0.052-0.303,0.078
		c-0.074,0.089-0.148,0.178-0.223,0.268c-0.684,0.314-1.149,0.818-1.783,1.248c-1.285,0.899-2.446,1.946-3.67,2.93
		c-0.872,0.735-1.667,1.545-2.514,2.307c-0.272,0.316-0.563,0.607-0.874,0.882c-0.711,0.808-1.511,1.464-2.13,2.355
		c-0.082,0.036-0.166,0.075-0.248,0.113c-0.431,0.686-1.04,1.224-1.501,1.889c-0.881,1.024-1.634,2.135-2.461,3.195
		c-1.637,2.296-3.121,4.712-4.374,7.236c-0.396,0.701-0.807,1.381-1.065,2.147c-0.485,1.079-1.05,2.131-1.458,3.233
		c-0.22,0.593-0.434,1.185-0.711,1.753c-0.223,0.775-0.495,1.539-0.772,2.297c-0.153,0.239-0.159,0.484-0.183,0.76
		c-0.06,0.091-0.119,0.183-0.179,0.273c-0.015,0.161-0.035,0.323-0.054,0.486c-0.228,0.558-0.302,1.151-0.525,1.709
		c-0.015,0.185-0.035,0.369-0.05,0.555c-0.057,0.072-0.114,0.144-0.168,0.217c-0.128,0.971-0.458,1.908-0.629,2.88
		c-0.208,1.33-0.515,2.637-0.617,3.983c-0.04,0.941-0.314,1.827-0.265,2.772c0.042,0.94-0.272,1.825-0.215,2.766
		c0.037,1.669-0.047,3.352,0.037,5.016c0.223,0.947,0.129,1.893,0.24,2.846c0.3,1.549,0.228,3.385,0.718,4.88
		c0.191,2.006,0.934,3.958,1.325,5.929c0.049,0.097,0.099,0.193,0.148,0.287c0.069,0.392,0.19,0.769,0.297,1.147
		c0.817,2.233,1.575,4.482,2.591,6.64c0.476,1.139,1.089,2.193,1.629,3.298c0.359,0.917,0.976,1.657,1.419,2.526
		c0.483,0.951,1.117,1.798,1.665,2.709c1.642,2.405,3.385,4.78,5.356,6.92c2.514,2.781,5.206,5.384,8.173,7.677
		c1.04,0.84,2.164,1.553,3.165,2.442c-0.263,0.436-0.424,0.619-0.887,0.842c0,0.268,0,0.54-0.005,0.81
		c-0.282,0.369-0.575,0.726-0.885,1.07c-0.106,0.052-0.218,0.102-0.324,0.153c-0.076,0.087-0.151,0.166-0.223,0.253
		c-0.766,0.396-1.322,1.127-2.016,1.637c-0.154,0.064-0.308,0.124-0.461,0.186c-0.5,0.527-0.969,1.033-1.293,1.691
		c-0.263,0.521-0.381,1.045-0.688,1.538c-0.316,0.485-0.55,1.008-0.808,1.523c0.104,0.431,0.277,0.747,0.064,1.179
		c-0.153,0.813-0.316,1.609-0.384,2.437c0.142,0.516,0.079,1.021,0.092,1.543c0.451,0.835,1.174,1.419,2.059,1.748
		c0.091,0.087,0.181,0.176,0.272,0.266c0.597,0.002,1.195,0.01,1.795-0.015c0.377-0.187,0.772-0.303,1.184-0.401
		c0.404-0.248,0.817-0.471,1.224-0.714c0.124-0.039,0.248-0.074,0.376-0.108c0.317-0.382,0.664-0.703,1.07-0.991
		c0.679-0.463,1.243-1.015,1.872-1.55c0.218-0.342,0.508-0.604,0.822-0.857c0.377-0.539,0.966-0.797,1.34-1.337
		c0.258-0.401,0.416-0.822,0.721-1.193c0.406-0.521,0.941-0.89,1.337-1.417c0.354-0.476,0.654-0.946,1.125-1.317
		c0.723-0.413,0.911-1.364,1.432-2.021c0.837,0.203,1.5,0.723,2.308,0.985c0.379,0.119,0.724,0.26,1.07,0.456
		c1.302,0.394,2.506,0.98,3.826,1.322c0.255,0.06,0.48,0.188,0.705,0.314c0.857,0.151,1.694,0.424,2.539,0.637
		c0.745,0.307,1.538,0.247,2.256,0.616c0.976,0.018,1.853,0.313,2.796,0.495c0.874,0.053,1.662,0.399,2.543,0.387
		c1.078,0.022,2.141,0.173,3.208,0.342c1.84,0.221,3.746,0.102,5.609,0.131c1.569,0.003,3.068,0.05,4.631-0.237
		c0.985-0.169,1.971-0.213,2.967-0.263c0.545-0.003,1.016-0.243,1.55-0.297c1.115-0.085,2.115-0.558,3.244-0.57
		c0.506-0.316,1.033-0.267,1.591-0.391c1.022-0.379,2.124-0.622,3.194-0.845c0.361-0.354,0.792-0.327,1.251-0.478
		c1.153-0.396,2.28-0.85,3.439-1.236c0.535-0.285,1.124-0.448,1.659-0.733c0.671-0.358,1.373-0.651,2.085-0.896
		c0.072-0.081,0.141-0.166,0.213-0.25c0.232-0.069,0.471-0.139,0.709-0.21c0.074-0.077,0.152-0.151,0.227-0.23
		c0.34-0.094,0.619-0.184,0.875-0.436c0.1-0.022,0.195-0.05,0.295-0.072c0.855-0.582,1.814-0.983,2.672-1.565
		c0.16-0.057,0.326-0.116,0.49-0.171c0.498-0.394,1.018-0.748,1.547-1.1c0.092-0.034,0.184-0.069,0.277-0.104
		c1.01-0.753,2.059-1.437,3.053-2.214c0.545-0.382,1.064-0.805,1.604-1.194c0.588-0.555,1.254-1.015,1.854-1.563
		c0.943-0.854,1.871-1.73,2.809-2.598c0.057-0.097,0.113-0.19,0.168-0.287c0.096-0.064,0.193-0.132,0.289-0.198
		c0.127-0.134,0.256-0.265,0.381-0.398c0.977-0.909,1.766-1.981,2.693-2.935c2.633-3.026,4.934-6.353,6.902-9.842
		c1.42-2.512,2.672-5.104,3.674-7.812c0.494-1.104,0.781-2.273,1.221-3.397c0.309-1.221,0.809-2.402,1.016-3.643
		c1.457-5.866,2.006-11.971,1.699-18.001c-0.164-1.534-0.178-3.108-0.471-4.624c-0.268-2.4-0.813-4.833-1.379-7.183
		c-0.643-2.228-1.34-4.444-2.184-6.604c-1.381-3.602-3.137-6.961-5.125-10.253c-2.109-3.461-4.592-6.603-7.34-9.572
		c-0.951-0.939-1.799-1.954-2.814-2.816c0.055-0.245,0.064-0.472,0.223-0.68c0.645-0.899,1.385-1.735,2.066-2.608
		c1.168-1.487,2.336-2.976,3.541-4.438c0.496-0.593,0.961-1.21,1.439-1.818c2.402-2.901,4.66-5.945,7.117-8.8
		c0.111,0.009,0.225,0.018,0.334,0.025c2.303,1.973,4.492,4.073,6.484,6.363c3.461,3.802,6.553,7.951,9.273,12.312
		c0.443,0.827,0.934,1.612,1.422,2.411c1.883,3.497,3.738,7.024,5.145,10.748c0.426,1.136,0.916,2.224,1.262,3.381
		c0.461,1.396,0.967,2.773,1.367,4.188c0.293,0.985,0.572,2.012,0.799,3.017c0.047,0.098,0.098,0.196,0.148,0.294
		c0.078,0.789,0.375,1.523,0.49,2.311c0.234,1.123,0.529,2.216,0.6,3.367c0.271,0.846,0.365,1.777,0.459,2.656
		c0.184,1.234,0.373,2.458,0.441,3.703c0.277,1.02,0.064,2.028,0.248,3.054c0.082,0.519,0.129,1.04,0.129,1.565
		c-0.002,2.361-0.006,4.723,0,7.084c0.01,0.527-0.07,1.043-0.148,1.561c-0.145,0.851,0.035,1.66-0.178,2.504
		c-0.176,0.658-0.037,1.322-0.189,1.98c-0.146,0.627-0.115,1.269-0.262,1.893c-0.09,0.406-0.109,0.813-0.109,1.229
		c-0.07,0.091-0.139,0.183-0.203,0.277c-0.006,0.326-0.01,0.658-0.02,0.985c-0.129,0.213-0.201,0.361-0.201,0.614
		c-0.059,1.203-0.389,2.308-0.641,3.477c-0.307,1.259-0.564,2.556-0.996,3.784c-0.178,1.269-0.682,2.507-1.029,3.734
		c-0.082,0.169-0.164,0.34-0.248,0.506c-0.02,0.144-0.041,0.282-0.064,0.426c-0.357,0.684-0.461,1.437-0.756,2.143
		c-0.869,2.241-1.783,4.455-2.754,6.649c-0.408,0.742-0.76,1.508-1.146,2.264c-0.451,0.936-0.922,1.85-1.453,2.743
		c-0.625,1.001-1.098,2.075-1.77,3.052c-1.357,2.269-2.869,4.425-4.432,6.558c-1.211,1.684-2.549,3.257-3.891,4.834
		c-0.414,0.448-0.826,0.901-1.219,1.372c-0.555,0.671-1.209,1.24-1.742,1.932c-0.305,0.272-0.592,0.545-0.865,0.85
		c-0.598,0.552-1.131,1.166-1.727,1.724c-0.084,0.05-0.168,0.094-0.252,0.144c-0.623,0.681-1.363,1.221-1.992,1.89
		c-0.953,0.765-1.846,1.607-2.828,2.338c-0.59,0.51-1.232,0.958-1.82,1.476c-1.682,1.229-3.361,2.472-5.127,3.571
		c-0.07,0.06-0.145,0.116-0.219,0.174c-1.029,0.681-2.082,1.319-3.15,1.934c-0.479,0.287-0.902,0.629-1.424,0.84
		c-1.648,0.901-3.303,1.815-5,2.615c-0.58,0.282-1.115,0.609-1.746,0.765c-0.254,0.187-0.521,0.32-0.811,0.438
		c-1.902,0.788-3.814,1.57-5.738,2.301c-1.572,0.479-3.113,1.103-4.715,1.474c-1.677,0.609-3.491,0.924-5.221,1.422
		c-0.592,0.15-1.195,0.108-1.78,0.321c-0.664,0.238-1.367,0.213-2.033,0.411c-0.84,0.295-1.721,0.164-2.593,0.401
		c-0.817,0.226-1.649,0.297-2.496,0.352c-0.595,0.03-1.157,0.201-1.744,0.268c-1.025,0.055-2.05,0.104-3.075,0.095
		c-1.04,0.039-2.068,0.163-3.11,0.163c-1.682,0.166-3.331-0.05-5.018-0.042c-2.086-0.253-4.21,0.034-6.217-0.438
		c-0.978-0.129-1.919-0.114-2.887-0.387c-0.808-0.218-1.62-0.123-2.413-0.356c-0.765-0.237-1.56-0.21-2.317-0.471
		c-0.629-0.218-1.269-0.166-1.907-0.356c-1.758-0.485-3.536-0.808-5.263-1.411c-1.238-0.298-2.422-0.773-3.646-1.125
		c-1.129-0.352-2.211-0.822-3.325-1.216c-0.474-0.237-0.993-0.359-1.467-0.604c-0.958-0.342-1.929-0.737-2.823-1.232
		c-0.876-0.354-1.714-0.808-2.575-1.199c-1.466-0.686-2.838-1.528-4.279-2.261c-0.693-0.342-1.306-0.813-1.991-1.164
		c-1.674-1.011-3.294-2.115-4.916-3.205c-0.963-0.693-1.935-1.382-2.895-2.08c-1.739-1.456-3.596-2.83-5.245-4.391
		c-1.981-1.775-3.874-3.643-5.671-5.604c-1.897-2.14-3.792-4.316-5.488-6.617c-1.204-1.691-2.435-3.336-3.517-5.114
		c-2.645-4.131-4.978-8.477-6.835-13.021c-3.675-8.71-5.859-18.044-6.34-27.491c0.03-0.839-0.01-1.612-0.124-2.441
		c-0.035-1.842-0.086-3.674,0.124-5.505c-0.079-2.221,0.252-4.381,0.456-6.58c0.235-1.667,0.446-3.345,0.78-4.995
		c0.894-5.4,2.576-10.742,4.515-15.854c0.812-1.944,1.605-3.95,2.581-5.818c1.991-4.137,4.314-8.125,6.994-11.858
		c2.902-4.117,6.216-7.896,9.785-11.448c1.293-1.139,2.511-2.385,3.866-3.451c1.318-1.214,2.705-2.318,4.133-3.398
		c0.563-0.422,1.145-0.813,1.701-1.239c1.117-0.743,2.209-1.672,3.428-2.303c0.072-0.101,0.139-0.201,0.208-0.301
		c0.121-0.026,0.248-0.053,0.369-0.08c0.424-0.354,0.879-0.671,1.38-0.903c0.465-0.28,0.926-0.578,1.401-0.842
		C48.363,17.108,48.678,16.917,49.012,16.791z"/>
	<path fill="#FFFFFF" d="M38.358,29.686c1.612,1.554,3.15,3.184,4.735,4.769c0.937,1.028,1.954,1.981,2.939,2.962
		c0.466,0.485,0.912,0.991,1.402,1.453c-0.624,0.662-1.283,1.283-1.922,1.924c-1.154,1.14-2.486,2.048-4.007,2.63
		c-0.684,0.084-1.419,0.167-2.11,0.073c-2.687-0.475-5.047-2.42-5.708-5.12c-0.067-0.587-0.361-1.197-0.235-1.764
		c0.082-0.426,0.173-0.85,0.223-1.281c0.329-0.764,0.564-1.496,1.119-2.136c0.696-0.818,1.412-1.663,2.224-2.364
		C37.459,30.448,37.855,29.966,38.358,29.686z"/>
	<path fill="#048237" d="M38.033,32.72c0.104-0.072,0.188-0.081,0.248-0.022c0.899,0.621,1.595,1.58,2.395,2.324
		c0.666,0.602,1.23,1.302,1.899,1.9c0.646,0.616,1.256,1.271,1.833,1.951c-0.114,0.164-0.229,0.325-0.34,0.487
		c-0.497,0.432-1.008,0.842-1.522,1.25c-0.313,0.172-0.635,0.402-0.981,0.494c-0.732,0.16-1.386,0.382-2.129,0.158
		c-2.253-0.296-4.054-2.563-3.826-4.827C35.886,34.877,36.84,33.693,38.033,32.72z"/>
	<path fill="#FFFFFF" d="M30.245,41.534c0.755,0.159,1.483,0.675,2.103,1.121c1.355,0.955,2.66,1.98,4.017,2.931
		c0.936,0.667,1.793,1.436,2.734,2.094c-0.376,0.597-0.825,1.139-1.223,1.72c-0.288-0.239-0.577-0.472-0.869-0.705
		c-2.395-1.609-4.589-3.526-7.016-5.088c-0.57-0.088-1.109-0.085-1.679-0.01c-0.26,0.21-0.54,0.398-0.783,0.626
		c-0.649,0.688-0.748,1.812-0.225,2.603c0.364,0.666,0.936,0.971,1.513,1.415c1.213,0.875,2.373,1.853,3.63,2.655
		c0.062,0.076,0.122,0.151,0.183,0.229c0.872,0.579,1.741,1.224,2.543,1.897c-0.389,0.498-0.765,1.006-1.102,1.542
		c-0.76-0.171-1.161-0.702-1.803-1.112c-1.461-1.063-2.902-2.163-4.339-3.258c-1.09-0.768-2.085-1.523-2.687-2.752
		c-0.414-0.716-0.27-1.729-0.252-2.534c0.275-1.357,1.27-2.571,2.548-3.105C28.333,41.4,29.38,41.473,30.245,41.534z"/>
	<path fill="#FFFFFF" d="M155.862,41.859c0.42,0.7,0.832,1.403,1.307,2.068c-1.188,2.324-2.422,4.624-3.643,6.932
		c-0.5,1.113-1.234,2.161-1.607,3.32c0.223-0.015,0.436-0.056,0.631-0.125c1.029-0.599,2.027-1.271,3.039-1.892
		c0.574-0.338,1.127-0.707,1.705-1.039c0.074-0.083,0.143-0.163,0.217-0.245c0.15-0.065,0.303-0.128,0.451-0.193
		c0.771-0.551,1.621-1.003,2.42-1.521c0.449,0.561,0.807,1.175,1.182,1.785c-0.23,0.171-0.459,0.346-0.682,0.525
		c-0.111,0.037-0.221,0.074-0.334,0.11c-1.105,0.709-2.199,1.433-3.314,2.121c-1.393,0.84-2.736,1.738-4.125,2.573
		c-0.637,0.412-1.283,0.794-1.898,1.238c-0.309,0.241-0.662,0.348-1.035,0.461c-0.439-0.677-0.824-1.384-1.285-2.046
		c0.965-2.016,2.178-3.899,3.141-5.914c0.508-0.978,1.063-1.933,1.549-2.925c0.199-0.433,0.557-0.915,0.51-1.401l-0.248-0.015
		c-0.625,0.309-1.203,0.73-1.768,1.141c-0.115,0.044-0.229,0.089-0.342,0.131c-0.771,0.603-1.66,0.999-2.43,1.604
		c-0.129,0.032-0.256,0.066-0.381,0.098c-0.064,0.084-0.133,0.168-0.199,0.253c-0.711,0.395-1.385,0.857-2.088,1.266
		c-0.326,0.17-0.705,0.576-1.09,0.479c-0.352-0.58-0.738-1.154-0.998-1.782c0.518-0.248,1.006-0.562,1.469-0.897
		c1.332-0.658,2.492-1.645,3.791-2.373c1.004-0.601,2.014-1.208,2.971-1.882C153.856,43.199,154.784,42.383,155.862,41.859z"/>
	<path fill="#EB621E" d="M88.247,43.689c1.241-0.344,2.678,0.072,3.804,0.618c0.896,0.408,1.521,1.09,2.115,1.853
		c0.314,0.432,0.564,0.936,0.54,1.482c0.01,0.55-0.089,1.009,0.324,1.445c0.753,0.862,1.385,1.739,1.35,2.94
		c0.035,0.522-0.265,0.868-0.381,1.347c-0.025,0.364,0.01,0.733,0.022,1.098c-0.53,0.273-1.043,0.51-1.649,0.55
		c-0.461-0.546-0.939-1.112-1.325-1.715c-0.184-0.307-0.352-0.591-0.258-0.965c0.04-0.53,0.654-0.446,1.025-0.588
		c0.648-0.157,0.963-0.622,1.283-1.162c-0.208-0.438-0.437-0.794-0.808-1.114c-0.54-0.471-0.956-1.132-1.548-1.527
		c-0.384-0.157-0.914-0.019-1.32,0.025c-0.594,0.341-1.223,0.438-1.766,0.874c-0.606,0.458-0.824,1.079-1.271,1.649
		c-0.371,0.472-0.894,0.667-1.461,0.811c-0.263,0.21-0.679,0.425-0.795,0.754c-0.097,0.947,0.022,1.918-0.037,2.869
		c-0.06,0.648-0.356,1.169-0.176,1.838c0.344,1.166,1.191,2.253,1.934,3.197c-0.183,0.164-0.366,0.342-0.571,0.47
		c-0.367,0.101-0.79,0.051-1.167,0.062c-0.163-0.174-0.327-0.346-0.492-0.517c-0.246-0.003-0.493-0.003-0.741-0.004
		c0.1,0.222,0.201,0.442,0.303,0.664c0.564,0.205,1.134,0.403,1.708,0.594c0.63,1.501,1.383,2.939,2.17,4.36
		c0.44,0.79,0.659,1.627,1.006,2.458c0.247,0.66,0.218,1.306,0.237,1.996c0.232,0.577,0.398,1.165,0.745,1.684
		c0.382,0.557,0.84,1.057,1.227,1.608c0.676,0.247,1.258,0.002,1.938-0.007c0.424-0.018,0.57,0.444,0.775,0.727
		c-0.018,0.466-0.077,0.884,0.163,1.308c0.769,0.11,1.432,0.456,2.146-0.064c0.47-0.509,0.906-1.058,1.354-1.589
		c0.527-0.631,0.726-1.349,0.985-2.109c0.366-1.15,0.518-2.347,0.5-3.552c0.013-0.8-0.245-1.622-0.443-2.394
		c-0.106-0.449-0.421-0.683-0.713-1.004c-0.429,0.875-0.429,1.767-0.48,2.713c-0.02,0.614-0.329,1.062-0.664,1.541
		c-0.307-0.042-0.871,0.188-0.913-0.262c-0.34-1.079-0.097-2.055-0.954-2.928c-0.268,0.135-0.54,0.269-0.814,0.393
		c-0.158,0.58-0.319,1.174-0.374,1.771c-0.008,0.35,0.139,0.705,0.203,1.044c0.153,0.585,0.148,1.169,0.173,1.765
		c0.256,0.38,0.191,0.764,0.209,1.197c-0.159,0.077-0.317,0.15-0.479,0.226c-0.186-0.084-0.374-0.168-0.563-0.253
		c-0.274-0.617-0.534-1.236-0.653-1.909c-0.124-0.72-0.451-1.341-0.508-2.069c-0.042-0.459-0.102-0.916-0.134-1.377
		c-0.045-0.621,0.072-1.211-0.111-1.822c-0.461-0.04-0.941-0.037-1.392-0.144c-0.317-0.361-0.516-0.95-0.961-1.153
		c-0.612-0.318-1.238-0.596-1.82-0.971c0.034-0.256,0.111-0.485,0.23-0.686c0.624-0.026,1.156,0.577,1.775,0.711
		c1.035,0.35,2.105,0.387,3.185,0.375c0.89-0.1,1.878-0.752,1.801-1.759c-0.148-0.166-0.297-0.332-0.446-0.499
		c-0.2,0.009-0.403,0.015-0.604,0.023c-0.313,0.168-0.558,0.271-0.922,0.245c-0.131-0.209-0.247-0.414-0.401-0.605
		c-0.267-0.09-0.606,0.011-0.881,0.023c-0.109-0.071-0.224-0.142-0.332-0.213c0.066-0.28,0.136-0.564,0.213-0.844
		c0.485-0.318,0.961-0.619,1.353-1.048c-0.419-0.346-0.773-0.525-0.63-1.154c0.226-0.432,0.896-0.6,1.328-0.781
		c0.332-0.138,0.445,0.134,0.698,0.296c-0.005,0.578,0.228,0.868,0.594,1.281c0.379-0.005,0.758-0.007,1.135-0.002
		c0.2-0.334,0.426-0.574,0.342-0.998c-0.184-0.392-0.634-0.651-0.867-1.02c-0.049-0.469,0.114-0.99,0.233-1.443
		c0.347,0.002,0.732-0.122,0.968,0.209c0.421,0.883,0.649,1.801,0.687,2.777c0.218,0.979-0.104,1.853-0.077,2.828
		c0.087,0.102,0.171,0.203,0.255,0.305c0.634-0.058,1.259-0.145,1.897-0.164c0,0.169,0,0.342,0,0.513
		c-0.114,0.104-0.228,0.211-0.345,0.316c0.327,0.73,0.516,1.509,0.848,2.239c0.22,0.479,0.363,0.979,0.48,1.494l0.25,0.202
		l0.104,0.104c0.179,0.571,0.337,1.145,0.56,1.699c-0.693,0.933,0.04,1.94-0.208,2.945c-0.144,0.704-0.029,1.404-0.123,2.106
		c-0.182,1.042-0.224,2.005-0.688,2.978c-0.746,1.448-1.628,2.766-3.01,3.675c-0.666,0.265-1.34,0.092-1.959-0.207
		c-1.649-0.563-3.194-1.466-4.596-2.494c-0.518-0.368-1.038-0.649-1.501-1.089c-1.209-1.178-2.07-2.604-2.729-4.147
		c-0.277-0.647-0.228-1.363-0.534-1.987c-0.119-0.207-0.238-0.417-0.347-0.628c0.906-0.213,1.456-0.919,1.872-1.698
		c-0.092-0.581-0.411-1.145-0.64-1.682c-0.358,0.011-0.73,0.02-1.084,0.079c-0.53,0.107-1.03,0.384-1.575,0.409
		c-0.592,0.026-1.157,0.057-1.714-0.171c-0.555-0.22-1.08-0.324-1.514-0.761c-0.636-0.576-0.854-1.38-1.446-1.994
		c-0.752-0.81-0.442-1.923-1.069-2.742c-0.211-0.331-0.498-0.683-0.602-1.065c-0.09-0.56,0.069-1.16,0.024-1.729
		c-0.126-0.41-0.436-0.768-0.624-1.155c-0.377-0.702-0.354-1.528-0.27-2.295c0.054-0.541,0.371-1.008,0.386-1.542
		c-0.057-1.165,0.463-2.353,1.137-3.28c0.537-0.744,1.343-1,1.962-1.649c0.611-0.601,1.193-1.326,2.011-1.653
		c0.634-0.259,1.248-0.557,1.882-0.809C86.207,43.855,87.212,43.963,88.247,43.689z"/>
	<path fill="#FFFFFF" d="M87.068,44.547c0.525-0.079,1.164-0.282,1.63,0.063C87.97,44.946,87.755,44.976,87.068,44.547z"/>
	<path fill="#FFFFFF" d="M84.686,46.032c0.719,0.035,1.446,0.093,2.128-0.159c0.213,0.126,0.424,0.256,0.637,0.388
		c-0.867,0.376-1.744,0.559-2.521,1.123c-0.022,0.173-0.045,0.346-0.069,0.519c0.937,0.124,1.657-0.471,2.615-0.326
		c0.168,0.139,0.337,0.277,0.508,0.415c-0.116,0.171-0.23,0.341-0.347,0.51c-0.398,0.198-0.785,0.416-1.206,0.563
		c-0.837,0.33-1.773,0.319-2.665,0.459c-0.653,0.289-1.337,0.297-1.932,0.742c0.01,0.249,0.02,0.499,0.027,0.748
		c0.354,0.044,0.567,0.047,0.898-0.108c0.285-0.011,0.57-0.019,0.853-0.021c0.184,0.201,0.371,0.404,0.557,0.607
		c-0.542,0.726-1.26,0.407-1.988,0.837c0.193,0.254,0.394,0.5,0.595,0.747c-0.027,0.127-0.058,0.256-0.084,0.385
		c-0.619,0.079-1.293,0.014-1.893,0.185c-0.763,0.374-1.224,1-1.659,1.704c-0.282-0.436-0.456-0.75-0.409-1.288
		c-0.091-1.097,0.753-1.82,0.593-2.938c-0.106-0.917,0.316-1.697,0.906-2.361c0.557-0.514,1.272-0.782,1.783-1.368
		c0.465-0.43,0.837-1.118,1.424-1.364C83.824,45.824,84.25,46.015,84.686,46.032z"/>
	<path fill="#FFFFFF" d="M20.653,51.934c0.228,0.045,0.451,0.122,0.664,0.218c1.109,0.54,2.165,1.177,3.267,1.731
		c1.766,0.851,3.464,1.842,5.228,2.71c0.203,0.101,0.468,0.083,0.693,0.11c0.153-0.307,0.327-0.601,0.495-0.897
		c0.178-0.35,0.386-0.675,0.612-0.996c0.577,0.271,1.146,0.55,1.724,0.818c-0.302,0.838-0.768,1.607-1.174,2.41
		c-0.418,0.704-0.704,1.474-1.127,2.177c-0.372,0.601-0.619,1.243-1.065,1.801c-0.537-0.376-1.104-0.695-1.679-1.01
		c0.409-0.686,0.798-1.374,1.065-2.131c-0.914-0.73-1.956-1.038-2.937-1.648c-0.584-0.356-1.223-0.601-1.803-0.97
		c-0.48-0.228-0.949-0.477-1.446-0.671c-0.074-0.065-0.151-0.131-0.228-0.199c-0.696-0.297-1.288-0.754-2.006-1.012
		c-0.461-0.22-0.901-0.459-1.303-0.785c0.252-0.42,0.458-0.862,0.688-1.293C20.425,52.169,20.537,52.049,20.653,51.934z"/>
	<path fill="#EB621E" d="M91.776,52.645c0.131,0.062,0.26,0.127,0.389,0.191c-0.002,0.579-0.064,1.094,0.255,1.609
		c-0.26,0.441-0.602,0.798-0.968,1.15c-0.154,0.31-0.169,0.623-0.55,0.731c-0.501,0.229-0.798-0.385-1.184-0.602
		c-0.461-0.061-0.944,0.129-1.412,0.128c-0.198-0.188-0.297-0.493-0.421-0.733c0.186-0.684,0.448-1.253,1.164-1.498
		c0.674-0.081,1.213-0.004,1.756-0.494c0.097-0.103,0.198-0.208,0.297-0.311C91.323,52.744,91.549,52.691,91.776,52.645z"/>
	<path fill="#FFFFFF" d="M163.579,54.596c0.693,1.521,1.377,3.045,2.051,4.574c0.207,0.527,0.438,1.04,0.74,1.52
		c-0.34,0.391-0.494,0.501-1.004,0.611c-0.096,0.072-0.193,0.143-0.287,0.213c-1.551,0.712-3.154,1.308-4.676,2.08
		c-0.807,0.355-1.609,0.722-2.432,1.052c-1.063,0.586-2.225,0.906-3.27,1.536c-0.184,0.014-0.363,0.027-0.545,0.041
		c-0.396-0.802-0.781-1.604-1.123-2.431c-0.545-1.248-1.16-2.467-1.68-3.729c0.564-0.409,1.184-0.657,1.822-0.934
		c0.701,1.405,1.289,2.863,1.982,4.272c1.084-0.267,2.135-0.831,3.129-1.321c-0.01-0.13-0.02-0.263-0.031-0.393
		c-0.559-1.236-1.043-2.533-1.719-3.71c0.402-0.417,0.936-0.512,1.404-0.83c0.176-0.033,0.346-0.065,0.521-0.094
		c0.578,1.273,1.178,2.545,1.707,3.841c0.377,0.028,0.723,0.086,1.076-0.084c0.695-0.341,1.4-0.647,2.129-0.898
		c0.074-0.752-0.297-1.272-0.564-1.938c-0.373-0.805-0.68-1.706-1.186-2.431c0.145-0.166,0.248-0.337,0.459-0.429
		C162.59,54.898,163.028,54.56,163.579,54.596z"/>
	<path fill="#FFFFFF" d="M80.582,55.317c0.235,0.567,0.077,1.257,0.171,1.862c0.104,0.693-0.252,1.321-0.502,1.94
		c-0.245-0.233-0.558-0.483-0.672-0.809c-0.06-0.367-0.032-0.752-0.034-1.122c0.074-0.099,0.148-0.2,0.223-0.301
		c0-0.278-0.005-0.558,0.005-0.835C79.985,55.631,80.075,55.405,80.582,55.317z"/>
	<path fill="#EB621E" d="M49.063,55.687c0.645,0.122,1.28,0.322,1.915,0.503c1.181,0.526,2.028,1.332,2.954,2.199
		c0.688,0.697,0.867,1.799,1.159,2.658c0.316,0.49,0.956,0.833,1.193,1.386c0.392,0.833,0.471,1.75,0.845,2.607
		c0.216,0.517,0.522,0.971,0.766,1.469c0.356,0.715,0.366,1.501,0.732,2.21c0.396,0.771,0.55,1.619,0.927,2.396
		c0.505,1.045,0.95,2.112,1.511,3.134c0.371,0.891,1.144,1.639,1.805,2.337c0.853,0.76,1.654,1.568,2.475,2.362
		c1.1,0.946,1.803,2.209,2.959,3.108c0.698-0.652,1.335-1.381,1.974-2.092c0.064,0.266,0.129,0.531,0.148,0.804v0.062
		c-0.418,0.562-0.866,1.062-1.161,1.708c0,0.32-0.002,0.641-0.002,0.96c-0.164,0.148-0.322,0.3-0.48,0.45
		c-0.367-0.217-0.688-0.412-0.896-0.8c-0.545-0.972-1.388-1.575-2.113-2.391c-0.678-0.743-1.379-1.529-2.156-2.165
		c-1.174-1.042-2.304-1.929-3.128-3.301c-0.869-1.682-1.796-3.399-2.363-5.212c-0.252-0.665-0.571-1.297-0.75-1.99
		c-0.193-0.736-0.525-1.4-0.867-2.075c-0.305-0.582-0.436-1.252-0.768-1.813c-0.337-0.248-0.302,0.179-0.411,0.397
		c-0.055,0.671,0.193,1.186-0.265,1.775c-0.166,0.011-0.332,0.027-0.498,0.039c-0.158,0.335-0.321,0.668-0.49,0.996
		c0.213,0.568,0.387,0.792,0.909,1.106c0.396-0.201,0.894-0.828,1.359-0.657c0.466,0.384,0.785,0.761,0.729,1.403
		c-0.674,0.085-1.238,0.244-1.843,0.557c-0.186,0.312-0.485,0.663-0.53,1.03c0.079,0.642,0.639,1.229,0.669,1.876
		c0.01,0.305-0.342,0.388-0.537,0.552c0.171,0.68,0.426,1.324,0.72,1.96c1.452,3.326,3.076,6.562,4.748,9.778
		c0.852,1.221,1.395,2.604,2.238,3.827c0.721,0.225,1.37,0.673,2.098,0.858c0.769,0.035,1.516-0.593,2.254-0.782
		c0.642-0.159,1.221-0.448,1.788-0.78c1.337-0.656,2.694-1.052,3.931-1.927c0.176,0.215,0.352,0.43,0.522,0.647
		c0.438,0.565,0.842,1.154,1.29,1.709c-0.563,0.271-1.156,0.437-1.733,0.666c-0.642,0.278-1.261,0.546-1.954,0.684
		c-0.814,0.149-1.446,0.632-2.256,0.785c-0.892,0.152-1.714,0.518-2.594,0.729c-0.834,0.269-1.609,0.158-2.466,0.174
		c-1.04-1.157-1.733-2.658-2.65-3.92c-0.792-1.262-1.446-2.62-2.135-3.942c-1.261-2.239-2.288-4.621-3.447-6.918
		c-0.371-0.696-0.609-1.463-0.894-2.216c-0.324-0.868-0.432-1.783-0.783-2.64c-0.579-0.331-1.137-0.698-1.714-1.031
		c-0.356-0.357-0.646-0.771-0.998-1.132c-0.312-0.146-0.805,0.012-1.148,0.033c-0.332,0.197-0.654,0.347-1.053,0.341
		c-0.869,0.021-1.746,0.015-2.607-0.071c-0.29-0.014-0.525-0.139-0.775-0.262c-0.453-0.041-0.864-0.018-1.275-0.248
		c-0.827-0.426-1.627-0.671-2.313-1.321c-0.468-0.442-0.943-0.946-1.233-1.524c-0.302-0.665-0.429-1.433-0.483-2.155
		c-0.062-0.756-0.181-1.491-0.069-2.236c0.171-1.116,0.522-2.218,1.04-3.219c0.314-0.615,0.785-1.026,1.246-1.524
		c0.95-1.061,2.293-1.724,3.685-1.962C46.89,55.547,47.989,55.54,49.063,55.687z"/>
	<path fill="#FFFFFF" d="M48.241,56.282c1.014,0.057,1.875,0.458,2.764,0.912c0.714,0.369,1.229,0.902,1.809,1.447
		c0.381,0.359,0.679,0.787,0.832,1.291c-0.174,0.487-0.674,0.83-0.703,1.378c-0.072,0.916,0.356,1.656,0.861,2.377
		c0.411,0.484-0.032,1.021-0.203,1.502c-0.161-0.326-0.297-0.676-0.49-0.982c-0.168-0.127-0.463-0.087-0.669-0.124
		c-0.178,0.55-0.282,1.189-0.653,1.641c-0.53,0.646-1.219,1.133-1.986,1.464c-0.713,0.318-1.28,0.755-2.08,0.741
		c-0.753-0.009-1.511,0.012-2.259-0.066c-0.463-0.042-0.921-0.382-1.38-0.333c-0.123,0.122-0.242,0.252-0.356,0.385
		c-0.173-0.273-0.358-0.541-0.562-0.793c-0.461,0.307-0.693,0.372-1.243,0.285c-0.54-0.677-0.848-1.475-1.058-2.31
		c-0.142-1.429-0.345-2.759,0.289-4.109c0.392-0.75,0.58-1.701,1.159-2.297c0.503-0.545,1.04-1.063,1.575-1.573
		c0.377-0.371,0.988-0.394,1.481-0.578C46.24,56.168,47.306,56.222,48.241,56.282z"/>
	<path fill="#FFFFFF" d="M84.359,57.736c0.307,0.168,0.515,0.263,0.582,0.644c0.029,0.57-0.111,1.156-0.154,1.726
		c-0.173-0.154-0.515-0.286-0.562-0.536C84.066,58.909,83.891,58.323,84.359,57.736z"/>
	<path fill="#048237" d="M111.834,57.919c0.728,0.152,1.505,0.252,2.204,0.507c1.02,0.552,2.072,1.017,3.089,1.571
		c0.281,0.139,0.58,0.314,0.908,0.298c1.355-0.071,2.656-0.127,3.992,0.194c0.301,0.082,0.578,0.267,0.852,0.413
		c0.375,0.619,0.799,0.704,1.465,0.852c-0.252,0.549-0.449,1.1-0.559,1.694c-0.08,0.398-0.205,0.781-0.338,1.162
		c-0.457,1.399-0.777,2.859-1.068,4.298c-0.748-0.256-1.346,0.069-2.092,0.059c-1.252-0.045-2.326,0.202-3.457-0.477
		c-0.495,0.417-0.926,0.836-1.59,0.948c-0.223,0.26-0.403,0.532-0.569,0.832c0.381,1.246,0.693,2.539,0.889,3.826
		c0.25,0.546,0.354,1.119,0.474,1.701c0.31,1.135,0.534,2.282,0.892,3.403c0.272,0.866,0.104,1.899,0.469,2.718
		c0.045,0.59,0.031,1.173,0.031,1.764c0.074,0.094,0.148,0.188,0.223,0.286c-0.016,1.555,0.014,3.107-0.029,4.661
		c0.039,0.866-0.07,1.611,0.207,2.418c0.279,0.851,0.445,1.729,0.693,2.59c0.268,0.841,0.086,1.719,0.184,2.635
		c-0.232,0.873-0.818,1.399-1.393,2.051c-0.207,0.23-0.42,0.457-0.625,0.691c-0.348,0.228-0.687,0.465-1.048,0.663
		c-0.379,0.201-0.748,0.367-1.075,0.649c-0.297,0.134-0.599,0.272-0.896,0.408c-0.698,0.09-1.248,0.518-1.949,0.619
		c-0.086,0.082-0.181,0.161-0.27,0.245c-1.06,0.015-1.986,0.414-2.938,0.832c-0.679,0.261-1.203-0.06-1.867-0.066
		c-0.639,0.034-1.263,0.141-1.904,0.131c-1.409,0.058-2.727-0.297-4.138-0.421c-0.733-0.024-1.407-0.327-2.002-0.728
		c-1.024-0.045-2.001-0.575-2.946-0.977c-1.417-0.916-2.779-1.978-3.774-3.355c-0.308-0.351-0.646-0.671-0.927-1.049
		c0.32-0.852,0.656-1.633,1.432-2.167c0.142-0.818-0.168-1.504-0.316-2.308c-0.139-0.895-0.193-1.818-0.277-2.718
		c-0.035-0.455-0.263-0.811-0.422-1.235c-0.237-0.627-0.396-1.273-0.698-1.876c-1.282-0.418-2.219-1.268-3.293-2.029
		c-0.479-0.001-0.956,0.003-1.432,0.022c-0.788,0.41-1.722,0.592-2.563,0.864c-1.117,0.446-2.256,0.825-3.36,1.3
		c-0.629,0.474-1.353,0.697-2.036,1.066c-0.508,0.264-1.045,0.412-1.582,0.602c-0.53,0.721-1.266,0.651-1.981,1.079
		c-0.448-0.555-0.852-1.144-1.29-1.709c-0.159-0.207-0.313-0.419-0.458-0.63c-0.013-0.225,0.052-0.525-0.08-0.716
		c-0.497-0.793-1.166-1.515-1.582-2.35c-0.258-0.749-0.53-1.54-0.585-2.333v-0.062c0.022-0.305,0.035-0.609,0.063-0.914
		c0.369-0.231,0.681-0.518,0.983-0.833c0.342-0.239,0.629-0.528,0.931-0.813c0.356-0.276,0.788-0.446,1.14-0.73
		c0.648-0.554,1.411-0.851,2.204-1.245c0.228-0.126,0.46-0.247,0.695-0.363c0.466-0.396,0.869-0.855,1.325-1.269
		c0.666-0.635,1.34-1.217,1.87-1.976c0.086-0.062,0.176-0.122,0.262-0.183c1.519-1.263,3.257-2.247,4.74-3.55
		c0.221-0.115,0.443-0.234,0.661-0.36c0.399-0.188,0.775-0.38,1.18-0.535c0.108,0.211,0.228,0.421,0.347,0.628l-0.045,0.086
		c-1.694,0.394-2.546,1.758-4.097,2.376c-0.054,0.09-0.108,0.181-0.163,0.27c-0.971,0.555-1.769,1.353-2.645,2.047
		c-0.738,0.85-1.677,1.547-2.264,2.501c0.629,0.012,1.253-0.017,1.882-0.028c0.02-0.396,0.035-0.792,0.05-1.19
		c0.153-0.132,0.302-0.267,0.458-0.4c0.235,0.163,0.473,0.327,0.711,0.488c0.27,0.218,0.555,0.409,0.834,0.615
		c0.706,0.104,1.355,0.154,1.947,0.602c-0.037,0.139-0.072,0.276-0.109,0.417c-0.453,0.027-0.884,0.032-1.32,0.171
		c-0.099,0.516,0.372,0.642,0.736,0.832c0.448,0.196,0.834,0.036,1.271-0.103c0.475,0.323,0.398,0.71,0.524,1.21
		c0.622,0.114,1.184-0.089,1.793,0.119c0.53,0.173,1.14,0.223,1.6,0.522c0.233,0.139,0.598,0.231,0.733,0.471
		c0.022,0.163,0.04,0.322,0.052,0.487c-0.324,0.101-0.646,0.213-0.968,0.331c0.282,0.686,0.703,1.279,1.082,1.909
		c0.317,0.519,0.468,1.087,1.038,1.381c0.574,0.287,1.193,0.481,1.803,0.675c0.228,0.601,0.148,1.16,0.153,1.781
		c0.144,1.511,1.188,2.924,1.704,4.337c0.015,0.693-0.069,1.365,0.054,2.058c0.184,0.412,0.313,0.844,0.466,1.27
		c-0.26,0.319-0.505,0.556-0.894,0.716c-0.146,0.238-0.364,0.489-0.421,0.768c-0.082,0.605,0.27,1.176,0.684,1.589
		c0.347,0.364,0.908,0.501,1.364,0.73c0.203-0.001,0.406-0.007,0.609-0.012c0.443-0.218,0.973-0.257,1.396-0.488
		c0.644-0.621,1.313-1.316,1.687-2.138c-0.092-0.172-0.181-0.344-0.27-0.518c-0.516-0.021-1.019,0-1.526,0.084
		c-0.475,0.298-1.01,0.494-1.505,0.754c-0.298,0.152-0.548,0.037-0.853-0.002c0.144-0.859,0.914-1.451,1.62-1.865
		c0.247-0.198,0.49-0.399,0.73-0.603c0.398-0.177,0.758-0.41,1.119-0.646c0.094-0.202,0.186-0.403,0.28-0.604
		c-0.773-0.278-1.531,0.085-2.289-0.128c-0.163-0.219-0.197-0.494-0.267-0.753c0.339-0.253,0.686-0.484,1.064-0.682
		c0.263-0.193,0.614-0.357,0.798-0.634c0.071-0.281-0.08-0.559-0.159-0.823c-0.763-0.009-1.347,0.41-2.08,0.519
		c-0.089,0.093-0.176,0.188-0.263,0.282c-0.279,0.009-0.562,0.015-0.842,0.022c-0.052-0.217-0.243-0.518-0.163-0.734
		c0.557-0.266,1.148-0.462,1.714-0.707c0.737-0.49,1.436-0.963,1.985-1.673c-0.024-0.356-0.062-0.713-0.118-1.067
		c-0.813-0.078-1.645,0.072-2.444-0.062c-0.775-0.247-1.558-0.541-2.315-0.845c-0.357-0.169-0.437-0.479-0.6-0.808
		c0.738-0.131,1.479-0.052,2.222-0.131c0.681-0.058,1.377-0.303,2.048-0.477c-0.119-0.656-0.679-0.748-1.214-0.952
		c-0.787-0.096-1.612,0.045-2.397-0.073c-0.352-0.044-0.534-0.277-0.805-0.479c0.013-0.158,0.022-0.318,0.035-0.476
		c0.973-0.048,2.04,0.123,2.944-0.196c0.609-0.201,1.251-0.192,1.853-0.404c0.408-0.149,0.832-0.24,1.263-0.314
		c0.079-0.083,0.153-0.168,0.233-0.251c0.203-0.032,0.405-0.063,0.608-0.096c0.06-0.079,0.124-0.154,0.184-0.231
		c0.292-0.13,0.558-0.273,0.798-0.484c0.574-0.277,1.129-0.602,1.706-0.866c0.79-0.226,1.464-0.67,2.063-1.228
		c0.32-0.302,0.609-0.487,1.028-0.628c0.681-0.587,1.474-1.19,1.946-1.961c0.186-0.63-0.092-1.443-0.176-2.09
		c-0.084-0.714-0.429-1.291-0.814-1.879c0.022-0.184,0.047-0.365,0.071-0.547c0.688-0.373,1.422-0.622,2.101-1.006
		c0.116-0.179,0.235-0.346,0.326-0.539c0.069-0.363-0.123-0.612-0.247-0.94c-0.387-0.202-0.768-0.424-1.164-0.619
		c-0.064-0.073-0.131-0.147-0.198-0.221c-0.684-0.438-1.122-1.274-1.491-1.978c-0.178-0.406-0.431-0.778-0.139-1.203
		c0.476-0.813,1.596-0.813,2.418-0.908c1.01-0.562,2.38-0.188,3.504-0.496c0.85-0.284,1.696-0.207,2.491-0.659
		c0.508-0.208,0.735-0.621,1.003-1.067c-0.114-0.266-0.203-0.58-0.386-0.81c-0.214-0.181-0.461-0.318-0.694-0.475
		c-0.485-0.058-0.971-0.141-1.456-0.204c-1.313-0.143-2.479,0.144-3.813,0.212c-0.308,0.249-0.629,0.354-1.008,0.438
		c-0.404,0.08-0.679,0.317-0.996,0.56c0.538,0.034,1.048,0.083,1.561-0.109c0.884-0.311,1.785-0.148,2.685-0.405
		c0.527-0.16,0.958-0.101,1.48,0.04c0.016,0.208,0.027,0.416,0.043,0.624c-0.795,0.003-1.575-0.026-2.368,0.084
		c-0.882,0.083-1.724,0.327-2.595,0.479c-0.377,0.225-0.773,0.314-1.199,0.379c-0.669,0.424-1.33,0.864-1.996,1.297
		c-0.166,0.247-0.337,0.496-0.505,0.744c0.062,0.922-0.223,1.766-0.303,2.677c-0.054,0.494-0.352,0.793-0.624,1.183
		c-0.223-0.555-0.381-1.128-0.56-1.699l-0.104-0.104l0.342,0.011c0.015-0.604,0.06-1.226-0.025-1.825
		c-0.208-0.594-0.51-1.133-0.611-1.766c0.153-0.153,0.307-0.311,0.461-0.468c-0.074-0.25-0.146-0.5-0.221-0.751
		c0.703-0.311,1.456-0.172,2.159-0.463c0.356-0.149,0.714-0.237,1.095-0.3c0.961-0.185,1.689-0.697,2.608-0.967
		c0.55-0.207,1.126-0.244,1.687-0.396C109.859,57.762,110.917,57.92,111.834,57.919z"/>
	<path fill="#FFFFFF" d="M111.813,58.645c0.485,0.063,0.971,0.146,1.456,0.204c0.233,0.156,0.48,0.294,0.694,0.475
		c0.183,0.229,0.271,0.544,0.386,0.81c-0.268,0.446-0.495,0.859-1.003,1.067c-0.795,0.452-1.642,0.375-2.491,0.659
		c-1.124,0.309-2.494-0.065-3.504,0.496c-0.822,0.095-1.942,0.095-2.418,0.908c-0.292,0.425-0.039,0.797,0.139,1.203
		c0.369,0.703,0.808,1.539,1.491,1.978c0.067,0.073,0.134,0.147,0.198,0.221c0.396,0.195,0.777,0.417,1.164,0.619
		c0.124,0.328,0.316,0.577,0.247,0.94c-0.091,0.193-0.21,0.36-0.326,0.539c-0.679,0.384-1.412,0.633-2.101,1.006
		c-0.024,0.182-0.049,0.363-0.071,0.547c0.386,0.588,0.73,1.165,0.814,1.879c0.084,0.646,0.361,1.46,0.176,2.09
		c-0.473,0.771-1.266,1.374-1.946,1.961c-0.419,0.141-0.708,0.326-1.028,0.628c-0.599,0.558-1.272,1.002-2.063,1.228
		c-0.577,0.265-1.132,0.589-1.706,0.866c-0.24,0.211-0.506,0.354-0.798,0.484c-0.06,0.077-0.124,0.152-0.184,0.231
		c-0.203,0.032-0.405,0.063-0.608,0.096c-0.08,0.083-0.154,0.168-0.233,0.251c-0.431,0.074-0.854,0.165-1.263,0.314
		c-0.602,0.212-1.243,0.203-1.853,0.404c-0.904,0.319-1.972,0.148-2.944,0.196c-0.013,0.157-0.022,0.317-0.035,0.476
		c0.271,0.201,0.453,0.435,0.805,0.479c0.785,0.118,1.61-0.022,2.397,0.073c0.535,0.204,1.095,0.296,1.214,0.952
		c-0.671,0.174-1.367,0.419-2.048,0.477c-0.743,0.079-1.483,0-2.222,0.131c0.163,0.328,0.242,0.639,0.6,0.808
		c0.758,0.304,1.54,0.598,2.315,0.845c0.8,0.134,1.632-0.017,2.444,0.062c0.057,0.354,0.094,0.711,0.118,1.067
		c-0.55,0.71-1.248,1.183-1.985,1.673c-0.565,0.245-1.157,0.441-1.714,0.707c-0.08,0.217,0.111,0.518,0.163,0.734
		c0.28-0.008,0.563-0.014,0.842-0.022c0.087-0.095,0.174-0.189,0.263-0.282c0.733-0.108,1.317-0.527,2.08-0.519
		c0.079,0.265,0.23,0.542,0.159,0.823c-0.184,0.276-0.535,0.44-0.798,0.634c-0.379,0.197-0.726,0.429-1.064,0.682
		c0.069,0.259,0.104,0.534,0.267,0.753c0.758,0.213,1.516-0.15,2.289,0.128c-0.095,0.2-0.187,0.401-0.28,0.604
		c-0.361,0.236-0.721,0.47-1.119,0.646c-0.24,0.203-0.483,0.404-0.73,0.603c-0.706,0.414-1.477,1.006-1.62,1.865
		c0.305,0.039,0.555,0.154,0.853,0.002c0.495-0.26,1.03-0.456,1.505-0.754c0.508-0.084,1.011-0.105,1.526-0.084
		c0.089,0.174,0.178,0.346,0.27,0.518c-0.374,0.821-1.043,1.517-1.687,2.138c-0.424,0.231-0.953,0.271-1.396,0.488
		c-0.203,0.005-0.406,0.011-0.609,0.012c-0.456-0.229-1.018-0.366-1.364-0.73c-0.414-0.413-0.766-0.983-0.684-1.589
		c0.057-0.278,0.274-0.529,0.421-0.768c0.389-0.16,0.634-0.396,0.894-0.716c-0.153-0.426-0.282-0.857-0.466-1.27
		c-0.123-0.692-0.039-1.364-0.054-2.058c-0.516-1.413-1.561-2.826-1.704-4.337c-0.005-0.621,0.074-1.181-0.153-1.781
		c-0.609-0.193-1.229-0.388-1.803-0.675c-0.57-0.294-0.721-0.862-1.038-1.381c-0.379-0.63-0.8-1.224-1.082-1.909
		c0.321-0.118,0.644-0.23,0.968-0.331c-0.012-0.165-0.029-0.324-0.052-0.487c-0.136-0.239-0.5-0.332-0.733-0.471
		c-0.46-0.3-1.069-0.35-1.6-0.522c-0.609-0.208-1.171-0.005-1.793-0.119c-0.126-0.5-0.05-0.887-0.524-1.21
		c-0.437,0.139-0.822,0.299-1.271,0.103c-0.364-0.19-0.835-0.316-0.736-0.832c0.437-0.139,0.867-0.144,1.32-0.171
		c0.037-0.141,0.072-0.278,0.109-0.417c-0.592-0.447-1.241-0.498-1.947-0.602c-0.279-0.206-0.564-0.397-0.834-0.615
		c-0.238-0.161-0.476-0.325-0.711-0.488c-0.156,0.134-0.305,0.269-0.458,0.4c-0.015,0.398-0.03,0.795-0.05,1.19
		c-0.629,0.012-1.253,0.04-1.882,0.028c0.587-0.954,1.525-1.651,2.264-2.501c0.876-0.694,1.674-1.492,2.645-2.047
		c0.055-0.089,0.109-0.18,0.163-0.27c1.551-0.618,2.402-1.982,4.097-2.376l0.045-0.086c0.307,0.624,0.257,1.34,0.534,1.987
		c0.659,1.543,1.521,2.97,2.729,4.147c0.463,0.439,0.983,0.721,1.501,1.089c1.401,1.028,2.946,1.931,4.596,2.494
		c0.619,0.299,1.293,0.472,1.959,0.207c1.382-0.909,2.264-2.227,3.01-3.675c0.465-0.973,0.507-1.936,0.688-2.978
		c0.094-0.702-0.021-1.402,0.123-2.106c0.248-1.005-0.485-2.013,0.208-2.945c0.272-0.39,0.57-0.688,0.624-1.183
		c0.08-0.911,0.364-1.755,0.303-2.677c0.168-0.248,0.339-0.497,0.505-0.744c0.666-0.433,1.327-0.873,1.996-1.297
		c0.426-0.064,0.822-0.154,1.199-0.379c0.871-0.152,1.713-0.396,2.595-0.479c0.793-0.11,1.573-0.081,2.368-0.084
		c-0.016-0.208-0.027-0.416-0.043-0.624c-0.522-0.141-0.953-0.2-1.48-0.04c-0.899,0.257-1.801,0.095-2.685,0.405
		c-0.513,0.192-1.022,0.144-1.561,0.109c0.317-0.242,0.592-0.479,0.996-0.56c0.379-0.083,0.7-0.188,1.008-0.438
		C109.335,58.789,110.501,58.502,111.813,58.645z"/>
	<path fill="#FFFFFF" d="M17.228,58.789c0.171,0.015,0.339,0.033,0.508,0.061c0.086,0.069,0.171,0.142,0.257,0.211
		c1.35,0.407,2.635,0.987,3.997,1.373c1.412,0.494,2.89,1.045,4.29,1.581c1.12,0.294,2.157,0.832,3.284,1.094
		c-0.128,0.42-0.25,0.838-0.401,1.246c-0.669,1.734-1.241,3.504-1.922,5.233c-0.624-0.326-1.298-0.37-1.862-0.804
		c0.218-0.477,0.389-0.953,0.53-1.457c0.332-0.789,0.584-1.617,0.857-2.43c0.144-0.361-0.178-0.489-0.446-0.626
		c-0.777-0.29-1.575-0.543-2.357-0.822c-0.106-0.021-0.216-0.036-0.322-0.055c-0.5,1.378-1.01,2.763-1.567,4.118
		c-0.592-0.253-1.187-0.434-1.8-0.614c0.228-1.275,0.916-2.451,1.258-3.721c0.052-0.208,0.03-0.439,0.025-0.652
		c-1.045-0.25-2.026-0.741-3.081-0.981c-0.708,1.346-1.047,2.868-1.629,4.272c-0.48-0.103-0.929-0.297-1.402-0.435
		c-0.228-0.096-0.53-0.075-0.406-0.429c0.332-1.352,0.948-2.648,1.409-3.966C16.735,60.266,16.916,59.502,17.228,58.789z"/>
	<path fill="#FFFFFF" d="M81.335,59.548c0.345,0.735,0.503,1.523,0.783,2.276c0.102,0.331,0.562,0.333,0.839,0.452
		c0.352,0.489,0.719,0.938,1.135,1.376c0.232,0.218,0.221,0.485,0.29,0.778c-0.587-0.058-1.019-0.348-1.452-0.723
		c-0.121-0.032-0.245-0.064-0.363-0.097c-0.432-0.458-0.711-0.902-0.956-1.479c-0.597-0.581-1.03-1.156-1.048-2.025
		C80.783,59.823,81.006,59.684,81.335,59.548z"/>
	<path fill="#FFFFFF" d="M118.213,60.881c1.229,0.027,2.332-0.114,3.502,0.364c0.924,0.218,1.137,1.207,1.424,1.974
		c-0.066,0.175-0.135,0.351-0.199,0.526c-0.555-0.378-1.105-0.736-1.779-0.846c-0.584-0.096-1.154-0.228-1.729-0.343
		c-1.154-0.134-2.338-0.085-3.483-0.111c-0.45,0.001-0.758-0.326-1.109-0.567c0.208-0.161,0.414-0.323,0.619-0.49
		C116.423,61.31,117.254,60.839,118.213,60.881z"/>
	<path fill="#FFFFFF" d="M54.111,61.698c0.468,0.074,0.597,0.413,0.832,0.762c-0.193-0.009-0.387-0.018-0.582-0.026
		C54.271,62.19,54.183,61.947,54.111,61.698z"/>
	<path fill="#EB621E" d="M124.344,61.754c1.32,0.285,2.611,0.707,3.887,1.16c0.898,0.423,1.895,0.271,2.938,0.364
		c1.23-0.026,2.418,0.179,3.592,0.531c1.057,0.463,1.898,1.156,2.814,1.808c1.203,0.793,2.18,2.032,3.115,3.114
		c0.357,0.42,0.811,0.676,1.318,0.874c0.43-0.268,0.863-0.562,1.326-0.773c0.857-0.121,1.809,0.284,2.699,0.309
		c0.83-0.009,1.58,0.504,1.996,1.199c0.893,1.497,1.418,3.158,1.979,4.795c0.111,0.312,0.096,0.675,0.125,1.003
		c-0.191,0.108-0.418,0.371-0.652,0.333c-0.363,0.022-0.877-0.197-1.164,0.082c-0.531,0.445-1.127,0.396-1.768,0.582
		c-0.742-0.252-1.48-0.058-2.225-0.243c-0.564-0.547-1.232-0.749-1.941-1.05c-0.717-0.309-1.684-0.321-2.381-0.724
		c-0.523-0.407-0.924-0.91-1.52-1.247c-0.402-0.246-0.83-0.299-1.285-0.4c-0.846-0.563-1.797-0.742-2.703-1.179
		c-1.279-0.518-2.631-1.182-4.018-1.301c-1.432-0.438-2.879-0.615-4.244-1.279c-0.082-0.083-0.164-0.166-0.248-0.249
		c-0.746-0.113-1.494-0.144-2.246-0.162c-0.498-0.005-0.893-0.232-1.359-0.393c0.291-1.438,0.611-2.898,1.068-4.298
		c0.268,0.535,0.516,1.026,1.09,1.277c0.758,0.331,1.363,0.742,2.205,0.763c0.113-0.174,0.232-0.35,0.352-0.521
		c0-0.258,0-0.517,0.002-0.774c0.305-0.034,0.602-0.07,0.904-0.106c0.129,0.383,0.195,0.732,0.215,1.137
		c0.398,0.613,0.859,1.251,1.563,1.537c1.383,0.609,2.797,0.855,4.074,1.734c0.121,0.229,0.236,0.479,0.398,0.678
		c0.404,0.304,0.98,0.443,1.457,0.581c1.131,0.333,2.129,0.93,3.066,1.634c0.406,0.308,0.881,0.489,1.279,0.8
		c0.314,0.244,0.553,0.598,0.879,0.825c0.506,0.3,1.07,0.376,1.605,0.648c0.287,0.169,0.572,0.188,0.9,0.212
		c-0.402-0.843-1.133-1.169-1.891-1.637c-0.477-0.294-0.99-0.518-1.461-0.813c-0.248-0.132-0.244-0.518-0.313-0.763
		c0.639-0.072,1.332-0.231,1.969-0.157c0.572,0.209,1.037,0.494,1.672,0.518c0.789,1.018,0.99,2.182,1.555,3.302
		c0.154-0.185,0.313-0.366,0.471-0.55c-0.039-0.486,0.01-0.925-0.258-1.359c-0.414-0.707-0.748-1.365-0.688-2.214
		c0.178,0,0.348-0.001,0.523-0.001c0.383,0.51,0.672,1.068,0.951,1.638c-0.014-0.434-0.305-1.108,0.043-1.45
		c0.592-0.024,0.725,0.779,1.063,1.159c0.051-0.621,0.045-1.244,0.02-1.868c-0.219-0.2-0.432-0.4-0.646-0.604
		c-0.582-0.078-1.139,0.028-1.582-0.403c-0.525-0.025-1.051-0.021-1.576-0.008c-0.268,0.258-0.551,0.639-0.91,0.761
		c-0.545,0.085-1.145,0.124-1.695,0.085c-0.611-0.431-0.949-1.296-1.451-1.853c-0.752-0.799-1.43-1.643-2.277-2.35
		c-1.021-0.581-1.998-1.68-3.154-1.927c-1.16-0.375-2.26-0.152-3.502-0.308c-1.67-0.034-3.057-0.667-4.572-1.268
		c-0.396-0.152-0.59,0.114-0.908,0.29c-0.295,0.234-0.672,0.162-1.033,0.194C123.895,62.854,124.092,62.303,124.344,61.754z"/>
	<path fill="#FFFFFF" d="M125.727,62.964c1.516,0.601,2.902,1.233,4.572,1.268c1.242,0.155,2.342-0.067,3.502,0.308
		c1.156,0.247,2.133,1.346,3.154,1.927c0.848,0.707,1.525,1.551,2.277,2.35c0.502,0.557,0.84,1.422,1.451,1.853
		c0.551,0.039,1.15,0,1.695-0.085c0.359-0.122,0.643-0.503,0.91-0.761c0.525-0.014,1.051-0.018,1.576,0.008
		c0.443,0.432,1,0.325,1.582,0.403c0.215,0.204,0.428,0.404,0.646,0.604c0.025,0.624,0.031,1.247-0.02,1.868
		c-0.338-0.38-0.471-1.184-1.063-1.159c-0.348,0.342-0.057,1.017-0.043,1.45c-0.279-0.569-0.568-1.128-0.951-1.638
		c-0.176,0-0.346,0.001-0.523,0.001c-0.061,0.849,0.273,1.507,0.688,2.214c0.268,0.435,0.219,0.873,0.258,1.359
		c-0.158,0.184-0.316,0.365-0.471,0.55c-0.564-1.12-0.766-2.284-1.555-3.302c-0.635-0.023-1.1-0.309-1.672-0.518
		c-0.637-0.074-1.33,0.085-1.969,0.157c0.068,0.245,0.064,0.631,0.313,0.763c0.471,0.296,0.984,0.52,1.461,0.813
		c0.758,0.468,1.488,0.794,1.891,1.637c-0.328-0.023-0.613-0.043-0.9-0.212c-0.535-0.272-1.1-0.349-1.605-0.648
		c-0.326-0.228-0.564-0.581-0.879-0.825c-0.398-0.311-0.873-0.492-1.279-0.8c-0.938-0.704-1.936-1.301-3.066-1.634
		c-0.477-0.138-1.053-0.277-1.457-0.581c-0.162-0.198-0.277-0.449-0.398-0.678c-1.277-0.879-2.691-1.125-4.074-1.734
		c-0.703-0.286-1.164-0.924-1.563-1.537c-0.02-0.404-0.086-0.754-0.215-1.137c-0.303,0.036-0.6,0.072-0.904,0.106
		c-0.002,0.258-0.002,0.517-0.002,0.774c-0.119,0.172-0.238,0.348-0.352,0.521c-0.842-0.021-1.447-0.432-2.205-0.763
		c-0.574-0.251-0.822-0.742-1.09-1.277c0.133-0.381,0.258-0.764,0.338-1.162c0.361-0.032,0.738,0.04,1.033-0.194
		C125.137,63.079,125.331,62.812,125.727,62.964z"/>
	<path fill="#FFFFFF" d="M55.74,64.202c0.332,0.562,0.463,1.231,0.768,1.813c0.342,0.675,0.674,1.339,0.867,2.075
		c0.179,0.693,0.498,1.325,0.75,1.99c0.567,1.813,1.494,3.53,2.363,5.212c0.824,1.372,1.954,2.259,3.128,3.301
		c0.777,0.636,1.479,1.422,2.156,2.165c0.726,0.815,1.568,1.419,2.113,2.391c0.208,0.388,0.529,0.583,0.896,0.8
		c0.158-0.15,0.316-0.302,0.48-0.45c0-0.319,0.002-0.64,0.002-0.96c0.295-0.646,0.743-1.146,1.161-1.708
		c0.055,0.793,0.327,1.584,0.585,2.333c0.416,0.835,1.085,1.557,1.582,2.35c0.132,0.19,0.067,0.491,0.08,0.716
		c0.146,0.211,0.299,0.423,0.458,0.63c-0.171-0.218-0.347-0.433-0.522-0.647c-1.236,0.875-2.594,1.271-3.931,1.927
		c-0.567,0.332-1.146,0.621-1.788,0.78c-0.738,0.189-1.485,0.817-2.254,0.782c-0.728-0.186-1.377-0.634-2.098-0.858
		c-0.844-1.223-1.387-2.606-2.238-3.827c-1.672-3.217-3.296-6.452-4.748-9.778c-0.294-0.636-0.549-1.28-0.72-1.96
		c0.195-0.164,0.547-0.247,0.537-0.552c-0.03-0.646-0.59-1.234-0.669-1.876c0.045-0.367,0.345-0.719,0.53-1.03
		c0.604-0.313,1.169-0.472,1.843-0.557c0.057-0.643-0.263-1.02-0.729-1.403c-0.466-0.171-0.963,0.456-1.359,0.657
		c-0.522-0.314-0.696-0.538-0.909-1.106c0.169-0.328,0.332-0.661,0.49-0.996c0.166-0.012,0.332-0.028,0.498-0.039
		c0.458-0.59,0.21-1.104,0.265-1.775C55.438,64.38,55.403,63.954,55.74,64.202z"/>
	<path fill="#FFFFFF" d="M164.543,65.186c0.834-0.165,1.439,0.224,2.254,0.402c0.572,0.414,1.139,0.764,1.561,1.35
		c0.574,0.717,0.766,1.604,0.891,2.496c-0.033,0.846-0.322,1.723-0.732,2.459c-0.4,0.683-1.006,1.048-1.656,1.456
		c-0.102,0.017-0.199,0.032-0.297,0.05c-0.193-0.698-0.58-1.479-0.545-2.205c0.254-0.211,0.66-0.374,0.826-0.669
		c0.141-0.327,0.215-0.685,0.314-1.026c-0.164-0.62-0.203-1.184-0.742-1.613c-0.564-0.641-1.625-0.517-2.348-0.262
		c-0.184,0.159-0.371,0.31-0.563,0.455c-0.266,0.421-0.51,0.823-0.553,1.336c-0.066,0.914-0.049,1.885-0.254,2.779
		c-0.227,1.005-1.063,1.847-1.928,2.348c-0.438,0.166-1.146,0.332-1.611,0.368c-0.725-0.099-1.553-0.267-2.125-0.747
		c-1.029-0.765-1.68-2.065-1.623-3.348c0.082-1.076,0.625-1.913,1.268-2.736c0.1-0.044,0.197-0.085,0.295-0.127
		c0.285-0.206,0.57-0.324,0.906-0.42c0.227,0.677,0.404,1.365,0.627,2.041c-0.66,0.359-0.83,0.893-1.037,1.574
		c0.188,0.687,0.352,1.001,0.867,1.484c0.584,0.043,1.396,0.193,1.863-0.251c0.396-0.295,0.545-0.719,0.57-1.2
		c0.033-0.764,0.234-1.495,0.234-2.263c0.012-0.92,0.531-1.767,1.025-2.507c0.416-0.271,0.818-0.559,1.225-0.844
		C163.698,65.468,164.124,65.349,164.543,65.186z"/>
	<path fill="#FFFFFF" d="M88.352,67.785c0.02,0.876-0.067,1.751-0.104,2.625c-0.193-0.443-0.381-0.854-0.406-1.352
		C87.891,68.581,88.108,68.186,88.352,67.785z"/>
	<path fill="#FFFFFF" d="M13.603,68.941c0.379,0.018,0.75,0.029,1.107,0.174c0.698,0.241,1.424,0.227,2.13,0.449
		c0.508,0.158,1.025,0.188,1.55,0.22c0.758,0.45,1.563,0.293,2.357,0.594c0.688,0.261,1.417,0.157,2.105,0.425
		c0.668,0.236,1.35,0.118,2.025,0.378c0.521,0.198,1.055,0.269,1.605,0.297c-0.094,0.881-0.181,1.913-0.654,2.683
		c-0.703,0.109-1.34,0.391-2.026,0.577c-1.181,0.442-2.419,0.671-3.591,1.146c-1.629,0.514-2.967,0.945-4.589,1.476l-0.171,0.334
		c0.765,0.315,1.511,0.419,2.323,0.533c0.693,0.278,1.36,0.363,2.09,0.481c0.708,0.245,1.414,0.306,2.16,0.325
		c0.849,0.557,1.872,0.252,2.769,0.77c-0.109,0.67-0.23,1.336-0.426,1.989c-0.701-0.086-1.342-0.381-2.051-0.439
		c-0.654-0.046-1.243-0.315-1.892-0.37c-0.29-0.037-0.604-0.042-0.881-0.13c-0.847-0.296-1.744-0.325-2.603-0.595
		c-1.097-0.14-2.093-0.556-3.202-0.604c-0.679-0.247-1.37-0.35-2.081-0.438c0.01-0.784,0.253-1.508,0.347-2.275
		c0.193-0.15,0.401-0.358,0.641-0.422c0.901-0.26,1.795-0.556,2.677-0.874c0.772-0.22,1.541-0.437,2.291-0.73
		c0.478-0.162,0.969-0.223,1.412-0.473c0.773-0.173,1.499-0.474,2.254-0.702c0.508-0.201,1.052-0.229,1.407-0.659
		c-1.067-0.509-2.209-0.447-3.301-0.826c-0.466-0.112-0.924-0.098-1.377-0.246c-0.646-0.219-1.328-0.233-1.971-0.439
		c-0.896-0.32-1.828-0.213-2.687-0.678C13.439,70.243,13.55,69.594,13.603,68.941z"/>
	<path fill="#EB621E" d="M56.944,70.942c0.339-0.179,0.805-0.149,1.184-0.183c0.515,0.939,0.721,1.978,1.288,2.891
		c0.334,0.538,0.653,1.085,0.98,1.628c0.381,0.658,0.845,1.165,0.884,1.969c-0.141,0.071-0.277,0.146-0.416,0.22
		c-0.184-0.074-0.369-0.146-0.552-0.219c-0.977-1.759-2.269-3.291-3.299-5.018C56.825,71.886,56.637,71.265,56.944,70.942z"/>
	<path fill="#FFFFFF" d="M89.218,72.326c0.485,0.046,1.184-0.223,1.472,0.289c0.589,0.774,1.35,1.427,2.107,2.032
		c0.938,0.695,1.979,1.468,3.128,1.735c0.861,0.182,1.733-0.176,2.32-0.809c0.653-0.7,1.171-1.558,1.656-2.383
		c0.074,0.639,0.233,1.376,0.064,2.005c-0.134,0.597-0.668,1.077-1.035,1.561c-0.347,0.473-0.976,0.5-1.401,0.921
		c-1.699-0.105-3.225-1.217-4.671-2.075c-1.283-0.747-2.372-1.727-3.363-2.817C89.401,72.631,89.308,72.479,89.218,72.326z"/>
	<path fill="#FFFFFF" d="M146.198,73.979c0.09,0.01,0.178,0.02,0.268,0.029c0.068,0.302,0.178,0.618,0.184,0.931
		c-0.027,0.332-0.277,0.664-0.436,0.951c-0.148-0.291-0.283-0.584-0.402-0.889C145.975,74.67,146.094,74.331,146.198,73.979z"/>
	<path fill="#FFFFFF" d="M167.118,76.294c0.52,0.012,1.041,0.115,1.557,0.183c0.535,0.351,1.074,0.647,1.506,1.137
		c0.084,0.054,0.168,0.106,0.25,0.161c0.527,0.881,1.037,1.666,1.049,2.736c-0.045,1.377-0.67,2.799-1.773,3.652
		c-0.564,0.478-1.234,0.625-1.939,0.894c-0.727,0.157-1.494,0.106-2.223,0.291c-0.68,0.184-1.361,0.198-2.063,0.216
		c-1.057,0.021-2.043,0.425-3.107,0.436c-0.674-0.008-1.496,0.267-2.109-0.028c0.049-0.678,0.023-1.261-0.234-1.894
		c0.738-0.106,1.432-0.141,2.145-0.322c1.057-0.279,2.105-0.084,3.145-0.343c0.73-0.188,1.482-0.27,2.24-0.292
		c0.822-0.028,1.574-0.226,2.381-0.415c0.902-0.312,1.467-1.289,1.443-2.219c-0.051-0.406-0.217-0.8-0.426-1.146
		c-0.254-0.429-0.75-0.565-1.164-0.809c-0.629-0.02-1.268-0.043-1.902-0.007c-0.527,0.037-1,0.232-1.525,0.274
		c-0.861,0.069-1.734,0.096-2.59,0.214c-1.254,0.377-2.625,0.247-3.904,0.516c-0.129-0.065-0.258-0.129-0.383-0.194
		c0.021-0.665-0.037-1.219-0.25-1.849c0.889-0.337,1.793-0.143,2.693-0.396c0.738-0.203,1.568-0.158,2.334-0.24
		c0.832-0.083,1.584-0.383,2.426-0.399C165.51,76.457,166.301,76.26,167.118,76.294z"/>
	<path fill="#FFFFFF" d="M76.598,76.511c0.158-0.031,0.31-0.06,0.468-0.086c0.235,0.3,0.266,0.516,0.711,0.461
		c1.095-0.055,2.165,0.143,3.11,0.711c0.359,0.154,0.664,0.367,0.966,0.605c0.035,0.187,0.069,0.376,0.104,0.562
		c-0.144,0.164-0.282,0.328-0.411,0.501c-0.664,0.03-1.209-0.335-1.857-0.299c-0.845,0.031-1.669-0.065-2.501-0.166
		c-0.322-0.205-0.646-0.405-0.941-0.655c-0.366-0.038-0.768-0.159-1.112,0.023c-0.651,0.328-1.295,0.45-1.89,0.859
		c-0.55,0.401-1.092,0.808-1.691,1.139c0.218-0.649,0.822-1.03,1.311-1.464C74.079,77.932,75.319,77.166,76.598,76.511z"/>
	<path fill="#FFFFFF" d="M76.325,80.262c0.263,0.059,0.332,0.364,0.471,0.567c-0.094,0.141-0.188,0.28-0.285,0.421
		c-0.903,0.558-1.837,1.07-2.744,1.625c-0.507,0.301-1.092,1.029-1.721,0.938c-0.55-0.454-0.558-1.192-0.302-1.811
		C72.43,81.667,72.91,81.135,73.7,81c0.055-0.081,0.106-0.164,0.163-0.247C74.666,80.545,75.476,79.982,76.325,80.262z"/>
	<path fill="#FFFFFF" d="M11.23,83.564c3.177-0.009,6.36-0.005,9.537-0.001c1.194,0.086,2.375,0.084,3.569,0.074
		c-0.008,0.623,0.022,1.244-0.008,1.867c0.01,0.309-0.19,0.282-0.426,0.348c-0.728,0.081-1.521-0.106-2.264-0.133
		c-0.814-0.03-1.629,0.013-2.444-0.025c-0.181,0.229-0.329,0.352-0.297,0.67c-0.002,1.455-0.002,2.915,0.007,4.371
		c1.421,0.215,2.835-0.051,4.245,0.189c0.342,0.041,0.684,0.048,1.025,0.063c0.012,0.707,0.015,1.418-0.002,2.127
		c-1.88,0.012-3.772,0.07-5.649-0.066c-1.729-0.021-3.462,0.013-5.191-0.01c-0.758-0.076-1.483-0.268-2.258-0.232
		c-0.008-0.684-0.008-1.367,0.02-2.05c1.875-0.019,3.752-0.005,5.627-0.007c0.037-1.67,0.02-3.341,0.012-5.012
		c-1.127-0.138-2.256-0.065-3.385-0.161c-0.704-0.032-1.417-0.01-2.123-0.011C11.225,84.898,11.225,84.231,11.23,83.564z"/>
	<path fill="#FFFFFF" d="M171.985,87.728c0.023,0.802-0.033,1.561-0.158,2.352c-0.697,0.194-1.369,0.47-2.064,0.669
		c-0.572,0.225-1.127,0.323-1.57,0.782c-0.063,1.626-0.283,3.291-0.182,4.916c0.857,0.421,1.783,0.824,2.564,1.374
		c0.125,0.023,0.25,0.045,0.375,0.068c0.133,0.116,0.262,0.23,0.389,0.347c-0.033,0.747-0.107,1.49-0.197,2.23
		c-2.061-0.8-3.92-2.023-5.973-2.818c-0.078-0.077-0.154-0.156-0.232-0.234c-0.531-0.2-1.051-0.482-1.555-0.753
		c-1.373-0.654-2.73-1.3-4.09-1.987c-0.275-0.158-0.563-0.266-0.861-0.355c-0.305-0.521-0.119-1.218-0.156-1.817
		c0.537-0.36,0.945-0.521,1.59-0.609c0.094-0.075,0.184-0.153,0.273-0.229c0.518-0.069,0.984-0.227,1.465-0.433
		c1.039-0.359,2.074-0.775,3.145-1.044c0.08-0.076,0.158-0.151,0.238-0.227c0.867-0.118,1.721-0.423,2.498-0.817
		c0.408-0.091,0.795-0.211,1.178-0.388C169.77,88.436,170.854,87.958,171.985,87.728z"/>
	<path fill="#048237" d="M166.106,92.371c-0.066,0.725-0.262,1.397-0.254,2.125c-0.008,0.248,0.004,0.518-0.07,0.755
		c-0.203,0.047-0.387,0.03-0.545-0.046c-1.045-0.491-2.135-0.888-3.184-1.358c-0.313-0.147-0.383-0.237-0.516-0.554
		c0.861-0.19,1.674-0.507,2.535-0.689C164.784,92.344,165.34,92.07,166.106,92.371z"/>
	<path fill="#FFFFFF" d="M18.182,95.258c1.288-0.114,2.565,0.12,3.722,0.688c2.306,1.148,3.804,3.752,3.683,6.319
		c-0.012,1.36-0.52,2.608-1.273,3.72c-0.698,0.964-1.635,1.563-2.605,2.217c-0.332,0.069-0.668,0.144-1.003,0.211
		c-0.086,0.084-0.176,0.168-0.262,0.252c-1.184,0.05-2.487,0.314-3.633-0.225c-1.229-0.214-2.122-0.977-3.014-1.793
		c-0.833-0.793-1.182-1.754-1.667-2.762c-0.218-1.238-0.243-2.494,0.002-3.729c0.31-0.798,0.646-1.566,1.171-2.248
		C14.412,96.334,16.265,95.353,18.182,95.258z"/>
	<path fill="#EB621E" d="M90.951,95.967c0.28,0.378,0.619,0.698,0.927,1.049c-0.119,0.052-0.238,0.105-0.356,0.159
		c-0.401,0.996,0.289,1.864,0.015,2.939c-0.258,0.619-0.896,1.079-0.832,1.81c-0.035,0.6,0.634,1.063,0.903,1.554
		c0.008,0.242-0.007,0.49-0.017,0.735c-0.23,0.076-0.458,0.158-0.682,0.245c-0.5-0.238-0.834-0.277-1.389-0.206
		c-0.773,0.85-1.414,1.657-1.947,2.683c-0.005,0.148-0.012,0.292-0.02,0.436c-0.087,0.137-0.173,0.272-0.263,0.408
		c0.124,0.129,0.25,0.261,0.377,0.387c1.169,0.193,2.308,0.617,3.438,0.966c0.307,0.084,0.56,0.258,0.814,0.441
		c0.602,0.442,1.251,0.81,1.825,1.295c0.684,0.492,1.29,1.016,2.191,0.763c-0.555-0.857-1.424-0.862-2.187-1.461
		c-0.81-0.603-1.651-1.065-2.231-1.843c0.01-0.193,0.022-0.382,0.03-0.574c0.205-0.008,0.408-0.016,0.611-0.025
		c0.721,0.569,1.253,1.224,2.13,1.57c0.398-0.221,0.669-0.248,1.114-0.213c0.366,0.322,0.777,0.56,1.204,0.792
		c0.202-0.007,0.411-0.015,0.613-0.024c-0.021-0.371-0.123-0.592-0.341-0.887c-0.748-0.369-1.462-0.708-1.972-1.401
		c-0.003-0.211-0.01-0.419-0.015-0.629c0.23-0.159,0.347-0.362,0.658-0.293c0.55,0.33,0.946,0.892,1.486,1.254
		c0.708,0.49,1.263,1.069,2.117,1.313c1.364,0.745,2.811,1.263,4.329,1.57c0.859,0.054,1.656,0.31,2.439,0.656
		c0.808,0.4,1.922,0.181,2.793,0.116c1.016-0.184,2.07-0.419,2.878-1.1c0.342-0.021,0.684-0.027,1.03-0.03
		c0.005,0.406,0.005,0.808-0.01,1.214c-0.329,0.577-0.622,1.24-0.681,1.909c0.24,0.463,0.631,0.142,0.978,0
		c0.627-0.379,1.317-0.602,1.954-0.961c0.83-0.205,1.503-0.629,2.176-1.132c0.4-0.316,0.799-0.242,1.27-0.203
		c0.25,0.513,0.301,0.775,0.172,1.343c-0.93,0.56-2.089,0.768-3.139,0.998c-0.474,0.316-0.961,0.371-1.521,0.411
		c-0.214,0.195-0.424,0.391-0.635,0.589c1.61,0.656,2.715-0.106,4.33-0.113c0.084-0.06,0.168-0.122,0.252-0.179
		c0.412-0.062,0.814-0.131,1.221-0.193c0.449-0.274,0.82-0.562,1.197-0.934c0.064-0.574,0.078-1.148,0.074-1.726
		c-0.387-0.181-0.791-0.322-1.191-0.461c0.037-0.295-0.006-0.691,0.195-0.924c0.33-0.476,0.82-0.951,0.746-1.58
		c-0.064-0.3-0.037-0.808-0.393-0.914c-0.518,0.048-0.982,0.538-1.389,0.83c-0.391,0.034-0.916,0.168-1.273-0.02
		c-0.258-0.313-0.382-0.761-0.505-1.142c-0.233,0-0.461,0.002-0.693,0.007c-0.592,0.49-1.227,0.352-1.962,0.604
		c-0.503,0.163-0.98-0.203-1.016-0.721c0.896-0.389,1.843-0.642,2.739-1.043c0.069-0.069,0.139-0.139,0.206-0.205
		c0.807-0.263,1.357-0.814,1.974-1.357c0.352-0.324,0.844-0.592,1.029-1.035c0.34-0.706,0.6-1.399,0.287-2.172
		c-0.414-0.253-0.957,0.074-1.293,0.334c-0.336,0.043-0.668,0.048-1.007,0.027c-0.018-0.15-0.04-0.302-0.057-0.448
		c0.664-0.73,1.355-1.329,1.554-2.348c-0.104-0.168-0.207-0.339-0.311-0.509c-0.199-0.016-0.395-0.029-0.596-0.046
		c0.574-0.651,1.16-1.178,1.393-2.051c0.641,0.387,1.287,0.975,1.5,1.717c0.232,0.794,0.467,1.545,0.451,2.377
		c-0.01,1.038,0.117,2.194-0.109,3.207c-0.197,0.815-0.166,1.687-0.098,2.514c0.291,0.778,0.824,1.417,1.02,2.244
		c0.225,0.656-0.297,1.372-0.373,2.036c-0.063,0.812,0.006,1.629-0.023,2.441c0,0.59-0.113,1.198-0.016,1.764
		c0.336,1.585,0.67,3.058,1.025,4.626c-0.053,1.367,0.521,2.61,0.471,3.975c-0.041,0.771,0.244,1.479,0.219,2.246
		c-0.049,2.699,0.164,5.602-0.211,8.286c-0.102,1.605-0.299,3.181-0.238,4.79c-0.076,0.099-0.15,0.198-0.225,0.295
		c0.049,1.176,0.053,2.419-0.941,3.234c-0.121,0.032-0.244,0.064-0.365,0.097c-0.422,0.334-0.793,0.768-1.357,0.802
		c-0.682,0.069-1.402,0.079-2.07-0.084c-0.457-0.184-0.835-0.55-1.293-0.73c-0.466-0.181-0.911-0.282-1.275-0.651
		c-0.488-0.505-0.748-1.179-1.229-1.709c-0.845-0.956-1.979-1.575-3.023-2.357c-0.356-0.238-0.822-0.639-1.273-0.511
		c-0.326,0.05-0.46,0.521-0.634,0.764c0.104,1.521,0.384,2.939,0.174,4.484c-0.238,1.08-0.711,2.043-0.813,3.16
		c-0.05,0.577-0.292,1.122-0.798,1.437c-0.534,0.339-1.104,0.819-1.758,0.79c-0.421,0-0.901,0.042-1.301-0.1
		c-0.431-0.237-0.824-0.555-1.211-0.856c-0.48-0.374-0.745-1.008-1.01-1.543c-0.337-0.69-0.582-1.414-0.661-2.182
		c-0.107-1.219-0.171-2.472,0.005-3.686c0.255-1.337,0.695-2.595,1.082-3.886c0.213-0.611-0.144-1.3-0.361-1.874
		c-0.224-0.585-0.771-0.872-0.996-1.461c-0.272-0.58-0.188-1.214-0.198-1.841c0.025-1.037-0.081-2.003,0.258-3.006
		c0.109-0.31,0.265-0.617,0.611-0.701c0.627-0.168,1.189-0.451,1.836-0.535c0.81-0.099,1.632-0.574,2.441-0.255
		c0.503,0.329,0.943,0.696,1.503,0.937c0.617,0.229,0.503,1.052,0.969,1.443c0.445,0.406,1.169,0.5,1.733,0.703
		c0.029-0.305,0.094-0.574-0.01-0.871c-0.297-0.919-0.53-1.848-0.887-2.744c-0.213-0.545-0.354-1.109-0.466-1.68
		c-0.352-1.8-1.05-3.559-1.303-5.374c-0.094-0.584-0.381-1.069-0.708-1.55c-1.087-0.003-1.822,0.614-2.907,0.064
		c-0.34-0.037-0.693-0.06-1.021-0.158c-0.896-0.337-1.738-0.377-2.447-1.11c-0.371-0.034-0.763-0.228-1.069,0.075
		c-0.687,0.579-1.357,1.193-1.941,1.879c-1.035,1.187-2.227,2.143-3.438,3.143c-0.047,0.085-0.097,0.169-0.148,0.253
		c-0.335,0.158-0.624,0.377-0.927,0.585c-0.176,0.163-0.356,0.307-0.56,0.436c-0.087,0.064-0.173,0.129-0.258,0.193
		c-0.495,0.337-0.961,0.716-1.453,1.055c-0.493,0.505-1.028,0.895-1.437,1.471c-0.403,0.575-0.896,1.067-1.353,1.601
		c-0.805,0.99-1.548,2.025-2.296,3.061c-0.747,1.075-1.232,2.442-2.117,3.402c-0.403,0.471-0.726,0.993-1.087,1.499
		c-0.361,0.515-0.847,0.898-1.179,1.438c-0.604,0.959-1.525,1.733-2.444,2.375c-0.724,0.34-1.558,0.661-2.315,0.899
		c-0.927,0.094-1.796,0.356-2.705,0.545c-0.534,0.168-1.05,0.347-1.614,0.396c-0.941,0.476-1.951,0.78-2.878,1.285
		c-1.079,0.603-2.067,1.212-2.67,2.341c-0.436,0.861-1.124,1.53-1.597,2.37c-0.25,0.429-0.597,0.76-0.979,1.074
		c-0.52,0.404-0.718,0.969-1.169,1.43c-0.894,0.822-1.382,1.906-2.375,2.647c-0.681,0.473-1.282,1.032-1.934,1.537
		c-0.506,0.501-1.051,0.935-1.675,1.275c-0.594,0.322-0.951,0.84-1.503,1.246c-0.572,0.426-1.063,0.971-1.731,1.193
		c-0.728,0.317-1.511,0.414-2.264,0.109c-0.74-0.255-1.716-0.745-1.803-1.625c0.01-0.797,0.525-1.577,0.49-2.401
		c-0.054-1.857,0.379-3.898,1.489-5.422c-0.008-0.126-0.018-0.25-0.025-0.379c0.271-0.2,0.513-0.413,0.735-0.663
		c0.411-0.456,0.922-0.788,1.412-1.164c1.572-1.154,3.091-2.444,4.378-3.908c0.516-0.703,1.07-1.337,1.665-1.967
		c0.352-0.146,0.703-0.341,1.069-0.421c0.493-0.094,1.011-0.069,1.501-0.181c0.347-0.121,0.589-0.431,0.829-0.695
		c0.372-0.045,0.743-0.074,1.115-0.104c0.953-1.082,1.58-2.382,2.588-3.428c0.852-1.218,2.03-1.983,3.219-2.83
		c0.508-0.399,1.09-0.29,1.665-0.582c0.492-0.243,0.99-0.235,1.527-0.268c0.314-0.248,0.617-0.485,0.81-0.85
		c1.063-2.107,2.413-4.091,3.389-6.275c0.358-0.835,0.837-1.607,1.218-2.43c0.401-0.743,0.929-1.406,1.288-2.174
		c0.803-1.365,1.711-2.67,2.565-4c0.743-0.948,1.283-2.023,2.019-2.975c0.592-0.772,1.013-1.634,1.535-2.451
		c0.392-0.567,0.466-1.283,0.662-1.941c0.213-0.825,0.656-1.467,1.084-2.199c0.298-0.483,0.73-0.724,1.145-1.085
		c0.312-0.263,0.547-0.642,0.772-0.976c0-0.538-0.034-1.03,0.148-1.546c0.198-0.608,0.698-1.025,0.857-1.639
		c0.108-0.535-0.104-1.168-0.111-1.717c0.017-0.367,0.111-0.734,0.171-1.095C90.778,96.439,90.867,96.204,90.951,95.967z"/>
	<path fill="#FFFFFF" d="M91.521,97.175c0.118-0.054,0.237-0.107,0.356-0.159c0.995,1.378,2.357,2.439,3.774,3.355
		c0.945,0.401,1.922,0.932,2.946,0.977c0.595,0.4,1.269,0.703,2.002,0.728c1.411,0.124,2.729,0.479,4.138,0.421
		c0.642,0.01,1.266-0.097,1.904-0.131c0.664,0.007,1.188,0.327,1.867,0.066c0.951-0.418,1.878-0.817,2.938-0.832
		c0.089-0.084,0.184-0.163,0.27-0.245c0.701-0.102,1.251-0.529,1.949-0.619c0.298-0.136,0.6-0.274,0.896-0.408
		c0.327-0.282,0.696-0.448,1.075-0.649c0.361-0.198,0.7-0.436,1.048-0.663c0.205-0.234,0.418-0.461,0.625-0.691
		c0.201,0.017,0.396,0.03,0.596,0.046c0.104,0.17,0.207,0.341,0.311,0.509c-0.199,1.019-0.891,1.617-1.554,2.348
		c0.017,0.146,0.039,0.298,0.057,0.448c0.339,0.021,0.671,0.016,1.007-0.027c0.336-0.26,0.879-0.587,1.293-0.334
		c0.313,0.772,0.053,1.466-0.287,2.172c-0.186,0.443-0.678,0.711-1.029,1.035c-0.617,0.543-1.167,1.095-1.974,1.357
		c-0.067,0.066-0.137,0.136-0.206,0.205c-0.896,0.401-1.843,0.654-2.739,1.043c0.035,0.518,0.513,0.884,1.016,0.721
		c0.735-0.253,1.37-0.114,1.962-0.604c0.232-0.005,0.46-0.007,0.693-0.007c0.123,0.381,0.247,0.829,0.505,1.142
		c0.357,0.188,0.882,0.054,1.273,0.02c0.406-0.292,0.871-0.782,1.389-0.83c0.355,0.106,0.328,0.614,0.393,0.914
		c0.074,0.629-0.416,1.104-0.746,1.58c-0.201,0.232-0.158,0.629-0.195,0.924c0.4,0.139,0.805,0.28,1.191,0.461
		c0.004,0.577-0.01,1.151-0.074,1.726c-0.377,0.372-0.748,0.659-1.197,0.934c-0.406,0.063-0.809,0.132-1.221,0.193
		c-0.084,0.057-0.168,0.119-0.252,0.179c-1.615,0.007-2.719,0.77-4.33,0.113c0.211-0.198,0.421-0.394,0.635-0.589
		c0.56-0.04,1.047-0.095,1.521-0.411c1.05-0.23,2.209-0.438,3.139-0.998c0.129-0.567,0.078-0.83-0.172-1.343
		c-0.471-0.039-0.869-0.113-1.27,0.203c-0.673,0.503-1.346,0.927-2.176,1.132c-0.637,0.359-1.327,0.582-1.954,0.961
		c-0.347,0.142-0.737,0.463-0.978,0c0.059-0.669,0.352-1.332,0.681-1.909c0.015-0.406,0.015-0.808,0.01-1.214
		c-0.347,0.003-0.688,0.01-1.03,0.03c-0.808,0.681-1.862,0.916-2.878,1.1c-0.871,0.064-1.985,0.284-2.793-0.116
		c-0.783-0.347-1.58-0.603-2.439-0.656c-1.519-0.308-2.965-0.825-4.329-1.57c-0.854-0.243-1.409-0.822-2.117-1.313
		c-0.54-0.362-0.937-0.924-1.486-1.254c-0.312-0.069-0.428,0.134-0.658,0.293c0.005,0.21,0.012,0.418,0.015,0.629
		c0.51,0.693,1.224,1.032,1.972,1.401c0.218,0.295,0.319,0.516,0.341,0.887c-0.202,0.01-0.411,0.018-0.613,0.024
		c-0.427-0.232-0.838-0.47-1.204-0.792c-0.445-0.035-0.716-0.008-1.114,0.213c-0.877-0.347-1.409-1.001-2.13-1.57
		c-0.203,0.01-0.406,0.018-0.611,0.025c-0.008,0.192-0.021,0.381-0.03,0.574c0.58,0.777,1.422,1.24,2.231,1.843
		c0.763,0.599,1.632,0.604,2.187,1.461c-0.901,0.253-1.508-0.271-2.191-0.763c-0.574-0.485-1.224-0.853-1.825-1.295
		c-0.255-0.184-0.508-0.357-0.814-0.441c-1.13-0.349-2.269-0.772-3.438-0.966c-0.127-0.126-0.253-0.258-0.377-0.387
		c0.09-0.136,0.176-0.271,0.263-0.408c0.008-0.144,0.015-0.287,0.02-0.436c0.533-1.025,1.174-1.833,1.947-2.683
		c0.555-0.071,0.889-0.032,1.389,0.206c0.224-0.087,0.451-0.169,0.682-0.245c0.01-0.245,0.024-0.493,0.017-0.735
		c-0.27-0.491-0.938-0.954-0.903-1.554c-0.064-0.73,0.574-1.19,0.832-1.81C91.811,99.04,91.12,98.171,91.521,97.175z"/>
	<path fill="#048237" d="M17.696,97.405c0.654-0.145,1.516-0.16,2.165,0c0.639,0.243,1.268,0.51,1.872,0.831
		c0.305,0.309,0.636,0.608,0.899,0.952c0.354,0.521,0.58,1.149,0.852,1.714c0.007,0.634,0.047,1.275-0.002,1.907
		c-0.221,1.198-0.877,2.204-1.803,2.977c-0.173,0.069-0.347,0.134-0.518,0.198c-0.067,0.087-0.136,0.171-0.206,0.258
		c-0.78,0.168-1.438,0.492-2.261,0.438c-1.568-0.058-3.205-0.895-4.037-2.252c-0.582-0.842-0.75-1.847-0.664-2.853
		c0.057-1.055,0.651-2.09,1.365-2.845C15.978,98.06,16.864,97.764,17.696,97.405z"/>
	<path fill="#FFFFFF" d="M158.135,101.066c0.594,0.192,1.223,0.192,1.816,0.405c0.553,0.191,1.141,0.188,1.689,0.384
		c0.648,0.238,1.352,0.216,2.012,0.443c0.574,0.198,1.168,0.248,1.773,0.271c0.088,0.082,0.178,0.166,0.268,0.25
		c0.816,0.066,1.484,0.208,2.262,0.468c0.893,0.116,1.719,0.421,2.602,0.572c-0.066,0.726-0.164,1.437-0.436,2.115
		c-0.715-0.179-1.432-0.213-2.125-0.458c-0.629-0.176-1.271-0.179-1.881-0.438c-0.463-0.129-1.195-0.342-1.639-0.104
		c-0.35,1.575-0.766,3.143-1.072,4.726c0.645,0.445,1.332,0.352,2.061,0.634c0.65,0.25,1.342,0.139,1.98,0.411
		c0.51,0.203,1.008,0.218,1.543,0.29c-0.152,0.726-0.285,1.508-0.566,2.191c-0.729-0.282-1.506-0.265-2.229-0.55
		c-0.467-0.166-0.996-0.134-1.475-0.27c-0.766-0.266-1.578-0.293-2.34-0.592c-0.682-0.134-1.348-0.235-2.014-0.446
		c-0.715-0.082-1.369-0.322-2.063-0.49c-0.979-0.042-1.865-0.406-2.828-0.564c0.041-0.308,0.078-0.617,0.113-0.927
		c0.064-0.094,0.135-0.19,0.201-0.287c0-0.245,0-0.493,0-0.74c0.637-0.022,1.273,0.032,1.908,0.074
		c0.082,0.082,0.164,0.163,0.246,0.245c0.666,0.129,1.385,0.134,2.004,0.392c0.434,0.188,0.871,0.168,1.332,0.178
		c0.313-1.206,0.688-2.419,0.859-3.652c0.064-0.111,0.127-0.223,0.188-0.335c0.006-0.347,0.008-0.693,0.014-1.04
		c-1.07-0.134-2.086-0.45-3.137-0.668c-0.672-0.238-1.355-0.377-2.061-0.503c0.143-0.642,0.199-1.39,0.467-1.986
		C157.803,100.756,157.879,100.986,158.135,101.066z"/>
	<path fill="#EB621E" d="M96.259,103.077c0.468,0.06,0.932,0.129,1.401,0.158c0.446,0.02,0.83,0.317,1.271,0.424
		c0.287-0.35,0.451-0.617,0.961-0.474c0.687,0.293,1.343,0.614,2.085,0.763c0.833,0.216,1.649,0.074,2.467,0.347
		c0.679,0.248,1.32,0.159,2.021,0.164c0.971-0.03,1.922,0.129,2.895,0.079c0.188,0.29,0.359,0.461,0.29,0.835
		c-0.729,0.234-1.364,0.518-2.145,0.505c-1.149,0.007-2.318,0.018-3.463-0.119c-0.636-0.141-1.237-0.29-1.901-0.258
		c-0.837,0.037-1.57-0.26-2.378-0.386c-0.118,0.141-0.242,0.284-0.361,0.429c0.184,0.133,0.366,0.267,0.54,0.416
		c0.245,0.5-0.55,0.608-0.842,0.842c0.193,0.193,0.386,0.386,0.579,0.579c0.927-0.024,1.754,0.342,2.66,0.398
		c0.049-0.148,0.094-0.299,0.144-0.445c-0.052-0.136-0.104-0.272-0.158-0.406c0.084-0.071,0.165-0.144,0.247-0.216
		c0.688,0.348,1.367,0.672,2.125,0.843c1.392,0.513,2.809,0.866,4.304,0.802c0.075,0.224,0.251,0.511,0.179,0.743
		c-0.193,0.238-0.476,0.555-0.792,0.595c-0.853,0.099-1.744-0.069-2.61-0.06c-0.401,0.005-0.761-0.032-1.137-0.174
		c-0.736-0.282-1.499-0.108-2.231-0.386c-0.634-0.233-1.278-0.179-1.872-0.55c-0.369-0.119-0.714-0.245-1.03-0.48
		c-0.793-0.575-1.657-0.867-2.502-1.362c-1.005-0.569-1.837-1.342-2.6-2.199c0.015-0.272,0.034-0.545,0.062-0.813
		c0.453,0.144,0.884,0.332,1.32,0.521C95.909,103.834,95.93,103.301,96.259,103.077z"/>
	<path fill="#FFFFFF" d="M119.323,105.315c0.178,0.901-1.01,1.446-1.762,1.377C118.018,106.083,118.614,105.592,119.323,105.315z"/>
	<path fill="#FFFFFF" d="M27.211,109.248c0.758,2.026,1.384,4.099,2.085,6.147c-0.614,0.282-1.226,0.505-1.907,0.581
		c-0.507-1.245-0.854-2.548-1.357-3.791c-0.285,0.005-0.57,0.008-0.852,0.013c-0.097,0.091-0.19,0.181-0.287,0.272
		c-0.466,0.042-0.907,0.071-1.317,0.319c-0.223,0.081-0.461,0.148-0.674,0.257c-0.074,0.285-0.005,0.548,0.069,0.825
		c0.332,1.104,0.765,2.073,0.966,3.188c-0.564,0.069-1.08,0.257-1.617,0.428c-0.31,0.087-0.404-0.339-0.498-0.547
		c-0.332-1.06-0.584-2.12-1.125-3.105c-0.674,0.039-1.243,0.371-1.907,0.473c-1.035,0.479-2.204,0.651-3.259,1.09
		c-0.297-0.624-0.49-1.275-0.661-1.944c0.564-0.356,1.238-0.371,1.805-0.713c0.49-0.099,0.956-0.156,1.382-0.436
		c0.485-0.064,0.832-0.164,1.233-0.448c0.768-0.072,1.407-0.496,2.179-0.533c0.129-0.099,0.258-0.197,0.387-0.299
		c0.53-0.058,1-0.235,1.498-0.409c1.067-0.232,2.043-0.728,3.113-0.961C26.765,109.589,26.968,109.417,27.211,109.248z"/>
	<path fill="#FFFFFF" d="M90.233,109.679c0.724,0.223,1.476,0.579,2.09,1.03c-0.139,0.336-0.252,0.661-0.529,0.916
		c-0.768,0.758-1.57,1.387-2.185,2.293c-0.896,1.327-2.058,2.18-2.799,3.601c-0.305,0.604-0.792,1.043-1.166,1.601
		c-0.611,0.961-1.221,1.911-1.761,2.919c-0.798,1.18-1.243,2.502-1.907,3.75c-0.421,1.132-0.882,2.246-1.303,3.375
		c-0.614,1.427-1.191,3.057-1.993,4.414c-0.434,0.41-1.033,0.971-1.672,0.678c0.055-1.203,0.671-2.03,1.122-3.101
		c0.295-0.684,0.602-1.342,1.042-1.941c0.013-0.253,0.025-0.5,0.032-0.748c-0.337-0.047-0.626-0.176-0.94,0.016
		c-0.419,0.26-0.83,0.564-1.172,0.921c-0.753,0.921-1.064,1.983-1.672,2.964c-0.347,0.572-0.458,1.227-0.824,1.791
		c-0.55,0.861-0.906,1.788-1.233,2.754c-0.129,0.376-0.302,0.847-0.624,1.104c-0.268,0.188-0.713,0.064-1.022,0.057
		c0.057-0.478,0.228-0.879,0.47-1.29c0.006-0.153,0.013-0.31,0.018-0.466c-0.52-0.044-0.995-0.06-1.476,0.184
		c-0.904,0.448-1.729,1.055-2.596,1.572c-1.154,0.666-2.137,1.707-2.972,2.731c-0.188,0.277-0.614,0.201-0.906,0.253
		c-0.24-0.634-0.5-1.327-0.511-2.011c0.064-0.619,0.511-0.932,0.919-1.327c0.919-0.845,1.435-1.87,2.212-2.816
		c0.758-0.898,1.521-1.857,2.454-2.57c0.542-0.448,1.295-0.661,1.919-0.998c0.491-0.28,0.981-0.248,1.521-0.322
		c0.451-0.047,0.857-0.205,1.288-0.337c0.98-1.453,1.902-3.006,2.662-4.586c1.019-1.741,1.902-3.566,2.725-5.409
		c0.268-0.671,0.903-0.936,1.369-1.525c0.64-0.892,1.298-1.763,1.833-2.727c1.102-1.577,2.308-3.054,3.546-4.52
		c0.496-0.396,0.941-0.845,1.441-1.23C88.502,110.223,89.163,109.53,90.233,109.679z"/>
	<path fill="#FFFFFF" d="M154.608,111.675c0.297,0.049,0.594,0.102,0.887,0.158c0.283,0.232,0.564,0.356,0.912,0.461
		c0.797,0.881,1.453,1.879,2.211,2.793c0.969,1.327,2.006,2.601,2.986,3.918c0.412,0.535,0.805,1.069,1.324,1.501
		c0.709-0.996,0.982-2.065,1.486-3.155c0.273-0.59,0.541-1.174,0.754-1.783c0.578,0.317,1.342,0.411,1.816,0.862
		c-0.104,0.584-0.416,1.148-0.639,1.696c-0.842,1.895-1.57,3.846-2.457,5.718c-0.383-0.148-0.758-0.319-1.152-0.438
		c-0.67-0.155-1.1-0.938-1.504-1.443c-1.504-1.949-3-3.915-4.516-5.848c-0.381-0.46-0.613-0.953-1.232-1.116
		c-0.709,1.372-1.254,2.825-1.863,4.244c-0.678-0.294-1.391-0.416-1.926-0.886c0.324-0.595,0.564-1.219,0.813-1.846
		c0.342-0.755,0.707-1.493,0.984-2.275C153.776,113.341,154.282,112.554,154.608,111.675z"/>
	<path fill="#FFFFFF" d="M116.331,116.514c0.158-0.027,0.316-0.052,0.478-0.074c0.085,0.342,0.221,0.634,0.122,0.99
		c-0.187,0.817-0.387,1.635-0.53,2.459c-0.079,0.974-0.024,1.964,0.099,2.93c0.104,0.832,0.179,1.712,0.399,2.517
		c0.19,0.708,0.338,1.414,0.389,2.145c-0.248-0.005-0.496-0.01-0.744-0.015c-0.094-0.1-0.188-0.203-0.282-0.303
		c-0.223-0.624-0.3-1.268-0.429-1.911c-0.106-0.598,0.027-1.149-0.247-1.714c-0.022-0.443-0.027-0.887-0.027-1.333
		c-0.268-0.044-0.535-0.084-0.806-0.113c-0.819,0.99-1.558,2.035-2.248,3.118c-0.34,0.755,0.235,1.78,0.443,2.523
		c0.342,1.233,1.016,2.308,1.327,3.551c0.44,1.303,0.666,2.646,1.058,3.96c0.277,1.038,0.253,2.078,0.216,3.146
		c-0.021,0.314-0.149,0.577-0.258,0.869c-0.5-0.045-0.951-0.179-1.414-0.366c-0.508-0.604-0.929-1.211-1.585-1.67
		c-0.785-0.619-1.647-1.124-2.465-1.698c-0.802-0.56-1.263-1.375-1.729-2.219c-0.326-0.783-0.476-1.694-0.485-2.536
		c-0.01-0.485,0.263-0.909,0.466-1.333c0.597-0.178,1.137-0.064,1.733,0.045c0.479,0.352,0.748,0.634,0.966,1.196
		c0.114,0.077,0.226,0.151,0.342,0.226c0.203-0.095,0.401-0.193,0.597-0.303c-0.081-1.458-0.774-2.627-1.072-4.021
		c-0.257-1.045-0.668-1.991-1.02-2.997c-0.112-0.297-0.134-0.599-0.149-0.916c0.39,0.282,0.738,0.587,1.072,0.932
		c0.513,0.084,0.993,0.054,1.499-0.03c0.074-0.808,0.01-1.545-0.24-2.317c0.176-0.448,0.344-0.882,0.602-1.293
		c0.403-0.693,1.1-1.09,1.561-1.754c0.113-0.034,0.228-0.071,0.339-0.104c0.25-0.238,0.498-0.476,0.74-0.719
		c0.114-0.039,0.221-0.076,0.332-0.113c0.067-0.106,0.134-0.211,0.198-0.314C115.828,116.801,116.076,116.65,116.331,116.514z"/>
	<path fill="#FFFFFF" d="M29.905,116.787c0.659,1.151,1.229,2.348,1.853,3.519c0.431,0.924,0.996,1.766,1.372,2.715
		c-0.156,0.044-0.314,0.092-0.476,0.136c-0.069,0.074-0.139,0.144-0.208,0.216c-0.391,0.126-0.76,0.279-1.129,0.463
		c-0.52-0.882-0.911-1.822-1.426-2.704c-0.252-0.446-0.458-0.901-0.837-1.261c-0.956,0.25-1.697,0.869-2.62,1.187
		c-0.08,0.129-0.156,0.26-0.235,0.389c0.438,1.053,0.988,2.043,1.538,3.033c0.184,0.295,0.223,0.585,0.23,0.922
		c-0.562,0.23-1.092,0.52-1.671,0.716c-0.718-1.241-1.303-2.559-2.053-3.779c-0.864,0.161-1.488,0.656-2.241,1.05
		c-0.201,0.042-0.401,0.087-0.602,0.126c-0.032,0.261-0.114,0.476,0.002,0.73c0.28,0.669,0.686,1.286,0.998,1.942
		c0.285,0.592,0.582,1.179,0.924,1.74c-0.574,0.327-1.193,0.556-1.749,0.907c-0.832-1.238-1.409-2.541-2.11-3.854
		c-0.372-0.716-0.748-1.427-1.089-2.16c0.678-0.366,1.357-0.728,2.05-1.064c0.302-0.198,0.619-0.322,0.961-0.438
		c0.064-0.072,0.124-0.146,0.188-0.221c1.104-0.292,1.942-1.06,3.017-1.387c0.079-0.099,0.156-0.2,0.238-0.302
		c0.515-0.148,0.996-0.374,1.496-0.563c0.062-0.082,0.124-0.166,0.188-0.25c0.23-0.066,0.463-0.134,0.693-0.203
		c0.049-0.074,0.102-0.151,0.153-0.228c0.837-0.221,1.466-0.811,2.318-1.001C29.754,117.039,29.831,116.911,29.905,116.787z"/>
	<path fill="#FFFFFF" d="M149.1,123.191c0.24-0.159,0.426-0.053,0.658,0.055c0.615,0.321,1.209,0.678,1.793,1.052
		c0.119,0.032,0.24,0.067,0.359,0.097c0.637,0.545,1.428,0.837,2.164,1.285c1.053,0.543,2.012,1.236,3.08,1.751
		c0.742,0.345,1.168,0.917,2.059,0.793c0.369-0.763,0.902-1.414,1.273-2.172c0.189-0.384,0.371-0.756,0.66-1.077
		c0.629,0.272,1.211,0.582,1.793,0.936c-0.365,0.724-0.756,1.424-1.195,2.101c-0.711,1.109-1.27,2.311-2.016,3.393
		c-1.135-0.718-2.332-1.337-3.492-2.016c-1.406-0.709-2.713-1.61-4.141-2.283c-0.504-0.377-1.055-0.669-1.611-0.954
		c-0.744-0.413-1.441-0.879-2.223-1.226C148.442,124.31,148.784,123.741,149.1,123.191z"/>
	<path fill="#FFFFFF" d="M33.932,124.449c0.493,0.609,0.917,1.248,1.461,1.817c-0.089,0.748-0.446,1.353-0.743,2.026
		c-0.668,1.451-1.25,2.941-1.902,4.403c-0.5,1.324-1.229,2.652-1.615,4.021c1.224-0.242,1.996-1.337,3.046-1.927
		c0.069-0.089,0.142-0.173,0.213-0.263c0.109-0.044,0.22-0.086,0.332-0.131c0.203-0.179,0.414-0.34,0.634-0.493
		c0.077-0.066,0.148-0.134,0.225-0.203c0.755-0.52,1.466-1.104,2.202-1.649c0.431-0.302,0.877-0.518,1.201-0.95
		c0.438,0.524,0.864,1.06,1.291,1.595c-0.614,0.753-1.437,1.159-2.192,1.746c-0.354,0.279-0.706,0.566-1.077,0.824
		c-0.357,0.347-0.716,0.624-1.145,0.872c-0.985,0.777-2.036,1.49-2.992,2.303c-0.099,0.045-0.195,0.087-0.292,0.129
		c-0.874,0.718-1.763,1.411-2.709,2.03c-0.505-0.613-0.951-1.277-1.441-1.906c0.48-1.293,1.04-2.551,1.57-3.824
		c0.602-1.337,1.083-2.719,1.733-4.036c0.317-0.768,0.726-1.561,0.837-2.388c-0.23-0.06-0.411-0.034-0.545,0.082
		c-0.746,0.602-1.555,1.121-2.323,1.701c-1.129,0.882-2.249,1.761-3.422,2.58c-0.483,0.387-0.978,0.741-1.431,1.159
		c-0.478-0.532-0.896-1.095-1.313-1.674c0.272-0.258,0.58-0.461,0.887-0.679c0.069-0.045,0.136-0.089,0.206-0.134
		c0.522-0.56,1.241-0.911,1.813-1.424c1.33-0.919,2.543-1.969,3.878-2.875c0.558-0.377,1.018-0.857,1.598-1.214
		c0.567-0.488,1.188-0.877,1.805-1.3C33.793,124.595,33.86,124.523,33.932,124.449z"/>
	<path fill="#FFFFFF" d="M105.298,126.543c-0.46,0.347-1.245,0.709-1.356,1.323c-0.06,0.624,0.042,1.245-0.092,1.874
		c-0.224,1.34,0.242,2.563,0.758,3.772c0.287,0.678,0.887,1.077,1.181,1.758c0.419,0.941,0.726,2.085,0.533,3.11
		c-0.198,1.125-0.877,1.991-1.025,3.121c0.505,0.25,1.037,0.433,1.555,0.648c0.421,0.2,0.619,0.552,0.788,0.969
		c-0.426-0.013-0.803-0.018-1.179-0.243c-0.392-0.243-0.783-0.223-1.227-0.228c-0.111,0.854-0.057,1.938-0.869,2.464
		c-0.141-0.008-0.287-0.015-0.431-0.02c-0.476-0.496-0.733-1.07-0.971-1.707c-0.208-1.153-0.292-2.295-0.084-3.457
		c0.141-0.503-0.288-0.887-0.545-1.261c0.032-0.316-0.139-1.153,0.44-0.916c0.567,0.495,0.934,1.241,1.525,1.717
		c0.285,0.086,0.614,0.057,0.911,0.069c0.09-0.256,0.243-0.528,0.263-0.801c-0.139-0.653-0.703-0.976-1.015-1.604
		c-0.33-0.644-0.733-1.293-0.932-1.986c-0.302-1.06-0.698-2.085-1.04-3.133c-0.451-1.488-0.564-3.063-0.069-4.559
		c0.29-0.253,0.557-0.506,0.892-0.704C103.85,126.39,104.679,126.529,105.298,126.543z"/>
	<path fill="#FFFFFF" d="M106.475,127.911c0.268,0.109,0.532,0.238,0.797,0.359c0.074,0.144,0.151,0.29,0.229,0.434
		c-0.272,0.386-0.627,0.79-0.783,1.24c-0.116,0.966-0.106,1.974,0.238,2.896c0.218,0.777,0.711,1.406,0.871,2.196
		c-0.2,0.119-0.396,0.24-0.599,0.359c-1.417-0.941-2.257-2.725-2.417-4.389c-0.074-0.102-0.149-0.203-0.219-0.302
		c0.09-0.882,0.224-1.694,0.748-2.43C105.722,128.156,106.096,128.022,106.475,127.911z"/>
	<path fill="#FFFFFF" d="M147.84,129.075c0.527-0.144,0.945,0.069,1.453,0.166c3.344,0.295,6.098,3.554,5.943,6.893
		c0.061,2.907-1.943,5.663-4.713,6.527c-0.479,0.102-0.947,0.159-1.385,0.401c-0.877,0.084-1.57,0.03-2.406-0.237
		c-0.803-0.139-1.426-0.379-2.09-0.854c-0.109-0.032-0.219-0.067-0.328-0.097c-0.758-0.646-1.49-1.315-2.008-2.18
		c-0.635-1.174-1.105-2.573-1.078-3.918c0.139-1.327,0.615-2.565,1.297-3.709c0.566-0.646,1.127-1.283,1.82-1.801
		c0.494-0.24,1.012-0.458,1.471-0.766C146.495,129.377,147.174,129.26,147.84,129.075z"/>
	<path fill="#048237" d="M148.967,131.351c0.602,0.022,1.201,0.384,1.777,0.571c1.445,0.912,2.482,2.646,2.332,4.384
		c0.139,2.13-1.688,4.146-3.758,4.453c-0.768,0.02-1.59,0.087-2.346-0.084c-0.805-0.293-1.561-0.619-2.152-1.264
		c-0.887-0.877-1.383-2.035-1.445-3.278c-0.012-1.229,0.445-2.402,1.236-3.339c0.512-0.445,0.967-0.898,1.631-1.114
		C147.133,131.234,148.008,131.335,148.967,131.351z"/>
	<path fill="#FFFFFF" d="M137.417,137.827c0.51,0.458,0.951,1.033,1.396,1.556c1.547,1.843,3.117,3.67,4.676,5.508
		c0.9,1.021,1.777,2.058,2.6,3.147c-0.564,0.44-1.141,0.835-1.627,1.369c-1.15-1.424-2.375-2.801-3.541-4.215
		c-0.195,0.013-0.389,0.024-0.582,0.035c-0.594,0.688-1.303,1.124-1.988,1.724c-0.533,0.48-1.098,0.913-1.588,1.441
		c0.426,0.703,1.006,1.248,1.506,1.896c0.725,0.798,1.402,1.635,2.115,2.444c-0.531,0.479-1.063,0.943-1.635,1.369
		c-1.998-2.233-3.924-4.563-5.889-6.825c-0.879-1.144-1.889-2.199-2.73-3.373c0.41-0.252,0.762-0.534,1.025-0.943
		c0.184-0.081,0.367-0.161,0.555-0.24c0.115,0.06,0.229,0.109,0.342,0.164c0.957,1.303,2.125,2.451,3.102,3.739
		c0.316-0.062,0.475-0.148,0.719-0.352c0.102-0.035,0.207-0.064,0.311-0.1c0.064-0.106,0.129-0.213,0.195-0.321
		c0.336-0.238,0.637-0.501,0.928-0.79c0.605-0.483,1.221-0.964,1.82-1.456c-0.055-0.31-0.031-0.577-0.25-0.825
		c-1.023-1.188-2.066-2.36-3.045-3.586c0.313-0.324,0.656-0.604,1.006-0.887c0.09-0.069,0.178-0.144,0.266-0.213
		C137.206,138.005,137.311,137.916,137.417,137.827z"/>
	<path fill="#FFFFFF" d="M61.05,138.723c0.256-0.015,0.513-0.02,0.773-0.024c-0.565,1.169-1.441,2.112-1.793,3.46
		c-0.058,0.532,0.02,1.082-0.05,1.611c-0.1,0.406-0.582,0.709-0.857,1.006c-0.391,0.35-0.639,0.832-1.03,1.177
		c-0.852,0.599-1.521,1.394-2.303,2.08c-0.545,0.458-1.09,0.943-1.543,1.493c-0.216,0.345-0.364,0.896-0.141,1.273
		c0.271,0.47,0.745,0.95,1.206,1.235c0.389,0.166,0.906,0.121,1.317,0.057c0.958-0.294,1.411-1.193,2.231-1.758
		c0.403-0.937,1.295-1.315,1.937-2.152c0.5-0.676,1.084-1.268,1.632-1.899c0.265-0.005,0.532,0,0.8,0.005
		c-0.258,0.371-0.545,0.696-0.884,0.99c-0.513,0.441-0.862,0.981-1.33,1.467c-0.666,0.772-1.419,1.461-2.061,2.256
		c-0.184,0.037-0.361,0.079-0.545,0.121c-0.926,0.716-1.664,1.58-2.479,2.412c-0.126-0.007-0.25-0.015-0.379-0.02
		c-0.608-0.756-1.416-1.288-2.112-1.972c-0.274,0-0.55,0-0.822-0.002c-0.468,0.473-0.814,0.976-1.398,1.314
		c-0.164-0.16-0.332-0.319-0.496-0.478c0.119-0.701,0.272-1.385,0.461-2.07c0.186-0.637,0.089-1.258,0.387-1.87
		c0.282-0.604,0.426-1.191,1.022-1.564c0.193-0.486,0.384-0.941,0.768-1.315c0.389-0.354,0.8-0.681,1.177-1.053
		c0.508,0.495,0.805,1.107,1.09,1.743c0.31,0.05,0.594,0.119,0.911,0.03c0.356-0.04,0.55-0.414,0.79-0.649
		c-0.052-0.948-0.746-1.595-0.721-2.565c0.321-0.305,0.592-0.658,0.903-0.973c0.187-0.048,0.39-0.045,0.582-0.058
		c0.342,0.577,1.313,0.352,1.883,0.392c0.027-0.735-0.857-0.867-1.322-1.261C59.108,140.14,60.069,139.255,61.05,138.723z"/>
	<path fill="#FFFFFF" d="M62.39,139.518c0.159-0.087,0.429-0.121,0.587-0.022c0.181,0.377,0.266,0.795,0.443,1.169
		c0.24,0.466,0.597,0.769,0.595,1.328c-0.151,0.421-0.622,0.718-0.919,1.042c-0.53,0.572-0.877,1.306-1.39,1.89
		c-0.131,0.184-0.319,0.272-0.56,0.261c-0.527-0.657-0.73-1.754-0.374-2.534C61.117,141.556,61.625,140.387,62.39,139.518z"/>
	<path fill="#EB621E" d="M58.279,142.602c0.168,0.144,0.334,0.287,0.497,0.436c-0.22,0.21-0.438,0.421-0.653,0.632
		c-0.337-0.077-0.587-0.156-0.857-0.379C57.607,143.057,57.93,142.815,58.279,142.602z"/>
	<path fill="#EB621E" d="M61.501,143.631c0.144-0.005,0.292-0.002,0.438,0.006c0.029,0.155,0.057,0.314,0.081,0.47
		c-0.19-0.007-0.381-0.015-0.574-0.02C61.459,143.934,61.476,143.781,61.501,143.631z"/>
	<path fill="#FFFFFF" d="M128.565,144.945c0.967,1.545,1.748,3.185,2.697,4.739c1.277,2.271,2.559,4.564,3.846,6.825
		c-0.182,0.129-0.361,0.258-0.543,0.385c-0.408,0.155-0.758,0.418-1.156,0.587c-0.447-0.016-0.576-0.701-0.793-1.016
		c-0.709-1.214-1.381-2.457-2.104-3.66c-0.219,0.015-0.432,0.032-0.65,0.052c-1.248,0.859-2.684,1.448-3.959,2.266
		c-0.008,0.161,0.031,0.317,0.127,0.471c0.826,1.553,1.822,3.031,2.584,4.621c-0.246,0.077-0.494,0.159-0.736,0.238
		c-0.055,0.084-0.105,0.163-0.156,0.247c-0.305,0.142-0.602,0.303-0.91,0.446c-0.4-0.317-0.613-0.911-0.877-1.343
		c-0.797-1.521-1.73-2.967-2.533-4.482c-0.563-1.05-1.238-2.035-1.748-3.11c-0.359-0.716-0.805-1.401-1.221-2.08
		c-0.094-0.171-0.195-0.337-0.297-0.503c0.65-0.324,1.277-0.691,1.924-1.022c0.506,0.71,0.83,1.513,1.291,2.248
		c0.494,0.793,0.826,1.638,1.426,2.363c1.285-0.516,2.498-1.283,3.715-1.952c0.313-0.153,0.574-0.371,0.838-0.599
		c-0.738-1.365-1.561-2.675-2.264-4.06c-0.115-0.21-0.221-0.429-0.322-0.642C127.375,145.663,127.954,145.281,128.565,144.945z"/>
	<path fill="#FFFFFF" d="M116.509,151.621c0.679,0.045,1.251,0.335,1.894,0.521c0.691,0.44,1.373,0.832,1.938,1.437
		c-0.377,0.079-0.725,0.186-1.063,0.374c-0.441,0.097-0.852,0.21-1.248,0.438c-0.354-0.203-0.688-0.337-1.089-0.427
		c-0.09-0.079-0.179-0.153-0.268-0.232c-0.927-0.082-2.046-0.263-2.883,0.232c-0.181,0.053-0.361,0.1-0.547,0.149
		c-0.523,0.391-1.043,0.661-1.459,1.184c-1.161,1.377-1.357,3.415-0.696,5.06c0.469,1.122,1.474,1.943,2.528,2.491
		c0.545,0.163,1.105,0.27,1.654,0.413c0.54,0.149,0.949-0.063,1.459-0.188c1.41-0.213,2.523-1.407,3.16-2.615
		c0.578-0.229,1.162-0.406,1.752-0.585c0.221-0.118,0.445-0.228,0.666-0.342c-0.125,1.03-0.469,1.947-1.07,2.791
		c-0.756,1.167-1.848,1.935-3.066,2.563c-1.842,0.703-3.875,0.666-5.653-0.213c-1.105-0.535-1.967-1.367-2.739-2.306
		c-0.437-0.527-0.614-1.117-0.896-1.722c-0.263-0.832-0.392-1.688-0.332-2.561c0.094-2.803,2.13-5.445,4.824-6.238
		C114.354,151.512,115.484,151.53,116.509,151.621z"/>
	<path fill="#FFFFFF" d="M85.82,151.993c0.711-0.025,1.422-0.003,2.13,0.045c0.039,0.695-0.013,1.352-0.129,2.04
		c-0.669,0.013-1.337,0-2.001-0.074C85.825,153.334,85.825,152.662,85.82,151.993z"/>
	<path fill="#FFFFFF" d="M89.921,152.091c0.649-0.054,1.348,0.132,1.979,0.266c-0.074,0.673-0.106,1.35-0.169,2.028
		c-0.765-0.03-1.419,0.126-2.117-0.253C89.681,153.454,89.748,152.75,89.921,152.091z"/>
	<path fill="#FFFFFF" d="M69.01,152.448c0.872,0.104,1.679,0.446,2.556,0.55c0.305,2.273,0.48,4.532,0.803,6.791
		c0.121,1.348,0.252,2.731,0.52,4.057c0.59-0.302,0.847-0.822,1.211-1.348c1.196-1.862,2.36-3.739,3.594-5.582
		c0.574-0.812,0.852-1.604,1.575-2.224c0.408,0.213,0.829,0.28,1.282,0.322c0.525,0.044,1.035,0.252,1.551,0.391
		c-0.208,1.575-0.687,3.054-1.006,4.606c-0.307,1.525-0.737,3.017-1.037,4.54c-0.354,1.266-0.548,2.578-0.959,3.826
		c-0.653-0.24-1.287-0.411-1.979-0.543c0.329-1.84,0.8-3.657,1.182-5.49c0.316-1.35,0.74-2.727,0.847-4.111
		c-0.376,0.04-0.5,0.24-0.728,0.496c-1.675,2.803-3.473,5.55-5.211,8.315c-0.55-0.178-1.114-0.297-1.664-0.465
		c-0.313-0.416-0.139-1.095-0.263-1.596c-0.126-0.522-0.161-1.024-0.179-1.56c-0.21-1.501-0.347-3.017-0.545-4.518
		c-0.186-0.703,0.043-1.362-0.292-1.976c-0.015-0.263-0.027-0.521-0.039-0.78c-0.233,0.037-0.377,0.146-0.432,0.324
		c-0.312,0.884-0.431,1.848-0.666,2.756c-0.498,2.138-0.979,4.282-1.538,6.402c-0.658-0.153-1.319-0.25-1.986-0.366
		c0.006-0.28,0.016-0.561,0.03-0.843c0.242-0.602,0.322-1.292,0.49-1.932c0.232-0.906,0.495-1.793,0.55-2.733
		c0.163-0.277,0.188-0.543,0.208-0.857c0.06-0.087,0.119-0.173,0.179-0.263c0.024-0.31,0.054-0.604,0.173-0.896
		c0.258-1.266,0.595-2.521,0.892-3.779c0.109-0.473,0.213-0.95,0.337-1.421C68.581,152.352,68.826,152.431,69.01,152.448z"/>
	<path fill="#FFFFFF" d="M105.645,154.499c0.527,3.068,0.8,6.191,1.266,9.268c0.084,1.266,0.356,2.506,0.411,3.77
		c-0.832,0.257-1.585,0.41-2.469,0.341c-1.593-2.006-3.089-4.086-4.681-6.097c-0.729-0.909-1.34-1.862-2.145-2.699
		c-0.114-0.005-0.229-0.013-0.342-0.018c0.007,1.226,0.245,2.454,0.398,3.668c0.232,1.981,0.525,3.967,0.703,5.953
		c-0.703,0.067-1.411,0.137-2.115,0.124c-0.228-2.014-0.564-4.026-0.782-6.045c-0.139-1.122-0.386-2.246-0.392-3.378
		c-0.321-0.59-0.104-1.157-0.287-1.788c-0.153-0.582-0.144-1.216-0.193-1.83c0.164-0.016,0.322-0.032,0.483-0.05
		c0.669-0.282,1.332-0.265,2.043-0.277c1.327,1.827,2.749,3.581,4.071,5.408c0.966,1.189,1.835,2.444,2.833,3.608
		c0.28-1.013,0.069-1.917-0.021-2.93c-0.31-2.233-0.603-4.586-0.895-6.835C104.235,154.627,104.938,154.566,105.645,154.499z"/>
	<path fill="#FFFFFF" d="M84.131,155.458c0.756-0.018,1.501-0.032,2.249,0.071c-0.139,1.135-0.01,2.264-0.216,3.388
		c-0.165,1.046-0.037,2.096-0.195,3.141c-0.161,1.035-0.134,2.061-0.124,3.105c-0.01,0.595,0.369,1.03,0.693,1.486
		c0.248,0.163,0.496,0.386,0.78,0.48c0.503,0.126,1.093,0.044,1.603-0.016c0.208-0.155,0.416-0.307,0.632-0.455
		c0.134-0.139,0.268-0.272,0.403-0.406c0.237-0.485,0.302-0.932,0.302-1.471c0.067-0.085,0.134-0.169,0.203-0.253
		c0.021-0.914-0.104-1.904,0.109-2.794c0.24-1.1-0.03-2.204,0.198-3.325c0.158-0.825,0.124-1.643,0.118-2.479
		c0.733-0.069,1.459-0.04,2.192,0.047c0.039,1.617-0.223,3.242-0.24,4.861c0.015,1.045-0.248,2.061-0.228,3.11
		c0.015,0.801-0.159,1.607-0.332,2.386c-0.31,1.052-1.051,1.693-1.897,2.325c-0.527,0.242-0.936,0.55-1.533,0.584
		c-0.661,0.05-1.356,0.064-2.008-0.079c-0.917-0.342-1.733-0.983-2.373-1.711c-0.829-1.117-0.829-2.343-0.745-3.676
		c0.094-0.948-0.045-1.842,0.148-2.773c0.186-0.948,0.03-1.895,0.176-2.846C84.186,157.248,84.111,156.391,84.131,155.458z"/>
</g>
</svg>
