<?xml version="1.0" encoding="utf-8"?>
<!-- Generator: Adobe Illustrator 16.0.0, SVG Export Plug-In . SVG Version: 6.00 Build 0)  -->
<!DOCTYPE svg PUBLIC "-//W3C//DTD SVG 1.1//EN" "http://www.w3.org/Graphics/SVG/1.1/DTD/svg11.dtd">
<svg version="1.1" id="Ebene_1" xmlns="http://www.w3.org/2000/svg" xmlns:xlink="http://www.w3.org/1999/xlink" x="0px" y="0px"
	 width="135.62px" height="52.272px" viewBox="0 0 135.62 52.272" enable-background="new 0 0 135.62 52.272" xml:space="preserve">
<g>
	<polyline fill="#1961AC" points="109.277,1.048 110.005,2.946 121.774,5.463 124.654,5.463 118.066,1.784 110.73,1.048 
		109.086,1.048 	"/>
	<polyline fill="none" stroke="#000000" points="109.277,1.048 110.005,2.946 121.774,5.463 124.654,5.463 118.066,1.784 
		110.73,1.048 109.086,1.048 	"/>
	<polygon fill="#FFFFFF" points="122.21,7.16 124.654,14.571 132.091,19.366 133.544,17.042 130.929,12.391 126.859,7.096 
		125.078,5.669 	"/>
	<polygon fill="none" stroke="#000000" points="122.21,7.16 124.654,14.571 132.091,19.366 133.544,17.042 130.929,12.391 
		126.859,7.096 125.078,5.669 	"/>
	<polyline fill="#3FA535" points="132.091,20.237 132.091,31.571 133.781,32.588 135.433,29.407 135.614,24.537 133.853,19.651 
		133.781,17.331 132.091,19.651 	"/>
	<polyline fill="none" stroke="#000000" points="132.091,20.237 132.091,31.571 133.781,32.588 135.433,29.407 135.614,24.537 
		133.853,19.651 133.781,17.331 132.091,19.651 	"/>
	<polygon fill="#FFFFFF" points="131.219,31.862 125.327,36.366 122.5,44.649 124.098,46.673 127.872,43.776 131.885,38.546 
		133.854,34.042 133.854,32.877 	"/>
	<polygon fill="none" stroke="#000000" points="131.219,31.862 125.327,36.366 122.5,44.649 124.098,46.673 127.872,43.776 
		131.885,38.546 133.854,34.042 133.854,32.877 	"/>
	<g>
		<path fill="#3FA535" d="M109.524,3.376l-7.091,4.999l2.905,7.555c0,0,11.623,3.72,12.089,3.72s6.742-4.65,6.742-4.65l-2.325-8.37
			L109.524,3.376z"/>
		<path fill="none" stroke="#000000" d="M109.524,3.376l-7.091,4.999l2.905,7.555c0,0,11.623,3.72,12.089,3.72
			s6.742-4.65,6.742-4.65l-2.325-8.37L109.524,3.376z"/>
	</g>
	<polygon fill="#FFFFFF" points="104.991,16.736 99.179,26.844 106.153,35.718 117.546,31.731 117.612,19.848 	"/>
	<polygon fill="none" stroke="#000000" points="104.991,16.736 99.179,26.844 106.153,35.718 117.546,31.731 117.612,19.848 	"/>
	<polygon fill="#1961AC" points="124.654,14.986 131.394,18.938 132.091,30.912 125.231,35.604 118.066,31.26 118.066,19.492 	"/>
	<polygon fill="#3FA535" points="106.407,35.638 104.313,43.719 111.289,48.601 122.1,44.998 125.088,35.638 118.073,31.629 	"/>
	<polygon fill="none" stroke="#000000" points="106.407,35.638 104.313,43.719 111.289,48.601 122.1,44.998 125.088,35.638 
		118.073,31.629 	"/>
	<path d="M135.608,25.506c-0.114-3.74-1.212-8.406-3.401-12.25c-0.771-1.354-1.48-2.382-2.286-3.386
		c-3.806-4.743-8.563-7.617-13.703-9.026c-2.329-0.638-4.683-0.894-7.253-0.837c-1.764,0.039-3.487,0.265-5.337,0.676
		c-2.86,0.634-5.848,1.868-8.147,3.304C94.6,4.538,93.77,5.16,92.998,5.801l1.314,3.694l0.446,0.029
		c0.004-0.003,0.009-0.008,0.014-0.012c0.538-0.291,1.334-0.262,2.008-0.312c1.342-0.101,2.327-0.202,3.735-0.181
		c0.3,0.004,0.612-0.053,0.895-0.003c0.845,0.154,1.016,0.657,1.499,1.894c0.616,1.584,1.228,3.287,1.886,4.991
		c-0.146,0.446-0.479,0.854-0.743,1.288c-0.174,0.29-0.308,0.672-0.524,0.981c-0.167,0.24-0.368,0.559-0.56,0.884
		c-0.131,0.221-0.302,0.388-0.44,0.614c-0.358,0.588-0.705,1.231-1.085,1.864c-0.06,0.102-0.152,0.449-0.242,0.539
		c-0.465,0.464-0.885,1.29-1.281,1.939c-0.328,0.539-0.691,1.257-1.085,1.864c-0.008,0.012-0.065,0.052-0.139,0.098l0.098,1.723
		c0.296,0.117,0.544,0.345,0.905,0.76c0.598,0.688,3.538,4.638,4.153,5.365c0.1,0.117,0.911,1.084,1.253,1.539
		c0.193,0.256,0.353,0.294,0.418,0.514c0.053,0.174-0.02,0.67-0.059,1.029c-0.074,0.689-1.017,3.756-1.188,4.252
		c-0.076,0.219-0.608,2.131-1.426,2.441c-0.056,0.021-0.139,0.071-0.197,0.074c-0.597,0.02-1.21-0.074-1.824-0.094
		c-0.743-0.023-1.499-0.035-2.267-0.049l0.045,1.276c0.688,0.015,1.373,0.052,2.041,0.071c0.771,0.023,1.501-0.027,2.255,0.043
		c1.03,0.096,3.368,1.262,3.396,1.289c0.369,0.369,1.046,0.756,1.533,1.098c0.471,0.332,0.942,0.707,1.4,1.037
		c0.476,0.344,0.962,0.637,1.397,1.038c-0.259,0.397-0.036,1.011-0.376,1.372c-3.157,0.289-7.731-0.648-10.843-2.053
		c-0.415-0.188-1.081-0.449-1.62-0.73c-0.092-0.049-1.29-0.721-1.495-1c-0.065-0.09-0.12-0.19-0.17-0.297h-2.807
		c0.889,0.704,1.75,1.307,2.674,1.865c1.281,0.774,2.659,1.369,4.218,1.984c5.441,2.152,12.736,2.808,20.695-0.888
		c0.058-0.028,0.07-0.141,0.06-0.135c1.002-0.478,1.818-0.905,2.689-1.465c1.557-0.999,2.878-2.08,4.046-3.208
		c0.935-0.902,1.728-1.797,2.442-2.713c0.514-0.658,0.896-1.329,1.28-1.938c0.124-0.195,0.262-0.297,0.379-0.479
		c0.22-0.348,0.361-0.688,0.523-0.981c0.221-0.401,0.427-0.654,0.622-1.018c0.473-0.884,0.76-1.833,1.082-2.759
		C135.063,31.979,135.716,29,135.608,25.506z M123.812,6.14c0.459-0.084,0.816,0.425,1.325,0.841
		c0.103,0.083,0.32,0.106,0.404,0.183c2.512,2.268,5.525,5.939,6.946,9.791c-0.138,0.246-0.331,0.711-0.622,1.018
		c-0.585,0.617-1.204-0.103-1.739-0.46c-1.17-0.777-2.409-1.758-3.683-2.634c-0.21-0.147-0.583-0.347-0.883-0.562
		c-0.306-0.219-0.696-0.469-0.785-0.598c-0.305-0.442-0.477-1.181-0.665-1.762c-0.45-1.383-0.936-3.443-1.422-4.944
		C123.109,7.014,123.331,6.229,123.812,6.14z M131.409,30.673c-0.119,0.301-0.74,0.75-1.245,1.143
		c-1.314,1.018-2.976,2.308-4.18,3.146c-0.941,0.654-1.722,0.195-2.635-0.459c-1.447-1.035-3.231-2.4-4.563-3.196
		c-0.021-2.626-0.289-5.896-0.355-8.926c-0.032-1.439-0.111-2.45,0.898-3.248c0.116-0.093,0.313-0.216,0.354-0.247
		c0.734-0.539,1.674-1.124,2.481-1.721c0.207-0.153,0.479-0.322,0.71-0.491c0.466-0.342,0.886-0.86,1.417-0.983
		c0.469-0.109,1.449,0.249,2.011,0.583c0.149,0.089,0.262,0.327,0.38,0.415c0.073,0.054,0.18,0.052,0.271,0.122
		c0.061,0.047,0.102,0.112,0.171,0.159c0.246,0.168,0.585,0.273,0.847,0.463c0.13,0.093,0.244,0.309,0.38,0.415
		c0.34,0.265,0.794,0.533,1.228,0.878c0.56,0.446,1.328,0.968,1.547,1.429c0.154,0.326,0.166,0.84,0.188,1.383
		c0.065,1.648,0.052,3.456,0.075,5.229c0.005,0.401,0.047,0.843,0.053,1.322c0.004,0.333-0.086,0.808-0.082,1.262
		C131.361,29.864,131.52,30.396,131.409,30.673z M116.811,2.412c0.533,0.167,1.054,0.435,1.58,0.632
		c0.143,0.054,0.323-0.004,0.466,0.047c0.369,0.134,1.045,0.436,1.482,0.669c0.154,0.082,0.21,0.247,0.345,0.318
		c0.265,0.14,0.539,0.137,0.771,0.268c0.113,0.062,0.182,0.229,0.346,0.317c0.19,0.105,0.908,0.252,0.821,0.696
		c-0.608,0.59-1.123,0.173-2.058-0.117c-2.688-0.835-5.305-1.453-7.904-2.269c-0.488-0.153-1.039-0.339-1.544-0.534
		c-0.467-0.181-1.047-0.154-1.204-1.112C112.274,1.348,114.652,1.734,116.811,2.412z M102.605,7.446
		c-1.178,0.302-2.549,0.251-3.893,0.354c-1.268,0.096-2.578,0.163-3.797,0.316c-0.035-0.584-0.381-1.308-0.372-1.873
		c1.409-0.932,3.015-2.037,4.854-2.841c3.064-1.343,6.509-1.988,9.154-2.12c0.3,0.569,0.18,0.947,0.457,1.506
		c-1.782,1.482-3.659,2.558-5.635,4.032C103.131,7.002,102.888,7.374,102.605,7.446z M104.712,12.131
		c-0.461-1.219-0.896-2.373-1.295-3.426c0.216-0.615,0.834-0.904,1.404-1.313c0.245-0.176,0.502-0.425,0.77-0.627
		c0.274-0.208,0.626-0.354,0.905-0.566c0.449-0.34,0.962-0.855,1.541-1.253c0.261-0.182,0.596-0.362,0.903-0.566
		c0.717-0.475,0.878-0.721,1.7-0.531c0.146,0.034,0.385,0.234,0.541,0.244c0.335,0.021,0.721,0.092,1.102,0.254
		c0.118,0.049,0.244-0.012,0.466,0.047c0.243,0.064,0.47,0.248,0.674,0.304c0.116,0.032,0.135-0.018,0.233,0.024
		c0.057,0.023,0.325,0.096,0.502,0.146c0.507,0.143,0.941,0.257,1.373,0.375c0.478,0.133,1.006,0.212,1.471,0.34
		c0.235,0.063,0.454,0.247,0.675,0.304c0.232,0.06,0.451,0.004,0.697,0.072c0.428,0.117,0.928,0.336,1.411,0.473
		c0.639,0.181,1.007,0.202,1.312,0.511c0.578,0.589,0.987,2.387,1.332,3.523c0.172,0.566,0.277,1.23,0.469,1.836
		c0.376,1.181,0.781,1.714,0.166,2.51c-0.359,0.466-0.886,0.682-1.479,1.118c-0.208,0.154-0.389,0.417-0.574,0.553
		c-0.489,0.361-1.115,0.695-1.613,1.057c-0.647,0.473-1.275,1.294-2.006,1.206c-0.7-0.085-1.739-0.511-2.513-0.727
		c-1.094-0.308-1.959-0.491-2.977-0.776c-0.816-0.229-1.687-0.443-2.61-0.691c-0.043-0.012-0.138-0.157-0.172-0.159
		c-0.452-0.028-1.165-0.204-1.704-0.363c-0.609-0.18-1.14-0.374-1.349-0.608C105.418,14.687,105.133,13.245,104.712,12.131z
		 M105.087,33.242c-1.67-2.043-3.494-4.357-5.161-6.549c0.782-1.702,1.734-3.076,2.853-4.883c0.404-0.652,0.893-1.537,1.427-2.44
		c0.144-0.244,0.474-0.698,0.78-1.19c0.535-0.86,0.454-1.411,1.577-1.156c0.045,0.011,0.134,0.157,0.172,0.16
		c0.058,0.002,0.139-0.087,0.194-0.074c0.046,0.01,0.137,0.156,0.172,0.159c0.422,0.026,1.167,0.278,1.605,0.4
		c0.372,0.102,0.696,0.145,1.104,0.254c0.043,0.012,0.136,0.157,0.17,0.159c0.338,0.021,0.738,0.099,1.104,0.254
		c0.117,0.05,0.244-0.011,0.466,0.047c0.231,0.062,0.443,0.241,0.675,0.305c0.116,0.032,0.134-0.019,0.232,0.024
		c0.476,0.202,1.378,0.321,1.973,0.483c0.313,0.086,0.677,0.292,1.043,0.39c0.493,0.131,1.138,0.31,1.618,0.731
		c0.042,2.561,0.206,5.187,0.352,8.032c0.015,0.29,0.04,0.844,0.052,1.323c0.025,0.934,0.07,1.358-0.754,1.851
		c-0.634,0.378-1.525,0.499-2.385,0.79c-2.283,0.774-5.01,1.961-7.341,2.776C106.162,34.753,105.674,33.96,105.087,33.242z
		 M121.878,47.478c-0.62,0.396-1.443,0.697-2.274,1.082c-2.435,1.13-5.409,1.963-7.6,2.092c-0.007-0.345-0.246-0.774-0.04-0.993
		c0.252-0.267,1.161-0.349,1.604-0.493c2.47-0.809,5.96-2.189,8.431-2.853c0.183,0.075,0.258,0.39,0.355,0.647
		C122.44,47.237,122.019,47.386,121.878,47.478z M121.699,44.636c-0.055,0.113-0.01,0.174-0.122,0.27
		c-0.423,0.365-9.138,3.57-9.825,3.602c-0.449,0.021-4.72-3.266-5.004-3.476c-0.468-0.343-1.395-0.769-1.608-1.294
		c-0.285-0.695,1.322-5.451,1.372-5.691c0.007-0.029,0.013-0.06,0.021-0.092c0.058-0.254,0.315-1.227,0.571-1.447
		c0.239-0.207,1.448-0.66,1.822-0.801c1.753-0.663,4.293-1.512,6.397-2.308c0.773-0.292,1.545-0.713,2.056-0.777
		c0.498-0.062,1.293,0.288,1.913,0.619c0.965,0.516,1.533,1.041,2.416,1.659c0.146,0.102,0.313,0.185,0.441,0.28
		c0.309,0.23,0.427,0.315,0.786,0.599c0.251,0.199,0.49,0.344,0.785,0.598c0.691,0.594,0.207,1.354-0.104,2.389
		c-0.408,1.363-0.756,2.707-1.165,4.021C122.239,43.471,121.993,44.018,121.699,44.636z M132.39,35.337
		c-0.124,0.315-0.204,0.634-0.328,0.906c-0.141,0.307-1.035,1.908-1.328,2.404c-1.221,2.057-2.873,4.114-4.737,5.818
		c-0.505,0.463-1.021,0.9-1.54,1.252c-0.138,0.096-0.216,0.223-0.293,0.111c-1.277-0.66-0.826-1.715-0.448-2.963
		c0.468-1.547,0.931-2.992,1.409-4.559c0.088-0.289,0.103-0.625,0.229-0.87c0.05-0.095,0.374-0.45,0.538-0.651
		c0.172-0.211,0.434-0.455,0.829-0.762c1.41-1.087,3.046-2.314,4.498-3.489c0.326-0.09,0.639,0.227,0.943,0.426
		c0.305,0.198,0.684,0.294,0.786,0.598C133.037,33.828,132.606,34.782,132.39,35.337z M133.507,31.782
		c-0.276,0.012-0.438-0.226-0.674-0.305c-0.13-3.37-0.192-7.232-0.263-10.751c-0.012-0.593-0.138-1.082,0.07-1.593
		c0.056-0.136,0.157-0.438,0.378-0.478C134.66,23.699,134.397,27.882,133.507,31.782z"/>
	<g>
		<path fill="#FFFFFF" d="M3.163,3.374c0-0.108,0.023-0.179,0.073-0.213c0.049-0.033,0.15-0.049,0.304-0.049
			c0.372,0,0.559,0.095,0.564,0.285l0.147,2.316v3.164c0,0.089-0.004,0.147-0.009,0.178c-0.02,0.072-0.121,0.108-0.3,0.108
			c-0.521,0-0.78-0.093-0.78-0.278V6.647H1.896l0.009,2.23c0,0.089-0.003,0.147-0.009,0.178C1.876,9.127,1.775,9.164,1.596,9.164
			c-0.514,0-0.772-0.098-0.772-0.293V3.382c0-0.114,0.024-0.187,0.074-0.221c0.049-0.033,0.15-0.049,0.305-0.049
			c0.37,0,0.559,0.09,0.563,0.27l0.131,2.339h1.267V3.374z"/>
		<path fill="#FFFFFF" d="M14.804,3.104c0.355,0,0.548,0.08,0.579,0.239l0.525,2.371L16.44,8.87
			c0.011,0.051,0.016,0.099,0.016,0.144c0,0.043-0.013,0.079-0.039,0.107c-0.025,0.028-0.113,0.042-0.262,0.042
			c-0.459,0-0.703-0.098-0.733-0.293l-0.271-1.59H14.07l-0.239,1.598c-0.016,0.108-0.034,0.181-0.058,0.216
			c-0.022,0.036-0.055,0.057-0.097,0.062c-0.041,0.005-0.108,0.008-0.201,0.008H13.26c-0.181,0-0.293-0.01-0.339-0.031
			c-0.113-0.041-0.178-0.088-0.193-0.139c-0.005-0.026-0.008-0.049-0.008-0.069c0-0.021,0.053-0.36,0.161-1.019
			c0.108-0.659,0.241-1.444,0.398-2.354c0.157-0.911,0.261-1.508,0.309-1.791c0.049-0.283,0.076-0.442,0.081-0.479
			C13.69,3.163,14.067,3.104,14.804,3.104z M14.571,4.115l-0.354,2.23h0.763L14.571,4.115z"/>
		<path fill="#FFFFFF" d="M24.924,8.855V3.397c0-0.19,0.186-0.285,0.556-0.285c0.077,0,0.138,0.002,0.182,0.007
			c0.044,0.005,0.1,0.029,0.167,0.073c0.065,0.043,0.125,0.107,0.177,0.189l1.383,3.242L27.34,3.39c0-0.186,0.186-0.278,0.557-0.278
			c0.153,0,0.26,0.017,0.316,0.054c0.058,0.036,0.087,0.111,0.094,0.224l0.122,2.324v3.164c0,0.089-0.003,0.147-0.007,0.178
			C28.401,9.127,28.3,9.164,28.12,9.164c-0.334,0-0.535-0.096-0.602-0.286l-1.521-3.203l0.007,3.195
			c0,0.093-0.002,0.155-0.007,0.186c-0.021,0.072-0.122,0.108-0.302,0.108C25.182,9.164,24.924,9.06,24.924,8.855z"/>
		<path fill="#FFFFFF" d="M38.712,3.112c0.56,0,0.985,0.08,1.273,0.238c0.288,0.16,0.496,0.45,0.626,0.869
			c0.127,0.419,0.192,1.041,0.192,1.864c0,1.142-0.15,1.94-0.448,2.397c-0.298,0.455-0.847,0.683-1.644,0.683
			c-0.195,0-0.76-0.042-1.691-0.124V3.243C37.803,3.155,38.366,3.112,38.712,3.112z M39.12,4.03c-0.447,0-0.729,0.009-0.842,0.027
			c-0.112,0.018-0.168,0.068-0.168,0.15v3.875c0,0.057,0.034,0.09,0.103,0.101c0.07,0.011,0.211,0.016,0.427,0.016
			c0.212,0,0.363-0.012,0.449-0.036C39.178,8.14,39.258,8.1,39.333,8.04c0.074-0.059,0.124-0.172,0.149-0.343
			c0.052-0.329,0.079-0.838,0.079-1.528C39.562,4.743,39.413,4.03,39.12,4.03z"/>
		<path fill="#FFFFFF" d="M50.792,3.112c0.787,0,1.334,0.129,1.637,0.39c0.304,0.259,0.456,0.669,0.456,1.227
			c0,0.559-0.111,0.979-0.332,1.263c0.324,0.268,0.486,0.718,0.486,1.351c0,1.214-0.698,1.822-2.092,1.822
			c-0.165,0-0.702-0.042-1.614-0.124V3.235C49.869,3.152,50.354,3.112,50.792,3.112z M50.561,5.635c0.448,0,0.754-0.054,0.915-0.162
			c0.162-0.107,0.243-0.348,0.243-0.718c0-0.211-0.046-0.385-0.135-0.521c-0.09-0.137-0.187-0.205-0.289-0.205
			c-0.438,0-0.703,0.029-0.796,0.085c-0.031,0.021-0.057,0.052-0.078,0.092v1.305c0,0.063,0.013,0.099,0.031,0.108
			C50.489,5.631,50.524,5.635,50.561,5.635z M51.723,8.028c0.101-0.112,0.149-0.344,0.149-0.694c0-0.35-0.037-0.561-0.114-0.633
			s-0.276-0.108-0.599-0.108c-0.321,0-0.524,0.006-0.61,0.016c-0.085,0.011-0.128,0.041-0.128,0.092v1.382
			c0,0.057,0.035,0.09,0.105,0.101c0.069,0.011,0.26,0.016,0.574,0.016C51.414,8.199,51.621,8.142,51.723,8.028z"/>
		<path fill="#FFFFFF" d="M63.229,3.104c0.355,0,0.548,0.08,0.579,0.239l0.525,2.371l0.532,3.157
			c0.011,0.051,0.016,0.099,0.016,0.144c0,0.043-0.013,0.079-0.038,0.107c-0.026,0.028-0.113,0.042-0.262,0.042
			c-0.46,0-0.703-0.098-0.735-0.293l-0.27-1.59h-1.081l-0.238,1.598c-0.016,0.108-0.035,0.181-0.059,0.216
			c-0.024,0.036-0.055,0.057-0.097,0.062c-0.041,0.005-0.107,0.008-0.2,0.008h-0.217c-0.18,0-0.293-0.01-0.339-0.031
			c-0.113-0.041-0.179-0.088-0.194-0.139c-0.004-0.026-0.007-0.049-0.007-0.069c0-0.021,0.054-0.36,0.163-1.019
			c0.107-0.659,0.239-1.444,0.396-2.354c0.158-0.911,0.26-1.508,0.309-1.791c0.048-0.283,0.077-0.442,0.081-0.479
			C62.114,3.163,62.492,3.104,63.229,3.104z M62.997,4.115l-0.355,2.23h0.765L62.997,4.115z"/>
		<path fill="#FFFFFF" d="M73.349,3.397c0-0.113,0.027-0.189,0.082-0.228c0.054-0.039,0.157-0.058,0.313-0.058
			c0.37,0,0.558,0.092,0.563,0.278l0.115,2.315l0.008,2.401h1.498c0.252,0,0.377,0.093,0.377,0.278c0,0.335-0.049,0.536-0.145,0.602
			c-0.053,0.037-0.12,0.054-0.202,0.054h-2.486l-0.123-0.124V3.397z"/>
		<path fill="#FFFFFF" d="M84.619,3.397c0-0.113,0.027-0.189,0.082-0.228c0.054-0.039,0.157-0.058,0.313-0.058
			c0.37,0,0.559,0.092,0.564,0.278l0.114,2.315L85.7,8.106h1.499c0.251,0,0.376,0.093,0.376,0.278c0,0.335-0.048,0.536-0.146,0.602
			c-0.053,0.037-0.119,0.054-0.201,0.054h-2.484l-0.125-0.124V3.397z"/>
	</g>
	<g>
		<path fill="#FFFFFF" d="M-0.063,28.206c0-0.242,0.348-0.364,1.045-0.364c0.694,0,1.121,0.195,1.28,0.585l2.165,3.779l1.882-3.827
			c0.084-0.209,0.2-0.352,0.348-0.426c0.147-0.073,0.379-0.111,0.695-0.111c0.718,0,1.076,0.133,1.076,0.396
			c0,0.063-0.016,0.126-0.047,0.189l-3.085,6.041v5.186c0,0.18-0.009,0.301-0.031,0.365c-0.031,0.146-0.231,0.221-0.601,0.221
			c-0.812,0-1.217-0.201-1.217-0.602v-5.17L0,28.412C-0.043,28.339-0.063,28.27-0.063,28.206z"/>
		<path fill="#FFFFFF" d="M10.831,34.12c0-1.676,0.131-2.963,0.395-3.859c0.264-0.895,0.684-1.523,1.257-1.882
			c0.575-0.358,1.404-0.537,2.491-0.537c1.085,0,1.915,0.179,2.49,0.537c0.573,0.359,0.99,0.984,1.248,1.874
			c0.259,0.892,0.389,2.18,0.389,3.867c0,2.309-0.296,3.904-0.886,4.789c-0.591,0.887-1.672,1.33-3.241,1.33
			c-1.572,0-2.654-0.443-3.25-1.33C11.128,38.024,10.831,36.429,10.831,34.12z M13.471,31.171c-0.063,0.395-0.1,0.796-0.11,1.201
			c-0.011,0.406-0.016,1.093-0.016,2.064c0,0.97,0.031,1.781,0.095,2.434c0.063,0.654,0.147,1.084,0.252,1.29
			c0.106,0.205,0.249,0.308,0.428,0.308c0.927,0,1.534-0.095,1.818-0.284c0.105-0.073,0.208-0.196,0.309-0.363
			c0.1-0.169,0.171-0.343,0.214-0.522c0.042-0.179,0.078-0.442,0.109-0.791c0.043-0.453,0.064-1.268,0.064-2.442
			s-0.03-2.103-0.087-2.783c-0.059-0.68-0.143-1.143-0.254-1.391c-0.11-0.249-0.256-0.372-0.435-0.372
			c-0.421,0-0.762,0.019-1.02,0.055c-0.259,0.038-0.488,0.127-0.688,0.269s-0.348,0.301-0.442,0.475
			C13.613,30.491,13.534,30.776,13.471,31.171z"/>
		<path fill="#FFFFFF" d="M27.037,28.569c0-0.294,0.063-0.489,0.189-0.584c0.126-0.095,0.391-0.143,0.791-0.143
			c0.399,0,0.677,0.064,0.83,0.19c0.153,0.126,0.234,0.433,0.244,0.917l0.19,4.252c0,0.159,0,0.317,0,0.475
			c0,1.634-0.107,2.93-0.324,3.888c-0.216,0.961-0.585,1.645-1.106,2.057c-0.521,0.41-1.268,0.617-2.238,0.617
			c-1.412,0-2.387-0.443-2.925-1.33c-0.537-0.885-0.807-2.476-0.807-4.773v-5.218c0-0.453,0.066-0.745,0.199-0.877
			c0.131-0.132,0.402-0.199,0.813-0.199s0.689,0.071,0.838,0.214c0.147,0.143,0.231,0.482,0.253,1.02l0.222,4.095
			c0,2.668,0.104,4.254,0.316,4.759c0.084,0.222,0.205,0.333,0.363,0.333c0.369,0,0.653-0.008,0.854-0.023
			c0.2-0.016,0.395-0.079,0.585-0.191c0.189-0.109,0.321-0.238,0.396-0.387c0.072-0.147,0.142-0.395,0.205-0.742
			c0.074-0.485,0.11-1.412,0.11-2.783V28.569z"/>
		<path fill="#FFFFFF" d="M32.19,39.606V28.427c0-0.39,0.38-0.585,1.14-0.585c0.157,0,0.283,0.006,0.371,0.017
			c0.091,0.01,0.203,0.061,0.341,0.15c0.137,0.09,0.257,0.219,0.363,0.387l2.83,6.64l-0.096-6.625c0-0.379,0.38-0.569,1.139-0.569
			c0.316,0,0.532,0.038,0.648,0.111c0.117,0.075,0.18,0.227,0.19,0.458l0.253,4.759v6.482c0,0.18-0.006,0.301-0.017,0.365
			c-0.041,0.146-0.247,0.221-0.616,0.221c-0.684,0-1.097-0.195-1.233-0.586l-3.115-6.561l0.017,6.545
			c0,0.19-0.006,0.316-0.017,0.381c-0.042,0.146-0.247,0.221-0.616,0.221C32.719,40.239,32.19,40.028,32.19,39.606z"/>
		<path fill="#FFFFFF" d="M46.327,40.239c-1.571,0-2.653-0.443-3.249-1.33c-0.597-0.885-0.894-2.48-0.894-4.789
			c0-1.676,0.132-2.963,0.396-3.859c0.264-0.895,0.683-1.523,1.257-1.882c0.574-0.358,1.389-0.537,2.442-0.537
			c1.055,0,1.865,0.143,2.436,0.428c0.231,0.115,0.348,0.273,0.348,0.474c0,0.063-0.05,0.242-0.151,0.537
			c-0.1,0.295-0.194,0.496-0.283,0.601c-0.09,0.106-0.188,0.158-0.294,0.158c-0.104,0-0.397-0.042-0.877-0.126
			c-0.479-0.084-0.888-0.126-1.226-0.126c-0.337,0-0.579,0.031-0.727,0.095c-0.147,0.063-0.269,0.182-0.363,0.356
			c-0.096,0.173-0.172,0.358-0.229,0.552c-0.059,0.195-0.104,0.478-0.135,0.847c-0.042,0.495-0.063,1.473-0.063,2.934
			c0,1.459,0.087,2.442,0.261,2.947c0.174,0.506,0.577,0.76,1.209,0.76l1.298-0.078v-3.447c0.01-0.212,0.081-0.352,0.213-0.42
			s0.366-0.105,0.704-0.11c0.337-0.005,0.59,0.038,0.759,0.126c0.169,0.09,0.264,0.271,0.285,0.547l0.269,3.098v1.993
			C48.371,40.153,47.244,40.239,46.327,40.239z"/>
		<path fill="#FFFFFF" d="M52.225,38.206c0-0.141,0.123-0.336,0.371-0.584s0.412-0.382,0.491-0.403
			c0.077-0.021,0.155-0.03,0.229-0.03c0.074,0,0.195,0.046,0.364,0.141c0.779,0.612,1.465,0.918,2.055,0.918
			s0.975-0.137,1.154-0.412c0.179-0.273,0.269-0.633,0.269-1.074c0-0.443-0.158-0.801-0.475-1.076
			c-0.315-0.273-0.835-0.605-1.558-0.996c-0.722-0.39-1.352-0.895-1.889-1.518c-0.538-0.622-0.807-1.265-0.807-1.928
			c0-1.182,0.308-2.043,0.926-2.586c0.616-0.543,1.52-0.815,2.71-0.815c0.729,0,1.439,0.174,2.136,0.522
			c0.368,0.147,0.542,0.3,0.521,0.458c-0.011,0.063-0.021,0.158-0.032,0.285c-0.199,0.569-0.353,0.896-0.459,0.98
			c-0.03,0.021-0.101,0.032-0.212,0.032s-0.403-0.088-0.879-0.261c-0.473-0.174-0.876-0.261-1.208-0.261s-0.609,0.115-0.83,0.347
			s-0.333,0.559-0.333,0.981c0,0.421,0.19,0.804,0.569,1.146c0.379,0.344,0.965,0.699,1.755,1.067
			c0.833,0.432,1.458,0.881,1.873,1.344c0.417,0.464,0.625,1.086,0.625,1.866c0,2.593-1.096,3.89-3.288,3.89
			c-1.634,0-2.883-0.469-3.747-1.408C52.336,38.558,52.225,38.349,52.225,38.206z"/>
		<path fill="#FFFFFF" d="M64.32,39.653v-9.661h-1.978c-0.252-0.01-0.416-0.079-0.489-0.205c-0.096-0.147-0.143-0.412-0.143-0.79
			c0-0.602,0.18-0.902,0.537-0.902h5.755c0.611,0,0.917,0.164,0.917,0.49c0,0.938-0.251,1.407-0.758,1.407l-1.771-0.015l0.142,3.21
			l0.016,6.435c0,0.201-0.004,0.332-0.016,0.396c-0.042,0.146-0.248,0.221-0.616,0.221C64.852,40.239,64.32,40.044,64.32,39.653z"/>
		<path fill="#FFFFFF" d="M76.558,32.791c0.421,0,0.632,0.19,0.632,0.57c0,0.517-0.031,0.87-0.095,1.059
			c-0.063,0.19-0.227,0.285-0.49,0.285h-3.099v3.367h3.652c0.253,0.011,0.427,0.062,0.521,0.151s0.143,0.223,0.143,0.403
			c0,0.516-0.048,0.872-0.143,1.066c-0.095,0.195-0.284,0.293-0.567,0.293h-5.566l-0.254-0.253V28.096h5.612
			c0.454,0.01,0.681,0.179,0.681,0.506c-0.01,0.284-0.026,0.509-0.047,0.672c-0.021,0.164-0.087,0.324-0.197,0.482
			c-0.111,0.158-0.271,0.237-0.483,0.237h-3.526l0.175,2.798H76.558z"/>
		<path fill="#FFFFFF" d="M80.479,39.606V28.096c1.075-0.168,2.009-0.253,2.799-0.253c1.465,0,2.477,0.275,3.036,0.823
			c0.558,0.548,0.837,1.455,0.837,2.72c0,1.771-0.495,2.952-1.485,3.541l1.992,4.507c0.116,0.264,0.173,0.435,0.173,0.514
			s-0.009,0.129-0.03,0.15c-0.043,0.096-0.222,0.143-0.537,0.143c-1.024,0-1.624-0.201-1.804-0.602l-1.802-4.174
			c-0.264,0.021-0.659,0.031-1.187,0.031v4.08c0,0.295-0.028,0.479-0.087,0.553c-0.058,0.074-0.239,0.111-0.545,0.111
			C80.932,40.239,80.479,40.028,80.479,39.606z M82.724,33.33c0.844,0,1.412-0.12,1.708-0.356c0.296-0.237,0.442-0.772,0.442-1.605
			c0-0.506-0.081-0.907-0.245-1.201c-0.164-0.296-0.346-0.443-0.546-0.443c-0.748,0-1.204,0.016-1.367,0.046
			c-0.164,0.032-0.245,0.138-0.245,0.317v3.005c0,0.137,0.027,0.21,0.08,0.221C82.603,33.323,82.66,33.33,82.724,33.33z"/>
		<path fill="#FFFFFF" d="M90.141,38.206c0-0.141,0.122-0.336,0.37-0.584c0.247-0.248,0.411-0.382,0.491-0.403
			c0.077-0.021,0.155-0.03,0.229-0.03c0.074,0,0.195,0.046,0.364,0.141c0.779,0.612,1.464,0.918,2.055,0.918
			s0.976-0.137,1.154-0.412c0.18-0.273,0.269-0.633,0.269-1.074c0-0.443-0.158-0.801-0.474-1.076
			c-0.316-0.273-0.836-0.605-1.558-0.996c-0.722-0.39-1.353-0.895-1.89-1.518c-0.538-0.622-0.807-1.265-0.807-1.928
			c0-1.182,0.309-2.043,0.926-2.586c0.616-0.543,1.52-0.815,2.711-0.815c0.728,0,1.438,0.174,2.135,0.522
			c0.369,0.147,0.543,0.3,0.521,0.458c-0.009,0.063-0.021,0.158-0.031,0.285c-0.198,0.569-0.353,0.896-0.458,0.98
			c-0.031,0.021-0.102,0.032-0.212,0.032c-0.112,0-0.405-0.088-0.879-0.261c-0.475-0.174-0.878-0.261-1.209-0.261
			c-0.333,0-0.608,0.115-0.83,0.347c-0.223,0.232-0.332,0.559-0.332,0.981c0,0.421,0.189,0.804,0.567,1.146
			c0.381,0.344,0.965,0.699,1.756,1.067c0.832,0.432,1.457,0.881,1.874,1.344c0.416,0.464,0.625,1.086,0.625,1.866
			c0,2.593-1.097,3.89-3.29,3.89c-1.634,0-2.882-0.469-3.747-1.408C90.249,38.558,90.141,38.349,90.141,38.206z"/>
	</g>
	<g>
		<path fill="#FFFFFF" d="M6.321,24.2v-7.401l-1.059,1.973H3.615l-0.995-1.94v7.353c0,0.196-0.005,0.326-0.016,0.391
			c-0.043,0.152-0.257,0.229-0.636,0.229c-1.088,0-1.63-0.202-1.63-0.604V12.642c0-0.413,0.375-0.62,1.125-0.62
			c0.749,0,1.2,0.201,1.353,0.604l1.646,4.206l1.728-4.222c0.087-0.239,0.193-0.396,0.318-0.473c0.124-0.076,0.346-0.115,0.66-0.115
			c0.782,0,1.179,0.213,1.19,0.636l0.26,4.858v6.57c0,0.327-0.029,0.527-0.089,0.604c-0.06,0.075-0.256,0.114-0.587,0.114
			c-0.332,0-0.6-0.011-0.808-0.033c-0.207-0.022-0.394-0.079-0.562-0.171C6.405,24.507,6.321,24.375,6.321,24.2z"/>
		<path fill="#FFFFFF" d="M10.561,22.569h0.587v-8.33h-0.49c-0.216-0.011-0.364-0.081-0.439-0.212
			c-0.076-0.151-0.115-0.429-0.115-0.831c0-0.608,0.179-0.913,0.538-0.913h2.886c0.479,0,0.718,0.169,0.718,0.505
			c0,0.967-0.19,1.451-0.57,1.451h-0.407l0.162,3.26l0.016,5.069h0.489c0.381,0.012,0.57,0.185,0.57,0.523
			c-0.021,0.967-0.287,1.45-0.798,1.45h-3.082c-0.195-0.01-0.331-0.082-0.406-0.211c-0.076-0.152-0.115-0.435-0.115-0.848
			C10.103,22.875,10.256,22.569,10.561,22.569z"/>
		<path fill="#FFFFFF" d="M17.978,24.2v-9.96H15.94c-0.262-0.011-0.431-0.081-0.506-0.212c-0.099-0.151-0.147-0.424-0.147-0.814
			c0-0.62,0.186-0.93,0.555-0.93h5.935c0.63,0,0.945,0.169,0.945,0.505c0,0.967-0.261,1.451-0.784,1.451l-1.825-0.017l0.147,3.31
			l0.017,6.634c0,0.208-0.005,0.343-0.017,0.408c-0.043,0.152-0.256,0.229-0.636,0.229C18.525,24.804,17.978,24.602,17.978,24.2z"/>
		<path fill="#FFFFFF" d="M25.899,24.2v-9.96h-2.037c-0.261-0.011-0.431-0.081-0.506-0.212c-0.098-0.151-0.146-0.424-0.146-0.814
			c0-0.62,0.185-0.93,0.554-0.93h5.935c0.631,0,0.945,0.169,0.945,0.505c0,0.967-0.261,1.451-0.781,1.451l-1.826-0.017l0.146,3.31
			l0.016,6.634c0,0.208-0.005,0.343-0.016,0.408c-0.044,0.152-0.257,0.229-0.637,0.229C26.449,24.804,25.899,24.602,25.899,24.2z"/>
		<path fill="#FFFFFF" d="M37.197,17.125c0.435,0,0.653,0.196,0.653,0.587c0,0.533-0.033,0.896-0.1,1.092
			c-0.064,0.196-0.233,0.293-0.505,0.293h-3.195v3.472h3.767c0.26,0.012,0.44,0.063,0.537,0.156
			c0.098,0.092,0.147,0.231,0.147,0.415c0,0.533-0.05,0.899-0.147,1.101c-0.097,0.201-0.293,0.301-0.587,0.301h-5.738l-0.262-0.261
			V12.283h5.789c0.467,0.012,0.701,0.186,0.701,0.521c-0.012,0.293-0.028,0.525-0.049,0.693c-0.022,0.168-0.091,0.334-0.203,0.497
			c-0.115,0.164-0.282,0.245-0.499,0.245h-3.636l0.18,2.886H37.197z"/>
		<path fill="#FFFFFF" d="M39.904,12.625c0-0.239,0.057-0.399,0.17-0.48c0.114-0.082,0.334-0.123,0.66-0.123
			c0.783,0,1.18,0.197,1.19,0.587L42.17,17.5l0.017,5.069h3.163c0.532,0,0.798,0.197,0.798,0.588c0,0.706-0.104,1.13-0.311,1.271
			c-0.108,0.076-0.25,0.114-0.424,0.114h-5.249l-0.26-0.261V12.625z"/>
	</g>
	<g>
		<path fill="#FFFFFF" d="M52.212,12.577c0-0.229,0.052-0.377,0.155-0.448c0.104-0.07,0.318-0.106,0.645-0.106
			c0.782,0,1.179,0.201,1.189,0.604l0.31,4.891V24.2c0,0.186-0.004,0.31-0.017,0.375c-0.043,0.152-0.255,0.229-0.635,0.229
			c-1.099,0-1.647-0.196-1.647-0.587v-4.728h-2.673l0.016,4.711c0,0.186-0.005,0.31-0.016,0.375
			c-0.043,0.152-0.256,0.229-0.637,0.229c-1.086,0-1.628-0.207-1.628-0.62V12.593c0-0.238,0.05-0.393,0.153-0.464
			c0.103-0.07,0.317-0.106,0.644-0.106c0.782,0,1.179,0.191,1.19,0.571l0.277,4.94h2.673V12.577z"/>
	</g>
	<g>
		<path fill="#FFFFFF" d="M61.668,17.125c0.436,0,0.652,0.196,0.652,0.587c0,0.533-0.032,0.896-0.099,1.092
			c-0.064,0.196-0.233,0.293-0.505,0.293h-3.195v3.472h3.767c0.259,0.012,0.44,0.063,0.537,0.156
			c0.098,0.092,0.147,0.231,0.147,0.415c0,0.533-0.05,0.899-0.147,1.101c-0.097,0.201-0.293,0.301-0.587,0.301h-5.737l-0.262-0.261
			V12.283h5.787c0.467,0.012,0.702,0.186,0.702,0.521c-0.013,0.293-0.028,0.525-0.05,0.693c-0.021,0.168-0.09,0.334-0.203,0.497
			c-0.115,0.164-0.28,0.245-0.498,0.245h-3.636l0.18,2.886H61.668z"/>
		<path fill="#FFFFFF" d="M64.08,22.708c0-0.146,0.129-0.348,0.384-0.604c0.256-0.254,0.423-0.393,0.505-0.415
			c0.082-0.022,0.16-0.033,0.236-0.033s0.201,0.048,0.375,0.146c0.805,0.63,1.511,0.946,2.119,0.946s1.005-0.141,1.19-0.425
			c0.185-0.282,0.277-0.652,0.277-1.107c0-0.457-0.162-0.826-0.488-1.109c-0.327-0.283-0.862-0.626-1.606-1.027
			c-0.744-0.402-1.394-0.923-1.948-1.565c-0.555-0.641-0.832-1.304-0.832-1.988c0-1.218,0.318-2.105,0.955-2.666
			c0.635-0.56,1.567-0.84,2.795-0.84c0.75,0,1.484,0.18,2.2,0.539c0.381,0.153,0.56,0.31,0.538,0.473
			c-0.011,0.065-0.021,0.163-0.032,0.293c-0.206,0.587-0.365,0.924-0.474,1.01c-0.032,0.022-0.104,0.033-0.219,0.033
			c-0.115,0-0.416-0.089-0.905-0.269c-0.488-0.179-0.904-0.269-1.247-0.269c-0.342,0-0.627,0.119-0.855,0.358
			s-0.343,0.577-0.343,1.011c0,0.435,0.196,0.83,0.588,1.183c0.391,0.353,0.993,0.719,1.809,1.1
			c0.858,0.446,1.503,0.907,1.932,1.386c0.43,0.478,0.644,1.119,0.644,1.924c0,2.673-1.13,4.01-3.391,4.01
			c-1.685,0-2.973-0.484-3.863-1.452C64.195,23.07,64.08,22.855,64.08,22.708z"/>
		<path fill="#FFFFFF" d="M72.868,22.708c0-0.146,0.127-0.348,0.383-0.604c0.255-0.254,0.424-0.393,0.506-0.415
			c0.08-0.022,0.159-0.033,0.235-0.033s0.201,0.048,0.375,0.146c0.806,0.63,1.512,0.946,2.12,0.946c0.607,0,1.004-0.141,1.188-0.425
			c0.186-0.282,0.277-0.652,0.277-1.107c0-0.457-0.162-0.826-0.488-1.109s-0.861-0.626-1.605-1.027
			c-0.744-0.402-1.395-0.923-1.949-1.565c-0.554-0.641-0.831-1.304-0.831-1.988c0-1.218,0.319-2.105,0.954-2.666
			c0.637-0.56,1.567-0.84,2.797-0.84c0.749,0,1.483,0.18,2.2,0.539c0.379,0.153,0.56,0.31,0.537,0.473
			c-0.011,0.065-0.021,0.163-0.032,0.293c-0.206,0.587-0.364,0.924-0.473,1.01c-0.032,0.022-0.105,0.033-0.22,0.033
			s-0.416-0.089-0.905-0.269c-0.489-0.179-0.904-0.269-1.247-0.269s-0.627,0.119-0.855,0.358s-0.343,0.577-0.343,1.011
			c0,0.435,0.195,0.83,0.587,1.183c0.393,0.353,0.994,0.719,1.81,1.1c0.858,0.446,1.503,0.907,1.932,1.386
			c0.43,0.478,0.645,1.119,0.645,1.924c0,2.673-1.131,4.01-3.392,4.01c-1.686,0-2.972-0.484-3.863-1.452
			C72.981,23.07,72.868,22.855,72.868,22.708z"/>
		<path fill="#FFFFFF" d="M87.36,17.125c0.435,0,0.652,0.196,0.652,0.587c0,0.533-0.033,0.896-0.099,1.092s-0.234,0.293-0.505,0.293
			h-3.195v3.472h3.766c0.262,0.012,0.439,0.063,0.538,0.156c0.098,0.092,0.147,0.231,0.147,0.415c0,0.533-0.05,0.899-0.147,1.101
			c-0.099,0.201-0.294,0.301-0.587,0.301h-5.739l-0.26-0.261V12.283h5.787c0.468,0.012,0.7,0.186,0.7,0.521
			c-0.01,0.293-0.027,0.525-0.048,0.693c-0.022,0.168-0.09,0.334-0.204,0.497c-0.113,0.164-0.28,0.245-0.497,0.245h-3.637
			l0.181,2.886H87.36z"/>
		<path fill="#FFFFFF" d="M90.083,24.151V12.625c0-0.402,0.392-0.604,1.174-0.604c0.163,0,0.29,0.007,0.383,0.016
			c0.092,0.012,0.208,0.063,0.351,0.155c0.141,0.092,0.266,0.226,0.375,0.399l2.918,6.847l-0.098-6.831
			c0-0.391,0.39-0.587,1.174-0.587c0.325,0,0.549,0.039,0.668,0.115c0.119,0.076,0.185,0.233,0.196,0.473l0.261,4.907V24.2
			c0,0.186-0.007,0.31-0.017,0.375c-0.043,0.152-0.256,0.229-0.636,0.229c-0.707,0-1.131-0.202-1.271-0.604l-3.212-6.765
			l0.017,6.749c0,0.196-0.006,0.326-0.017,0.391c-0.044,0.152-0.257,0.229-0.636,0.229C90.626,24.804,90.083,24.586,90.083,24.151z"
			/>
	</g>
</g>
</svg>
