<?xml version="1.0" encoding="utf-8"?>
<!-- Generator: Adobe Illustrator 24.2.1, SVG Export Plug-In . SVG Version: 6.00 Build 0)  -->
<svg version="1.1" id="Ebene_1" xmlns="http://www.w3.org/2000/svg" xmlns:xlink="http://www.w3.org/1999/xlink" x="0px" y="0px"
	 viewBox="0 0 841.89 148.8" style="enable-background:new 0 0 841.89 148.8;" xml:space="preserve">
<style type="text/css">
	.st0{fill-rule:evenodd;clip-rule:evenodd;fill:#102B4E;}
	.st1{fill-rule:evenodd;clip-rule:evenodd;fill:#FF6600;}
	.st2{fill:#102B4E;}
	.st3{fill:#FF6600;}
	.st4{fill:#FFFFFF;}
</style>
<g>
	<g>
		<g>
			<g>
				<g>
					<path class="st0" d="M278.28,78.65h16.08l2.71-7.3h19.66l2.71,7.3h16.07l-19.35-44.99h-18.34L278.28,78.65z M313.2,62.01h-12.6
						L306.84,45h0.12L313.2,62.01z M337.28,66.24c0,10.27,6.3,13.81,14.49,13.81c6.74,0,11.66-2.47,14.37-5.81h0.12v4.41h12.98V44.5
						h-13.36v17.26c0,5.61-3.59,8.2-8.32,8.2c-4.47,0-6.93-2.01-6.93-7.81V44.5h-13.36V66.24z M382.78,53.32h6.99V69.9
						c0,7.37,3.59,9.53,12.29,9.53c3.91,0,7.43-0.25,10.15-0.63v-8.33c-1.77,0.07-3.09,0.13-4.73,0.13c-3.6,0-4.35-0.44-4.35-3.53
						V53.32h8.82V44.5h-8.82V33.66h-13.36V44.5h-6.99V53.32z M439.93,51.93c6.05,0,9.83,3.22,9.83,9.64c0,6.43-3.78,9.64-9.83,9.64
						c-6.05,0-9.83-3.22-9.83-9.64C430.11,55.15,433.89,51.93,439.93,51.93z M415.99,61.58c0,12.1,8.5,18.48,23.95,18.48
						c15.44,0,23.95-6.38,23.95-18.48c0-12.1-8.51-18.47-23.95-18.47C424.49,43.11,415.99,49.48,415.99,61.58z M552.43,78.65h14.81
						l7.81-29.3h0.13l7.82,29.3h14.8l13.49-44.99h-14.5l-7.06,30.38h-0.13l-8.13-30.38h-12.73l-8.13,30.38h-0.12l-7.07-30.38h-14.5
						L552.43,78.65z M624.71,57.79c0.75-3.78,3.59-6.99,9.9-6.99c6.31,0,9.13,3.21,9.89,6.99H624.71z M643.49,68.51
						c-1.57,2.01-3.78,3.84-8.07,3.84c-6.87,0-10.02-3.22-10.71-7.62h33.52v-1.02c0-14.24-9.07-20.61-23.69-20.61
						c-14.17,0-23.57,6.3-23.57,18.41c0,12.67,8.57,18.54,23.95,18.54c14.55,0,21.05-5.88,22.68-11.55H643.49z M664.03,78.66h13.36
						V32.52h-13.36V78.66z M684.96,78.66h13.35V32.52h-13.35V78.66z M717.85,57.79c0.76-3.78,3.6-6.99,9.9-6.99s9.14,3.21,9.89,6.99
						H717.85z M736.64,68.51c-1.58,2.01-3.79,3.84-8.07,3.84c-6.87,0-10.02-3.22-10.72-7.62h33.54v-1.02
						c0-14.24-9.08-20.61-23.7-20.61c-14.18,0-23.57,6.3-23.57,18.41c0,12.67,8.56,18.54,23.94,18.54
						c14.56,0,21.05-5.88,22.69-11.55H736.64z M757.18,78.66h13.36V65.42c0-6.18,3.4-10.09,11.03-10.09c2.52,0,5.67,0.5,7.37,1.13
						V43.99c-1.33-0.26-3.09-0.38-4.54-0.38c-6.05,0-11.28,3.09-13.93,7.63h-0.13V44.5h-13.17V78.66z"/>
					<path class="st1" d="M502,56.05L490.75,70.5l-11.25,14.43V56.05V27.18l11.25,14.44L502,56.05z M531.34,56.05L520.09,70.5
						l-11.25,14.43V56.05V27.18l11.25,14.44L531.34,56.05z"/>
				</g>
			</g>
		</g>
	</g>
	<g>
		<path class="st2" d="M279.08,104.01c0-6.13,2.48-9.35,8.83-9.35s8.87,3.22,8.87,9.35s-2.52,9.35-8.87,9.35
			S279.08,110.14,279.08,104.01z M293.59,104.07c0-4.13-1.45-6.42-5.67-6.42s-5.67,2.29-5.67,6.42s1.45,6.45,5.67,6.45
			S293.59,108.2,293.59,104.07z"/>
		<path class="st2" d="M313.15,97.92h-7.48V113h-3.13V97.92h-3.39v-2.84h3.39v-1.26c0-3.55,1.23-5.84,5.71-5.84h2.06v2.74h-1.68
			c-2.39,0-2.97,1.29-2.97,3.1v1.26h7.48v-1.26c0-3.55,1.19-5.84,5.71-5.84h2.1v2.74h-1.71c-2.39,0-2.97,1.29-2.97,3.1v1.26h4.67
			v2.84h-4.67V113h-3.13V97.92z"/>
		<path class="st2" d="M322.47,104.01c0-5.16,1.58-9.35,8.74-9.35c7.38,0,7.64,5.13,7.54,10.58H325.5c0.19,3.26,1.32,5.42,5.77,5.42
			c2.9,0,4.32-0.74,5.71-1.77l1.68,2.19c-1.9,1.48-4,2.29-7.38,2.29C323.92,113.36,322.47,109.2,322.47,104.01z M325.53,102.46
			h10.25c-0.16-2.84-0.42-5.03-4.67-5.03C327.01,97.43,325.79,99.43,325.53,102.46z"/>
		<path class="st2" d="M342.68,95.24l2.48-0.16l0.26,1.71c0.84-1.13,2.55-2.13,6.61-2.13c5.67,0,6.45,3,6.45,7.42V113h-3.13v-10.32
			c0-2.9-0.26-4.93-4.32-4.93c-4.42,0-5.19,2.22-5.19,5.32V113h-3.16V95.24z"/>
		<path class="st3" d="M371.27,100.3h5.16v5.8h-5.16V100.3z"/>
		<path class="st2" d="M389.29,95.24l2.48-0.16l0.26,1.71c0.71-1.16,2.51-2.13,6.42-2.13c3.8,0,5,0.94,5.48,2.26
			c0.84-1.29,2.84-2.26,6.87-2.26c5.67,0,6.29,3,6.29,7.42V113h-3.16v-10.32c0-2.9-0.1-4.93-4.13-4.93c-4.42,0-5.06,2.22-5.06,5.32
			V113h-3.1v-10.32c0-2.9-0.13-4.93-4.16-4.93c-4.42,0-5.03,2.22-5.03,5.32V113h-3.16V95.24z"/>
		<path class="st2" d="M420.72,104.01c0-5.16,1.58-9.35,8.74-9.35c7.38,0,7.64,5.13,7.54,10.58h-13.25
			c0.19,3.26,1.32,5.42,5.77,5.42c2.9,0,4.32-0.74,5.71-1.77l1.68,2.19c-1.9,1.48-4,2.29-7.38,2.29
			C422.17,113.36,420.72,109.2,420.72,104.01z M423.78,102.46h10.25c-0.16-2.84-0.42-5.03-4.67-5.03
			C425.27,97.43,424.04,99.43,423.78,102.46z"/>
		<path class="st2" d="M440.93,95.24l2.48-0.16l0.26,1.71c0.84-1.13,2.55-2.13,6.61-2.13c5.67,0,6.45,3,6.45,7.42V113h-3.13v-10.32
			c0-2.9-0.26-4.93-4.32-4.93c-4.42,0-5.19,2.22-5.19,5.32V113h-3.16V95.24z"/>
		<path class="st2" d="M459.79,111.23l1.61-2.45c2.06,1.32,4.38,1.81,6.32,1.81c3.06,0,4.32-0.48,4.32-2.64
			c0-1.71-1.13-2.06-4.32-2.61c-4.22-0.74-7.03-1.45-7.03-5.54c0-3.26,1.9-5.13,7.03-5.13c2.77,0,5.13,0.58,6.84,1.58l-1.48,2.58
			c-1.35-0.74-3.19-1.26-5.29-1.26c-3.13,0-3.97,0.84-3.97,2.22c0,1.68,1.1,2.1,4.03,2.61c4.42,0.81,7.22,1.39,7.22,5.42
			c0,4.09-2.26,5.51-7.54,5.51C464.98,113.33,462.21,112.84,459.79,111.23z"/>
		<path class="st2" d="M477.65,104.01c0-5.55,1.84-9.35,8.87-9.35c3.19,0,5.29,1.13,6.67,2.68l-2.29,2.16
			c-0.84-0.87-2.1-1.8-4.38-1.8c-4.42,0-5.71,2.39-5.71,6.38s1.23,6.45,5.71,6.45c1.93,0,3.19-0.61,4.55-1.84l2.1,2
			c-1.84,1.71-3.61,2.64-6.77,2.64C479.52,113.33,477.65,109.55,477.65,104.01z"/>
		<path class="st2" d="M496.86,87.99h3.13v8.64c0.71-1.03,2.42-1.97,6.22-1.97c5.67,0,6.45,3,6.45,7.42V113h-3.13v-10.32
			c0-2.9-0.26-4.93-4.32-4.93c-4.42,0-5.19,2.22-5.19,5.32V113h-3.16V87.99z"/>
		<path class="st2" d="M517.43,108.36V87.99h3.1v20.02c0,1.68,0.26,2.22,2,2.22h0.71v2.74c-0.29,0.03-1,0.06-1.77,0.06
			C518.46,113.04,517.43,111.78,517.43,108.36z"/>
		<path class="st2" d="M527.23,89.11h3.16v3.8h-3.16V89.11z M527.26,95.08h3.1V113h-3.1V95.08z"/>
		<path class="st2" d="M534.32,104.01c0-5.55,1.84-9.35,8.87-9.35c3.19,0,5.29,1.13,6.67,2.68l-2.29,2.16
			c-0.84-0.87-2.1-1.8-4.38-1.8c-4.42,0-5.71,2.39-5.71,6.38s1.23,6.45,5.71,6.45c1.93,0,3.19-0.61,4.55-1.84l2.1,2
			c-1.84,1.71-3.61,2.64-6.77,2.64C536.19,113.33,534.32,109.55,534.32,104.01z"/>
		<path class="st2" d="M553.53,87.99h3.13v8.64c0.71-1.03,2.42-1.97,6.22-1.97c5.67,0,6.45,3,6.45,7.42V113h-3.13v-10.32
			c0-2.9-0.26-4.93-4.32-4.93c-4.42,0-5.19,2.22-5.19,5.32V113h-3.16V87.99z"/>
		<path class="st3" d="M582.12,100.3h5.16v5.8h-5.16V100.3z"/>
		<path class="st2" d="M598.79,110.72l10.22-12.8h-9.7v-2.84h13.8v2.35l-10.25,12.9h10.61V113h-14.67V110.72z"/>
		<path class="st2" d="M616.55,105.33V95.08h3.13v10.32c0,2.84,0.03,5.06,4.77,5.06c4.77,0,4.74-2.22,4.74-5.16V95.08h3.06v10.16
			c0,5.29-0.9,8.09-7.8,8.09S616.55,110.52,616.55,105.33z"/>
		<path class="st2" d="M634.7,95.08h3.35l5.51,14.35l5.51-14.35h3.26l-7.13,18.09h-3.38L634.7,95.08z"/>
		<path class="st2" d="M653.4,104.01c0-5.16,1.58-9.35,8.74-9.35c7.38,0,7.64,5.13,7.54,10.58h-13.25c0.19,3.26,1.32,5.42,5.77,5.42
			c2.9,0,4.32-0.74,5.71-1.77l1.68,2.19c-1.9,1.48-4,2.29-7.38,2.29C654.85,113.36,653.4,109.2,653.4,104.01z M656.46,102.46h10.25
			c-0.16-2.84-0.42-5.03-4.67-5.03C657.94,97.43,656.72,99.43,656.46,102.46z"/>
		<path class="st2" d="M673.61,95.24l2.48-0.16l0.32,2.19c0.71-1.29,2.9-2.35,6.06-2.42v3.16c-4.32,0.03-5.71,2.26-5.71,5.54V113
			h-3.16V95.24z"/>
		<path class="st2" d="M685.76,108.36V87.99h3.1v20.02c0,1.68,0.26,2.22,2,2.22h0.71v2.74c-0.29,0.03-1,0.06-1.77,0.06
			C686.79,113.04,685.76,111.78,685.76,108.36z"/>
		<path class="st2" d="M693.69,107.91c0-5.09,2.87-6.58,11.83-6.58h0.97c-0.06-2.58-0.68-3.74-4.48-3.74
			c-2.26,0-4.16,0.81-5.29,1.51l-1.64-2.45c1.19-0.81,4.03-2,7.22-2c6.13,0,7.22,2.1,7.22,7.19v6.38c0,1.74,0.13,2,1.77,2v2.74
			c-0.23,0.06-0.64,0.06-1.29,0.06c-1.97,0-2.61-0.55-3.06-2.03c-1.06,1.52-3,2.32-6.83,2.32
			C694.95,113.33,693.69,110.94,693.69,107.91z M706.49,105.11v-1.1h-0.81c-7.38,0-9,0.84-9,3.67c0,1.9,0.87,2.93,3.93,2.93
			C704.78,110.62,706.49,108.94,706.49,105.11z M697.66,89.53h2.87v3.61h-2.87V89.53z M704.62,89.53h2.84v3.61h-2.84V89.53z"/>
		<path class="st2" d="M712.74,111.23l1.61-2.45c2.06,1.32,4.38,1.81,6.32,1.81c3.06,0,4.32-0.48,4.32-2.64
			c0-1.71-1.13-2.06-4.32-2.61c-4.22-0.74-7.03-1.45-7.03-5.54c0-3.26,1.9-5.13,7.03-5.13c2.77,0,5.13,0.58,6.84,1.58l-1.48,2.58
			c-1.35-0.74-3.19-1.26-5.29-1.26c-3.13,0-3.97,0.84-3.97,2.22c0,1.68,1.1,2.1,4.03,2.61c4.42,0.81,7.22,1.39,7.22,5.42
			c0,4.09-2.26,5.51-7.54,5.51C717.93,113.33,715.16,112.84,712.74,111.23z"/>
		<path class="st2" d="M730.02,111.23l1.61-2.45c2.06,1.32,4.38,1.81,6.32,1.81c3.06,0,4.32-0.48,4.32-2.64
			c0-1.71-1.13-2.06-4.32-2.61c-4.22-0.74-7.03-1.45-7.03-5.54c0-3.26,1.9-5.13,7.03-5.13c2.77,0,5.13,0.58,6.84,1.58l-1.48,2.58
			c-1.35-0.74-3.19-1.26-5.29-1.26c-3.13,0-3.97,0.84-3.97,2.22c0,1.68,1.1,2.1,4.03,2.61c4.42,0.81,7.22,1.39,7.22,5.42
			c0,4.09-2.26,5.51-7.54,5.51C735.21,113.33,732.44,112.84,730.02,111.23z"/>
		<path class="st2" d="M748.98,89.11h3.16v3.8h-3.16V89.11z M749.01,95.08h3.1V113h-3.1V95.08z"/>
		<path class="st2" d="M761.16,106.23c-0.26,0.32-0.42,0.71-0.42,1.1c0,1.06,0.74,1.23,3.58,1.23c6.71,0,8.77,1.13,8.77,4.74
			c0,3.84-2.48,5.48-9.06,5.48c-6.03,0-8.54-0.84-8.54-4.45c0-2.03,0.74-3.84,3.42-4.38c-0.71-0.48-1-1.19-1-2.16
			c0-0.87,0.29-1.77,0.81-2.48c-1.48-0.93-2.19-2.45-2.19-4.61c0-4,2.26-6.03,7.61-6.03c0.39,0,0.77,0,1.16,0.03l7.06-1v2.58h-2.9
			c1.48,0.81,2.32,2.13,2.32,4.42c0,3.97-2.35,5.77-7.64,5.77C763,106.46,762.03,106.4,761.16,106.23z M769.93,113.46
			c0-1.87-1.45-2.26-5.8-2.26c-4.87,0-5.48,1.13-5.48,2.61c0,1.9,1.55,2.48,5.48,2.48C768.83,116.29,769.93,115.29,769.93,113.46z
			 M768.67,100.69c0-2.29-1.48-3.19-4.55-3.19c-3.32,0-4.58,0.9-4.58,3.19c0,2.22,1.26,3.19,4.58,3.19
			C767.45,103.88,768.67,102.91,768.67,100.69z"/>
	</g>
	<g>
		<g>
			<path class="st2" d="M146.96,36.71c-54.48,0-98.15,16.33-98.15,36.8c0,20.35,44.03,36.8,98.15,36.8
				c54.12,0,98.15-16.51,98.15-36.8C245.11,53.22,201.08,36.71,146.96,36.71z"/>
		</g>
		<path class="st4" d="M204.62,62.95c0.13-0.22-0.01-0.39-0.29-0.39c-1.48,0-3.42,0-4.96,0c-0.37,0-0.56,0.04-0.73,0.39
			c-0.57,1.09-7.5,11.48-8.79,13.5c-0.22,0.31-0.48,0.26-0.51-0.09c-0.13-1.2-1.17-2.58-2.8-3.23c-1.24-0.5-2.46-0.6-3.72-0.43
			c-2.28,0.31-4.31,1.51-6.1,2.87c-2.69,2.05-5.01,4.7-8.01,6.66c-1.64,1.07-3.88,2-5.38,0.61c-1.36-1.26-1.2-4.05,0.87-6.21
			c0.22-0.23,0.48-0.04,0.44,0.17c-0.2,0.98,0.05,1.95,0.79,2.63c0.91,0.81,2.2,0.9,3.31,0.36c1.31-0.65,2.08-1.9,2.3-3.32
			c0.35-2.21-1.35-4.15-3.47-4.31c-1.73-0.12-3.38,0.48-4.99,1.81c-0.81,0.67-1.27,1.17-1.97,2.16c-0.17,0.24-0.43,0.27-0.42-0.09
			c0.08-2.82-1.09-4.41-3.42-4.46c-1.81-0.04-3.75,0.94-5.26,2.14c-1.65,1.33-3.1,3.09-4.65,4.74c-0.19,0.2-0.36,0.19-0.42-0.2
			c-0.05-1.87-0.52-3.68-1.38-4.97c-0.31-0.45-0.95-0.67-1.49-0.37c-0.25,0.14-1.12,0.54-1.75,1.05c-0.31,0.26-0.44,0.63-0.3,1.11
			c0.84,2.79,0.65,5.97-0.48,8.66c-1.04,2.46-3.06,4.68-5.44,5.43c-1.57,0.5-3.2,0.25-4.2-1.14c-1.38-1.92-0.83-5.25,1.24-8.02
			c1.82-2.44,4.46-3.99,7.08-4.98c0.31-0.12,0.37-0.32,0.28-0.58c-0.14-0.43-0.37-1.02-0.46-1.29c-0.24-0.64-0.92-0.75-1.74-0.66
			c-1.91,0.22-3.63,0.88-5.33,1.79c-4.45,2.39-6.69,7-7.67,9.47c-0.47,1.19-0.87,1.93-1.4,2.58c-0.7,0.88-1.58,1.69-3.2,3.1
			c-0.15,0.13-0.25,0.4-0.13,0.65c0.16,0.34,1,1.52,1.24,1.63c0.26,0.13,0.57-0.05,0.69-0.14c1.13-0.76,2.48-1.98,3.14-2.8
			c0.23-0.28,0.47-0.16,0.59,0.26c0.62,2.2,2.23,3.99,4.46,4.74c4.08,1.38,8.32-0.62,11.52-4.09c2.03-2.21,2.77-3.62,3.54-4.59
			c1.32-1.64,3.92-5.3,7.03-7.64c1.14-0.87,2.48-1.53,3.16-1.09c0.54,0.35,0.72,1.17-0.15,2.76c-3.16,5.77-7.82,12.56-8.67,14.2
			c-0.16,0.29-0.02,0.51,0.28,0.51c1.65-0.01,3.3,0,4.8,0c0.25-0.01,0.36-0.13,0.49-0.3c2.43-3.8,4.71-7.42,7.16-11.15
			c0.14-0.22,0.26-0.05,0.27,0.05c0.05,0.87,0.26,2.05,0.78,2.83c0.93,1.44,2.24,2.06,3.69,2.07c1.16,0.01,1.74-0.16,2.99-0.63
			c1.02-0.38,1.83-0.87,2.46-1.32c0.37-0.25,0.43,0.17,0.42,0.24c-0.56,3.02,0.13,6.59,3.13,8.07c3.59,1.77,7.53-0.72,9.8-2.96
			c0.22-0.22,0.46-0.19,0.48,0.27c0.05,0.86,0.44,1.87,1.14,2.59c1.9,1.91,5.73,1.15,9.58-1.83c2.47-1.91,5.06-4.6,7.39-7.45
			c0.09-0.11,0.15-0.29-0.02-0.47c-0.36-0.37-0.87-0.8-1.22-1.13c-0.16-0.14-0.4-0.1-0.53,0.01c-2.39,2.28-4.55,4.87-7.66,7.02
			c-1.05,0.73-2.72,1.32-3.48,0.31c-0.29-0.39-0.26-0.94,0.03-1.66C189.5,86.13,203.88,64.24,204.62,62.95z M185.62,81.31
			c0.03,0.17,0.25,0.33,0.46,0.41c0.07,0.03,0.12,0.08,0.03,0.26c-0.61,1.31-1.17,2.07-1.94,3.2c-0.7,1.05-1.5,1.87-2.46,2.66
			c-1.45,1.2-3.46,2.51-5.13,1.63c-0.74-0.38-1.06-1.42-1.04-2.26c0.04-2.36,1.08-4.77,3.02-7.15c2.36-2.9,4.97-4.41,6.68-3.59
			c1.77,0.84,1.21,2.89,0.41,4.5C185.59,81.1,185.59,81.2,185.62,81.31z"/>
		<path class="st4" d="M100.36,93.76C95,93.8,90.27,90.49,89.73,84.76c-0.3-3.18,0.6-6.01,2.39-8.34c1.6-2.08,4.29-3.81,6.58-4.23
			c0.74-0.14,1.74-0.05,2.16,0.44c0.65,0.75,0.46,1.58-0.19,1.91c-1.74,0.89-3.84,2.41-4.88,4.49c-0.84,1.7-1.01,3.75,0.27,5.7
			c2.15,3.25,8.15,3.34,13.73-1.84c1.38-1.27,2.62-2.49,3.87-3.93c2.46-2.81,3.27-3.83,6.54-8.36c0.04-0.05,0.05-0.12,0.03-0.15
			c-0.03-0.06-0.07-0.07-0.17-0.08c-2.18,0.06-4.08,0.71-5.93,2.09c-0.53,0.39-1.3,0.33-1.63-0.18c-0.37-0.58-0.11-1.33,0.51-1.75
			c2.97-2.07,6.22-2.44,9.54-3c0,0,0.23,0.01,0.42-0.24c1.36-1.75,2.39-3.32,3.84-5.09c1.46-1.79,3.35-3.44,4.79-4.67
			c2.01-1.73,3.31-2.31,4.62-3.03c0.35-0.18-0.04-0.4-0.15-0.4c-7.33-1.38-14.95-3.16-22.23-0.46c-5.04,1.88-7.25,5.88-6.19,8.55
			c0.76,1.89,3.25,2.2,5.58,1.06c1.94-0.95,3.73-2.48,5-4.45c0.71-1.09,2.21-0.3,1.4,1.59c-2.13,5.01-6.2,8.98-11.16,9.14
			c-4.22,0.14-6.94-2.97-6.93-6.79c0.02-7.55,8.42-12.52,17.26-13.27c10.64-0.88,20.72,1.95,31.28,3.24
			c8.09,0.98,15.85,1,23.99-0.87c0.96-0.21,1.64,0.41,1.57,1.38c-0.08,1.4-1.17,2.76-3.85,4.22c-3.05,1.67-6.23,2.18-9.56,2.21
			c-8.05,0.07-15.55-3.07-23.31-4.76c0.01,0.34,0.1,0.75-0.19,0.96c-4.3,3.17-8.18,6.39-10.79,10.91c-0.09,0.1-0.04,0.2,0.11,0.19
			c2.26-0.12,4.29-0.18,6.4-0.35c0.37-0.03,0.38-0.12,0.35-0.39c-0.19-1.56,0.27-3.34,1.64-4.56c1.4-1.26,3.16-1.4,4.32-0.5
			c1.32,1.03,1.21,2.89,0.48,4.28c-0.74,1.41-1.96,2.17-3.12,2.53c0,0-0.24,0.05-0.21,0.28c0.05,0.36,1.64,1.24,1.77,1.47
			c0.13,0.22,0.06,0.57-0.18,0.84c-0.17,0.19-0.43,0.37-0.77,0.37c-0.27-0.01-0.44-0.1-0.79-0.29c-0.71-0.39-1.61-1.02-2.2-1.77
			c-0.2-0.25-0.31-0.26-0.81-0.23c-2.28,0.13-5.84,0.48-8.25,0.78c-0.58,0.07-0.67,0.18-0.79,0.38
			c-3.84,6.34-7.95,13.18-12.46,17.75C108.64,92.44,104.62,93.73,100.36,93.76z M136.99,65.59c0.06,0.33,0.19,0.39,0.34,0.36
			c0.73-0.15,1.53-0.75,2.01-1.45c0.43-0.63,0.63-1.55,0.21-1.91c-0.38-0.33-1.01-0.24-1.47,0.17
			C137.15,63.58,136.87,64.73,136.99,65.59L136.99,65.59"/>
		<path class="st4" d="M146.96,107.11c-51.94,0-94.05-15.04-94.05-33.59c0-18.55,42.11-33.59,94.05-33.59
			c51.94,0,94.04,15.04,94.04,33.59C241,92.07,198.9,107.11,146.96,107.11z M146.96,42.73c-50.12,0-90.74,13.85-90.74,30.8
			c0,16.95,40.62,30.8,90.74,30.8c50.12,0,90.74-13.85,90.74-30.8C237.7,56.58,197.08,42.73,146.96,42.73z"/>
	</g>
</g>
</svg>
